<svg version="1" xmlns="http://www.w3.org/2000/svg" width="348" height="348" viewBox="0 0 261.000000 261.000000"><path d="M183.8 1.1c-2 1.1-9.8 12.4-9.8 14.1 0 .7-1.4 2.6-3 4.1-1.7 1.6-3.3 4.1-3.6 5.5-.6 2.8-.8 3.4-3.7 7.4-1 1.4-2 3.6-2.2 4.9-.3 1.3-1.4 3.6-2.4 5-1.1 1.5-2.3 4-2.7 5.5-.4 1.6-1.5 3.9-2.6 5-1 1.2-2 3.4-2.2 5-.3 2.5-2.5 4.8-2.7 2.7-1-10.7-2.4-13-7.2-11.7-3.1.8-7.6 7.1-8.3 11.6-.4 2.1-.9 3.8-1.3 3.8-.3 0-2.3.4-4.3.9-3.7.9-3.8.8-5.7-3.3-1.2-2.3-3.3-4.9-4.9-5.8-4.4-2.6-7.1-.7-10.3 7.5-1.4 3.7-3.4 7.6-4.5 8.6-1 1.1-3.7 3.8-5.9 6.1s-6 5.2-8.5 6.5c-4.5 2.2-15.2 4.9-24.2 6-6.4.7-12.1 2.9-17.5 6.5-22.1 14.9-34.8 36.5-33.7 57.2C13.9 179.8 22 198 36 207.1c2.7 1.8 6 4.8 7.3 6.8 4.1 6.1 12.5 13.9 19 17.5 14.4 8 28.1 9 48.7 3.6 22.6-5.8 45.1-4.9 62.3 2.6 6.3 2.8 20.6 11.6 24.2 15 7.7 7.2 9.7 8.5 11.2 7.3 2.1-1.8 1-6.7-3.8-16.5-11.5-23.9-28.9-44.4-50-58.6-5.8-3.9-11.6-8.6-12.9-10.5-3.7-5.4-3.9-13.2-.6-23.1l2.7-8.1 3.7 1.6c4.6 2 13.7 2 18.4 0 2-.8 5.5-3.2 7.8-5.3l4.3-3.9 13.5-.2c7.5-.2 15 .1 16.7.7 4.5 1.5 14.3 1.5 20.2.1 3.8-.9 6.1-2.2 8.3-4.8 2.7-3 3-3.9 2.5-7.6-.6-3.9-.4-4.3 2.5-6 6-3.6 8.3-11.9 5-17.7-1.1-1.9-2.5-4.7-3.1-6.2-1.2-3-5.4-4.9-8.4-3.7-3 1.1-31.2-.1-37.7-1.7-7.7-1.8-13.7-5-14.7-7.7-1.3-3.2-3.4-4.7-7.8-5.4-2.1-.3-5-1.2-6.6-2-2.5-1.3-2.6-1.5-1.3-3.6.8-1.2 1.7-3.5 2-5 .3-1.6 1-3.5 1.7-4.3.6-.8 1.4-3.3 1.7-5.7.2-2.3 1.1-5.1 1.8-6.2.8-1.1 1.4-3 1.4-4.2 0-1.2.9-3.7 2-5.5 1.1-1.8 2-4.3 2-5.6 0-1.3.7-3 1.5-3.8.8-.8 1.7-3.1 2-5.2.4-2 1.3-4.9 2-6.3.8-1.5 1.7-4.4 2-6.5.4-2.2.8-4.6 1.1-5.5 1-3.6-1.8-6.5-4.8-4.8z"/></svg>