<svg width="736pt" height="572" viewBox="0 0 736 429" xmlns="http://www.w3.org/2000/svg" xmlns:xlink="http://www.w3.org/1999/xlink"><defs><symbol id="a" overflow="visible"><path d="M4.047-2L2.64-2.969l2.14-3.453-3.375-1.5.5-1.562 3.578.953.25-3.922h1.72l.265 3.922 3.562-.953.516 1.562-3.375 1.5 2.14 3.453L9.157-2 6.594-5.125z"/></symbol><symbol id="c" overflow="visible"><path d="M7.828.266a6.938 6.938 0 01-2.547-.47 6.245 6.245 0 01-2.11-1.405c-.605-.614-1.089-1.38-1.452-2.297-.356-.914-.532-1.973-.532-3.172 0-1.188.176-2.242.532-3.172.351-.938.836-1.727 1.453-2.375a6.096 6.096 0 012.172-1.469 6.964 6.964 0 012.687-.515c.906 0 1.723.187 2.453.562.739.375 1.348.797 1.828 1.266l-1.78 2a4.452 4.452 0 00-1.11-.735c-.399-.195-.86-.297-1.39-.297-.513 0-.981.11-1.407.329-.43.21-.805.511-1.125.906a4.458 4.458 0 00-.734 1.453c-.168.574-.25 1.219-.25 1.937 0 1.48.332 2.625 1 3.438.675.812 1.554 1.219 2.64 1.219.52 0 .992-.114 1.422-.344a4.59 4.59 0 001.188-.938l1.78 1.97C11.36-.439 9.787.265 7.829.265z"/></symbol><symbol id="d" overflow="visible"><path d="M8.688.266c-1.376 0-2.415-.407-3.11-1.22-.7-.812-1.047-1.913-1.047-3.312v-8.61H1.094v-2.546h6.672v11.281c0 .344.046.633.14.86.094.218.223.402.39.546.177.137.368.235.579.297.219.055.441.078.672.078.25 0 .508-.023.781-.078.27-.05.57-.14.906-.265l.735 2.375c-.293.085-.563.164-.813.234A8.983 8.983 0 019.61.219a8.147 8.147 0 01-.922.046z"/></symbol><symbol id="e" overflow="visible"><path d="M6.594.266A5.86 5.86 0 014.516-.11a5.537 5.537 0 01-1.782-1.11 5.371 5.371 0 01-1.25-1.797c-.304-.718-.453-1.53-.453-2.437s.149-1.711.453-2.422c.313-.719.727-1.316 1.25-1.797a5.282 5.282 0 011.782-1.11 5.706 5.706 0 014.156 0c.676.25 1.27.622 1.781 1.11.52.48.938 1.078 1.25 1.797.313.71.469 1.516.469 2.422s-.156 1.719-.469 2.437a5.429 5.429 0 01-1.25 1.797 5.376 5.376 0 01-1.781 1.11c-.668.25-1.36.375-2.078.375zm0-2.625c.75 0 1.312-.274 1.687-.828.375-.563.563-1.317.563-2.266 0-.957-.188-1.711-.563-2.266-.375-.562-.937-.843-1.687-.843-.742 0-1.297.28-1.672.843-.375.555-.563 1.309-.563 2.266 0 .95.188 1.703.563 2.266.375.554.93.828 1.672.828z"/></symbol><symbol id="f" overflow="visible"><path d="M7.547.266A7.452 7.452 0 015.14-.11a5.859 5.859 0 01-1.922-1.11 5.07 5.07 0 01-1.297-1.797c-.305-.718-.453-1.53-.453-2.437s.172-1.711.515-2.422a5.405 5.405 0 011.391-1.797 6.028 6.028 0 012.016-1.11 7.374 7.374 0 012.39-.39c.875 0 1.656.14 2.344.422.695.273 1.281.621 1.75 1.047l-1.484 2c-.813-.57-1.622-.86-2.422-.86-.938 0-1.703.282-2.297.844-.586.555-.875 1.309-.875 2.266 0 .949.281 1.703.844 2.265.562.555 1.3.828 2.218.828.57 0 1.094-.097 1.563-.296a7.343 7.343 0 001.312-.735l1.297 2.047A6.355 6.355 0 019.86-.109a7.666 7.666 0 01-2.312.375z"/></symbol><symbol id="g" overflow="visible"><path d="M1.672 0v-15.422h3.234v8.906H5l4-4.39h3.547L8.375-6.47 12.875 0h-3.5L6.515-4.47 4.907-2.75V0z"/></symbol><symbol id="h" overflow="visible"><path d="M6.11 0v-8.375H1.733v-2.531h7.61V0zm1.468-12.625c-.625 0-1.14-.176-1.547-.531-.406-.352-.61-.832-.61-1.438 0-.594.204-1.078.61-1.453s.922-.562 1.547-.562c.633 0 1.149.187 1.547.562.406.375.61.86.61 1.453 0 .606-.204 1.086-.61 1.438-.398.355-.914.531-1.547.531z"/></symbol><symbol id="i" overflow="visible"><path d="M1.578 0v-10.906h2.64l.25 1.453h.079a7.46 7.46 0 011.625-1.203c.601-.344 1.316-.516 2.14-.516 1.227 0 2.13.399 2.704 1.188.57.793.859 1.875.859 3.25V0H8.64v-6.312c0-.727-.122-1.258-.36-1.594-.23-.344-.64-.516-1.234-.516-.45 0-.84.094-1.172.282-.324.187-.68.476-1.063.859V0z"/></symbol><symbol id="j" overflow="visible"><path d="M6.094 4.64c-.711 0-1.367-.058-1.969-.171a5.592 5.592 0 01-1.578-.5 2.89 2.89 0 01-1.031-.875c-.25-.344-.375-.762-.375-1.25 0-.899.566-1.621 1.703-2.172v-.094a2.747 2.747 0 01-.797-.719c-.211-.289-.313-.672-.313-1.14 0-.375.118-.742.36-1.11.25-.363.562-.675.937-.937v-.094c-.398-.258-.734-.629-1.015-1.11-.274-.476-.407-1.038-.407-1.687 0-.656.125-1.226.375-1.719.258-.5.602-.91 1.032-1.234a4.468 4.468 0 011.484-.75 6.262 6.262 0 011.766-.25c.675 0 1.28.09 1.812.266H12.5v2.375h-2.203c.113.156.223.367.328.625a2.1 2.1 0 01.156.796c0 .637-.12 1.184-.36 1.641-.23.45-.546.824-.952 1.125a4.104 4.104 0 01-1.438.672 6.686 6.686 0 01-1.765.219 5.4 5.4 0 01-1.485-.219 1.384 1.384 0 00-.375.36.828.828 0 00-.11.452c0 .293.145.5.438.625.29.125.758.188 1.407.188h2.015c1.438 0 2.531.215 3.281.64.758.43 1.141 1.133 1.141 2.11a2.84 2.84 0 01-.469 1.578c-.304.488-.734.906-1.297 1.25-.554.344-1.234.613-2.047.813-.804.195-1.695.296-2.671.296zm.172-10.046c.457 0 .847-.149 1.172-.454.32-.3.484-.753.484-1.359 0-.57-.164-1.008-.484-1.312a1.628 1.628 0 00-1.172-.47c-.45 0-.836.157-1.157.47-.312.304-.468.742-.468 1.312 0 .606.156 1.059.468 1.36.32.304.708.453 1.157.453zm.297 8c.875 0 1.582-.125 2.125-.375.539-.25.812-.563.812-.938 0-.355-.164-.586-.484-.687C8.69.488 8.219.437 7.594.437H6.219c-.399 0-.727-.011-.985-.03A3.533 3.533 0 014.547.28c-.274.176-.469.348-.594.516a.992.992 0 00-.172.562c0 .414.242.723.735.922.5.207 1.18.313 2.047.313z"/></symbol><symbol id="aF" overflow="visible"><path d="M1.547 0v-14.344H5.5c1.04 0 1.984.14 2.828.422.852.273 1.582.7 2.188 1.281.601.586 1.066 1.324 1.39 2.219.332.887.5 1.95.5 3.187 0 1.23-.164 2.305-.484 3.22-.324.905-.781 1.655-1.375 2.25S9.242-.728 8.422-.439C7.598-.145 6.692 0 5.703 0zm3.25-2.625h.531a4.69 4.69 0 001.516-.234 2.859 2.859 0 001.187-.782c.332-.363.594-.836.781-1.422.188-.582.282-1.304.282-2.171 0-.852-.094-1.567-.281-2.141-.188-.582-.45-1.047-.782-1.39a2.729 2.729 0 00-1.187-.735 5.038 5.038 0 00-1.516-.219h-.531z"/></symbol><symbol id="aG" overflow="visible"><path d="M6.594.266A5.694 5.694 0 014.25-.22 4.963 4.963 0 012.422-1.64c-.5-.632-.89-1.414-1.172-2.343-.273-.938-.406-2.02-.406-3.25 0-1.207.133-2.27.406-3.188.281-.914.672-1.68 1.172-2.297a4.84 4.84 0 011.828-1.406c.719-.32 1.5-.484 2.344-.484.851 0 1.633.164 2.344.484a4.725 4.725 0 011.828 1.406c.508.617.898 1.383 1.172 2.297.28.918.421 1.98.421 3.188 0 1.23-.14 2.312-.421 3.25-.274.93-.664 1.71-1.172 2.343A4.84 4.84 0 018.938-.219c-.711.32-1.493.485-2.344.485zm0-2.797c.75 0 1.344-.395 1.781-1.188.445-.789.672-1.96.672-3.515 0-1.5-.227-2.633-.672-3.407-.438-.78-1.031-1.171-1.781-1.171-.742 0-1.336.39-1.781 1.171-.438.774-.657 1.907-.657 3.407 0 1.554.22 2.726.657 3.515.445.793 1.039 1.188 1.78 1.188z"/></symbol><symbol id="aH" overflow="visible"><path d="M1.453 0v-14.344h3.328l3 7.125 1.235 3.172h.093a70.977 70.977 0 00-.297-2.531 21.646 21.646 0 01-.171-2.688v-5.078h3.109V0H8.422L5.406-7.156l-1.219-3.125h-.093c.07.793.164 1.648.281 2.562.113.907.172 1.79.172 2.641V0z"/></symbol><symbol id="aI" overflow="visible"><path d="M2.031 0v-14.344h9.5v2.734h-6.25v2.875h5.297v2.703H5.281v3.297h6.469V0z"/></symbol><symbol id="aW" overflow="visible"><path d="M4.969 0v-11.609H.688v-2.734h11.828v2.734H8.234V0z"/></symbol><symbol id="bf" overflow="visible"><path d="M2 0L.094-14.344h3.36l.437 7.64c.02.618.03 1.204.03 1.766l.032 1.828h.094c.102-.656.219-1.265.344-1.828s.242-1.148.36-1.765l.968-4.016H7.78l.907 4.016c.113.593.226 1.18.343 1.75.125.574.243 1.187.36 1.843h.093c.008-.656.02-1.27.032-1.843.008-.57.023-1.157.047-1.75l.406-7.641h3.14L11.36 0H7.875l-.828-4.438c-.094-.457-.18-.921-.25-1.39a15.978 15.978 0 01-.156-1.344h-.063c-.043.43-.094.875-.156 1.344-.055.469-.125.933-.219 1.39L5.375 0z"/></symbol><symbol id="bg" overflow="visible"><path d="M5.375-7.266l-.344 1.329h3.016l-.328-1.329-.594-2.265c-.211-.801-.39-1.582-.547-2.344h-.094c-.18.762-.359 1.543-.547 2.344-.187.793-.375 1.547-.562 2.265zM.203 0l4.453-14.344h3.875L13 0H9.562L8.72-3.406H4.375L3.5 0z"/></symbol><symbol id="bh" overflow="visible"><path d="M1.625 0v-2.734h3.344v-8.875H1.625v-2.735h9.953v2.735H8.234v8.875h3.344V0z"/></symbol><symbol id="k" overflow="visible"><path d="M1.844 0v-13.094h4.219c.675 0 1.3.063 1.875.188.57.125 1.066.34 1.484.64.426.305.754.695.984 1.172.239.48.36 1.074.36 1.781 0 1.012-.25 1.824-.75 2.438-.5.617-1.172 1.047-2.016 1.297L11.22 0H8.953L5.985-5.313H3.844V0zm2-6.938h1.969c.968 0 1.703-.195 2.203-.593.508-.395.765-.989.765-1.781 0-.801-.257-1.364-.765-1.688-.5-.332-1.235-.5-2.203-.5h-1.97z"/></symbol><symbol id="l" overflow="visible"><path d="M6.594.234c-.742 0-1.434-.109-2.078-.328a4.855 4.855 0 01-1.672-1 4.862 4.862 0 01-1.14-1.625c-.274-.644-.407-1.375-.407-2.187 0-.79.14-1.504.422-2.14a4.967 4.967 0 011.11-1.61c.456-.438.984-.77 1.577-1a5.1 5.1 0 011.89-.36c.72 0 1.36.118 1.923.344a3.709 3.709 0 011.406.938c.383.406.676.898.875 1.468.195.563.297 1.184.297 1.86 0 .219-.008.422-.016.61a3.001 3.001 0 01-.062.484H3.28c.102 1.011.485 1.765 1.14 2.265.665.492 1.477.735 2.438.735.551 0 1.051-.079 1.5-.235a6.49 6.49 0 001.344-.64l.703 1.265a7.696 7.696 0 01-1.718.828 6.413 6.413 0 01-2.094.328zm-.235-8.687c-.375 0-.73.058-1.062.172a2.612 2.612 0 00-.906.5c-.262.23-.485.511-.672.844a3.78 3.78 0 00-.406 1.156h5.703c-.063-.895-.336-1.563-.813-2-.469-.446-1.086-.672-1.844-.672z"/></symbol><symbol id="m" overflow="visible"><path d="M4.922 0l-4-9.781h2l2.062 5.328c.188.492.364.976.532 1.453.164.48.332.96.5 1.438h.078c.176-.477.344-.958.5-1.438.164-.477.344-.96.531-1.453l2.063-5.328h1.89L7.156 0z"/></symbol><symbol id="n" overflow="visible"><path d="M4.813.234c-.461 0-.891-.07-1.297-.203A3.043 3.043 0 012.453-.53a2.678 2.678 0 01-.687-.89 2.59 2.59 0 01-.25-1.157c0-.55.129-1.031.39-1.438.258-.414.664-.77 1.219-1.062.55-.29 1.266-.531 2.14-.719s1.926-.328 3.157-.422a2.532 2.532 0 00-.594-1.547c-.367-.425-.98-.64-1.844-.64a4.75 4.75 0 00-1.765.344c-.563.23-1.086.484-1.563.765L1.922-8.64c.258-.156.554-.316.89-.484a10.59 10.59 0 011.063-.453 8.037 8.037 0 011.187-.313 6.43 6.43 0 011.25-.125c1.364 0 2.383.371 3.063 1.11.687.73 1.031 1.742 1.031 3.031V0H8.781l-.156-1.266h-.063a9.158 9.158 0 01-1.75 1.063 4.86 4.86 0 01-2 .437zm.562-1.578c.52 0 1.031-.11 1.531-.328.5-.226 1.004-.55 1.516-.969v-2.312c-.961.074-1.762.18-2.406.312-.637.125-1.149.29-1.532.485-.375.187-.648.402-.812.64a1.44 1.44 0 00-.234.797c0 .492.187.844.562 1.063.383.21.844.312 1.375.312z"/></symbol><symbol id="o" overflow="visible"><path d="M1.047 0v-9.781h1.547L2.766-8.5h.03c.227-.438.509-.797.845-1.078.343-.29.797-.438 1.36-.438.937 0 1.534.559 1.796 1.672.27-.5.57-.898.906-1.203.344-.312.797-.469 1.36-.469.687 0 1.218.266 1.593.797.383.524.579 1.278.579 2.266V0H9.297v-6.812c0-1-.297-1.5-.89-1.5a.97.97 0 00-.766.343c-.2.219-.414.559-.64 1.016V0H5.28v-6.813c0-1-.293-1.5-.875-1.5a1.07 1.07 0 00-.796.344c-.211.219-.418.559-.625 1.016V0z"/></symbol><symbol id="p" overflow="visible"><path d="M1.766 4V-9.781h1.609l.172 1.203h.047c.445-.426.957-.77 1.531-1.031a4.025 4.025 0 011.734-.406c.633 0 1.203.12 1.703.359.5.23.922.563 1.266 1 .344.43.602.95.781 1.563.176.605.266 1.289.266 2.046 0 .844-.121 1.594-.36 2.25-.242.657-.562 1.211-.968 1.657-.406.437-.875.777-1.406 1.015s-1.086.36-1.657.36c-.46 0-.937-.102-1.437-.297a4.429 4.429 0 01-1.344-.89h-.062l.093 1.75V4zm4.328-5.406c.789 0 1.445-.305 1.968-.922.52-.625.782-1.52.782-2.688 0-1.03-.203-1.843-.61-2.437-.398-.602-1.039-.906-1.922-.906-.398 0-.812.105-1.25.312-.437.211-.882.543-1.328 1v4.625c.414.375.836.64 1.266.797.426.148.789.219 1.094.219z"/></symbol><symbol id="r" overflow="visible"><path d="M6 .234c-.637 0-1.25-.109-1.844-.328a4.687 4.687 0 01-1.562-1 5.062 5.062 0 01-1.078-1.61c-.262-.632-.391-1.359-.391-2.171s.129-1.535.39-2.172a4.845 4.845 0 011.079-1.625 4.455 4.455 0 011.562-1A5.128 5.128 0 016-10.016a5.03 5.03 0 011.828.344 4.319 4.319 0 011.563 1c.457.438.816.98 1.078 1.625.27.637.406 1.36.406 2.172s-.137 1.54-.406 2.172a4.817 4.817 0 01-1.078 1.61c-.45.437-.97.773-1.563 1A5.185 5.185 0 016 .233zm0-1.609c.875 0 1.566-.316 2.078-.953.508-.645.766-1.492.766-2.547 0-1.05-.258-1.895-.766-2.531-.512-.645-1.203-.969-2.078-.969s-1.57.324-2.078.969c-.512.636-.766 1.48-.766 2.531 0 1.055.254 1.902.766 2.547.508.637 1.203.953 2.078.953z"/></symbol><symbol id="s" overflow="visible"><path d="M2.766 0v-9.781h1.64L4.562-7.5h.063c.5-.8 1.113-1.422 1.844-1.86a4.583 4.583 0 012.406-.656c.383 0 .723.032 1.016.094.3.055.601.152.906.297l-.438 1.703c-.336-.101-.62-.18-.86-.234a4.578 4.578 0 00-.921-.078c-.71 0-1.39.199-2.047.593-.648.399-1.246 1.09-1.797 2.078V0z"/></symbol><symbol id="t" overflow="visible"><path d="M5.813 4.422c-1.399 0-2.493-.23-3.282-.688-.793-.449-1.187-1.105-1.187-1.968 0-.836.523-1.543 1.578-2.125v-.079a2.091 2.091 0 01-.703-.609c-.2-.258-.297-.598-.297-1.016 0-.32.101-.644.312-.968.207-.32.489-.614.844-.875v-.078a3.13 3.13 0 01-.875-1c-.23-.426-.344-.93-.344-1.516 0-.539.102-1.031.313-1.469a3.5 3.5 0 01.86-1.11 3.684 3.684 0 011.25-.702 4.846 4.846 0 011.515-.235 4.4 4.4 0 011.484.235h4.016v1.562H8.922c.187.211.351.477.5.797.144.313.219.64.219.984 0 .532-.102 1.008-.297 1.422-.2.407-.477.758-.828 1.047a3.8 3.8 0 01-1.22.657 4.94 4.94 0 01-1.5.218 3.83 3.83 0 01-.765-.078 5.713 5.713 0 01-.812-.25c-.45.293-.672.633-.672 1.016 0 .687.644 1.03 1.937 1.03h2.078c1.282 0 2.235.185 2.86.548.625.355.937.945.937 1.781 0 .488-.132.941-.39 1.36a3.662 3.662 0 01-1.11 1.093c-.48.313-1.062.555-1.75.735-.687.187-1.453.28-2.297.28zm-.016-8.797c.562 0 1.039-.188 1.437-.563.407-.375.61-.894.61-1.562 0-.633-.203-1.145-.61-1.531-.398-.395-.875-.594-1.437-.594s-1.047.2-1.453.594c-.406.387-.61.898-.61 1.531 0 .668.204 1.188.61 1.563s.89.562 1.453.562zm.219 7.422c.52 0 .988-.055 1.406-.156A4.708 4.708 0 008.5 2.5c.289-.156.516-.34.672-.547.164-.21.25-.43.25-.656 0-.43-.18-.715-.531-.86C8.547.29 8.03.22 7.344.22h-1.75c-.305 0-.575-.012-.813-.031a3.158 3.158 0 01-.656-.125c-.418.226-.711.46-.875.703-.168.25-.25.5-.25.75 0 .468.258.836.781 1.109.52.281 1.266.422 2.235.422z"/></symbol><symbol id="u" overflow="visible"><path d="M5.344.234c-.649 0-1.227-.109-1.735-.328a3.72 3.72 0 01-1.328-1 4.605 4.605 0 01-.86-1.61c-.198-.632-.296-1.359-.296-2.171 0-.8.117-1.52.36-2.156.25-.633.578-1.172.984-1.61s.867-.773 1.39-1.015a3.971 3.971 0 011.641-.36c.57 0 1.082.11 1.531.328.446.211.867.508 1.266.891h.062l-.093-1.75v-3.64h1.968V0H8.625l-.172-1.204h-.047c-.398.387-.86.727-1.39 1.016a3.529 3.529 0 01-1.672.422zm.453-1.64c.883 0 1.707-.438 2.469-1.313v-4.64c-.387-.375-.778-.633-1.172-.782a3.292 3.292 0 00-1.156-.218c-.387 0-.746.086-1.078.25a2.632 2.632 0 00-.891.687c-.25.293-.45.653-.594 1.078-.148.43-.219.907-.219 1.438 0 1.136.227 2.008.688 2.61.469.593 1.117.89 1.953.89z"/></symbol><symbol id="v" overflow="visible"><path d="M6 .234c-.512 0-.938-.168-1.281-.5-.344-.343-.516-.796-.516-1.359 0-.54.172-.984.516-1.328A1.72 1.72 0 016-3.484c.508 0 .938.18 1.281.53.344.345.516.79.516 1.329 0 .562-.172 1.016-.516 1.36-.344.331-.773.5-1.281.5z"/></symbol><symbol id="w" overflow="visible"><path d="M6.125.234a8.044 8.044 0 01-2.656-.437c-.824-.3-1.531-.66-2.125-1.078l.875-1.281c.57.406 1.191.726 1.86.953.675.218 1.44.328 2.296.328.758 0 1.316-.13 1.672-.39.363-.259.547-.579.547-.954 0-.164-.031-.32-.094-.469-.062-.144-.2-.28-.406-.406-.211-.133-.5-.258-.875-.375a15.725 15.725 0 00-1.485-.39c-1.293-.258-2.25-.618-2.875-1.079-.617-.468-.921-1.07-.921-1.812 0-.414.086-.797.265-1.14a2.62 2.62 0 01.813-.891c.351-.258.785-.461 1.297-.61.52-.144 1.125-.218 1.812-.218.77 0 1.504.132 2.203.39a8.956 8.956 0 011.797.89L9.203-7.5c-.469-.3-.98-.539-1.531-.719a5.38 5.38 0 00-1.734-.28c-.75 0-1.278.12-1.578.359-.293.242-.438.53-.438.875 0 .386.203.683.61.89.413.2 1.101.399 2.062.594.8.18 1.457.367 1.969.562.52.2.926.418 1.219.657.3.242.507.511.625.812.125.305.187.64.187 1.016 0 .406-.102.793-.297 1.156-.2.355-.492.672-.875.953-.375.274-.84.48-1.39.625-.555.156-1.188.234-1.907.234z"/></symbol><symbol id="x" overflow="visible"><path d="M6.125 0v-8.188h-4.39V-9.78h6.359v9.78zm.813-11.688c-.43 0-.782-.125-1.063-.375-.281-.258-.422-.602-.422-1.031 0-.426.14-.77.422-1.031.281-.258.633-.391 1.063-.391.425 0 .78.133 1.062.39.281.262.422.606.422 1.032 0 .43-.14.773-.422 1.031-.281.25-.637.375-1.063.375z"/></symbol><symbol id="y" overflow="visible"><path d="M7.844.234c-.719 0-1.328-.101-1.828-.296s-.903-.473-1.203-.829a3.312 3.312 0 01-.657-1.297 6.325 6.325 0 01-.203-1.671v-4.329H1.281v-1.5l2.766-.093.25-3.094h1.64v3.094h4.626v1.594H5.938v4.328c0 .843.164 1.476.5 1.89.343.406.96.61 1.859.61.426 0 .816-.036 1.172-.11.363-.07.722-.176 1.078-.312l.39 1.469c-.437.148-.906.273-1.406.375a7.555 7.555 0 01-1.687.171z"/></symbol><symbol id="z" overflow="visible"><path d="M6.484 0l.5-4h-2.53l-.47 4h-1.25l.5-4H1.656v-1.313h1.75l.328-2.78H2.063v-1.329h1.843L4.344-13h1.219l-.438 3.578h2.516L8.078-13h1.22L8.86-9.422h1.593v1.328h-1.75L8.36-5.313h1.703V-4h-1.86L7.72 0zm.657-5.313l.343-2.78h-2.53l-.329 2.78z"/></symbol><symbol id="A" overflow="visible"><path d="M5.234-2.016v-3.859H1.625v-1.438h3.61v-3.875h1.53v3.876h3.61v1.437h-3.61v3.86z"/></symbol><symbol id="B" overflow="visible"><path d="M1.844 0v-13.094h3.89c.664 0 1.282.059 1.844.172.563.105 1.047.289 1.453.547.407.25.719.578.938.984.226.406.344.902.344 1.485 0 .648-.188 1.234-.563 1.765-.367.531-.934.899-1.703 1.094v.094c.957.148 1.691.48 2.203 1 .508.511.766 1.214.766 2.11 0 .655-.121 1.226-.36 1.702A3.32 3.32 0 019.641-.938c-.438.325-.965.563-1.578.719a8.412 8.412 0 01-2 .219zm2-7.656H5.5c1.008 0 1.738-.164 2.188-.5.445-.332.671-.844.671-1.531 0-.645-.234-1.098-.703-1.36-.468-.27-1.168-.406-2.094-.406H3.844zm0 6.015h1.969c1.039 0 1.843-.18 2.406-.546.562-.364.844-.954.844-1.766 0-.758-.278-1.3-.829-1.625-.543-.32-1.351-.484-2.421-.484h-1.97z"/></symbol><symbol id="C" overflow="visible"><path d="M2.188 0v-13.094h8.234v1.672H4.188v3.734h5.265V-6H4.188v4.312h6.437V0z"/></symbol><symbol id="D" overflow="visible"><path d="M6.781.234c-.824 0-1.59-.148-2.297-.437a5.08 5.08 0 01-1.843-1.328c-.512-.582-.915-1.29-1.204-2.125-.28-.832-.421-1.785-.421-2.86 0-1.07.144-2.03.437-2.875.3-.843.707-1.554 1.219-2.14a5.064 5.064 0 011.86-1.344 5.868 5.868 0 012.343-.469c.875 0 1.61.172 2.203.516.602.344 1.098.715 1.485 1.11l-1.125 1.265a3.807 3.807 0 00-1.063-.813c-.398-.218-.898-.328-1.5-.328-.555 0-1.062.117-1.531.344-.469.23-.871.562-1.203 1-.336.437-.594.969-.782 1.594-.187.617-.28 1.308-.28 2.078 0 1.574.327 2.812.984 3.719S5.664-1.5 6.906-1.5c.395 0 .77-.056 1.125-.173a2.44 2.44 0 00.875-.515v-3.11H6.484v-1.64h4.25v5.64c-.43.43-.984.793-1.671 1.094-.68.289-1.438.437-2.282.437z"/></symbol><symbol id="E" overflow="visible"><path d="M1.797 0v-1.688H5v-9.734H1.797v-1.672h8.406v1.672H7v9.735h3.203V0z"/></symbol><symbol id="F" overflow="visible"><path d="M1.563 0v-13.094h2.14l3.813 7.781 1.218 2.75h.063a71.334 71.334 0 00-.172-2.11 21.872 21.872 0 01-.11-2.187v-6.234h1.923V0H8.297L4.484-7.781l-1.218-2.766h-.063c.04.688.098 1.398.172 2.125.07.719.11 1.434.11 2.14V0z"/></symbol><symbol id="G" overflow="visible"><path d="M6-6.75c-.512 0-.938-.164-1.281-.5-.344-.344-.516-.797-.516-1.36 0-.538.172-.984.516-1.328A1.72 1.72 0 016-10.467c.508 0 .938.179 1.281.53.344.344.516.79.516 1.329 0 .562-.172 1.015-.516 1.359-.344.336-.773.5-1.281.5zM6 .234c-.512 0-.938-.168-1.281-.5-.344-.343-.516-.796-.516-1.359 0-.54.172-.984.516-1.328A1.72 1.72 0 016-3.484c.508 0 .938.18 1.281.53.344.345.516.79.516 1.329 0 .563-.172 1.016-.516 1.36-.344.331-.773.5-1.281.5z"/></symbol><symbol id="H" overflow="visible"><path d="M6.906.234c-.762 0-1.476-.109-2.14-.328a4.814 4.814 0 01-1.704-1 4.917 4.917 0 01-1.14-1.61c-.274-.632-.406-1.359-.406-2.171s.144-1.535.437-2.172c.3-.644.703-1.187 1.203-1.625a5.06 5.06 0 011.75-1 6.49 6.49 0 012.11-.344c.8 0 1.5.137 2.093.407.602.273 1.11.601 1.516.984L9.656-7.36a5.03 5.03 0 00-1.203-.75 3.319 3.319 0 00-1.328-.266c-.523 0-1.008.086-1.453.25a3.176 3.176 0 00-1.125.719 3.184 3.184 0 00-.734 1.11c-.168.429-.25.901-.25 1.421 0 .523.082 1 .25 1.437.164.43.406.797.718 1.11.313.305.68.539 1.11.703.426.168.898.25 1.422.25.593 0 1.125-.113 1.593-.344.477-.226.91-.504 1.297-.828l.86 1.281a6.216 6.216 0 01-1.828 1.11c-.668.258-1.36.39-2.078.39z"/></symbol><symbol id="I" overflow="visible"><path d="M8.078.234c-1.094 0-1.93-.312-2.5-.937-.574-.625-.86-1.531-.86-2.719v-9.172H1.36v-1.594h5.344v10.891c0 .68.164 1.168.5 1.47.344.304.79.452 1.344.452.5 0 1.082-.14 1.75-.422l.484 1.485c-.468.18-.902.312-1.297.406-.386.094-.855.14-1.406.14z"/></symbol><symbol id="J" overflow="visible"><path d="M1.953 0v-14.188h1.984v9.25h.079l4.828-4.844h2.219L7.219-5.907 11.547 0H9.359L6-4.688 3.938-2.594v2.593z"/></symbol><symbol id="K" overflow="visible"><path d="M6.5.234c-.469 0-.969-.109-1.5-.328a4.72 4.72 0 01-1.438-.984H3.5L3.312 0H1.766v-14.188h1.968v3.766l-.078 1.796h.063A5 5 0 015.172-9.64c.55-.25 1.11-.375 1.672-.375.633 0 1.203.121 1.703.36.508.23.937.562 1.281 1 .344.429.602.948.781 1.562.176.605.266 1.289.266 2.047 0 .843-.121 1.593-.36 2.25-.242.656-.562 1.21-.968 1.656A4.318 4.318 0 018.14-.126c-.524.239-1.07.36-1.641.36zm-.375-1.64c.77 0 1.414-.305 1.938-.922.519-.625.78-1.52.78-2.688 0-1.03-.202-1.843-.609-2.437-.398-.602-1.039-.906-1.922-.906-.398 0-.812.105-1.25.312-.437.211-.882.543-1.328 1v4.625c.414.375.836.64 1.266.797.426.148.8.219 1.125.219z"/></symbol><symbol id="L" overflow="visible"><path d="M4.797.234c-1.156 0-2.008-.332-2.547-1-.531-.675-.797-1.66-.797-2.953V-9.78h1.985v5.797c0 .867.148 1.507.453 1.922.312.406.843.609 1.593.609.5 0 .957-.125 1.375-.375.426-.25.88-.664 1.36-1.25v-6.703h1.984V0H8.578l-.156-1.625h-.078a6.484 6.484 0 01-1.578 1.36c-.563.331-1.219.5-1.969.5z"/></symbol><symbol id="M" overflow="visible"><path d="M1.14 0l3.641-5.078-3.375-4.703h2.156l1.422 2a24.395 24.395 0 001.094 1.656h.078c.176-.258.352-.535.531-.828.176-.3.348-.582.516-.844L8.5-9.78h2.094l-3.39 4.906L10.843 0H8.688L7.125-2.078c-.187-.281-.39-.57-.61-.875a16.32 16.32 0 00-.64-.89h-.078c-.188.292-.375.585-.563.874a13.83 13.83 0 00-.546.89L3.234 0z"/></symbol><symbol id="N" overflow="visible"><path d="M1.375 0v-1.156c1.04-.906 1.969-1.727 2.781-2.469a25.172 25.172 0 002.047-2.063c.563-.632.988-1.222 1.281-1.765.29-.55.438-1.086.438-1.61 0-.707-.215-1.273-.64-1.703-.43-.425-1.087-.64-1.97-.64-.574 0-1.105.152-1.593.453-.493.293-.93.637-1.313 1.031l-1.125-1.094c.602-.613 1.238-1.093 1.906-1.437.676-.352 1.473-.531 2.39-.531.645 0 1.227.093 1.75.28.532.18.977.434 1.345.766.363.336.644.743.843 1.22.196.468.297.991.297 1.562 0 .586-.14 1.172-.422 1.765a8.935 8.935 0 01-1.156 1.828A20.229 20.229 0 016.47-3.64c-.68.668-1.414 1.36-2.203 2.078.382-.02.78-.046 1.187-.078s.785-.047 1.14-.047H10.5V0z"/></symbol><symbol id="O" overflow="visible"><path d="M7.047.234c-.824 0-1.59-.148-2.297-.437-.7-.3-1.309-.742-1.828-1.328-.524-.582-.934-1.29-1.235-2.125-.304-.832-.453-1.785-.453-2.86 0-1.07.149-2.023.454-2.859.3-.844.71-1.555 1.234-2.14a5.31 5.31 0 011.89-1.36 5.987 5.987 0 012.391-.469c.8 0 1.516.168 2.14.5.626.324 1.134.7 1.532 1.125l-1.11 1.266a3.88 3.88 0 00-1.125-.828 3.202 3.202 0 00-1.437-.313c-.594 0-1.133.117-1.61.344-.48.23-.89.562-1.234 1-.336.437-.594.969-.781 1.594-.188.617-.281 1.308-.281 2.078 0 .781.093 1.492.28 2.125.188.625.454 1.156.798 1.594.351.437.77.777 1.25 1.015.476.23 1.015.344 1.61.344.57 0 1.081-.117 1.53-.36a4.658 4.658 0 001.282-1.015l1.109 1.219A5.355 5.355 0 019.359-.25c-.668.32-1.437.484-2.312.484z"/></symbol><symbol id="P" overflow="visible"><path d="M4.703-7.14l-.547 1.796h3.625L7.234-7.14c-.21-.718-.422-1.437-.64-2.156A56.411 56.411 0 016-11.5h-.078a64.27 64.27 0 01-.594 2.203c-.21.719-.418 1.438-.625 2.156zM.516 0l4.328-13.094h2.312L11.484 0H9.36L8.234-3.766H3.687L2.562 0z"/></symbol><symbol id="Q" overflow="visible"><path d="M1.906 0v-13.094h4.14c.72 0 1.376.07 1.97.203.601.125 1.117.344 1.547.656.437.313.773.72 1.015 1.22.238.5.36 1.12.36 1.859 0 .71-.126 1.328-.376 1.859A3.469 3.469 0 019.547-6c-.43.336-.945.586-1.547.75A7.288 7.288 0 016.047-5h-2.14v5zm2-6.625h1.938c1.062 0 1.843-.203 2.343-.61.508-.406.766-1.046.766-1.921 0-.883-.262-1.492-.781-1.828-.512-.344-1.29-.516-2.328-.516H3.906z"/></symbol><symbol id="R" overflow="visible"><path d="M5 0v-11.422H.781v-1.672H11.22v1.672H7V0z"/></symbol><symbol id="S" overflow="visible"><path d="M6 .234c-.75 0-1.438-.152-2.063-.453a4.81 4.81 0 01-1.624-1.328c-.45-.582-.797-1.3-1.047-2.156-.243-.852-.36-1.816-.36-2.89 0-1.07.117-2.024.36-2.86.25-.844.597-1.55 1.046-2.125.458-.57 1-1.008 1.626-1.313.624-.3 1.312-.453 2.062-.453s1.438.153 2.063.453c.624.305 1.16.743 1.609 1.313.445.574.797 1.281 1.047 2.125.25.836.375 1.79.375 2.86 0 1.074-.125 2.038-.375 2.89-.25.855-.602 1.574-1.047 2.156a4.684 4.684 0 01-1.61 1.328C7.439.082 6.75.234 6 .234zM6-1.5c.914 0 1.648-.445 2.203-1.344.563-.894.844-2.144.844-3.75 0-1.594-.281-2.82-.844-3.687-.555-.875-1.289-1.313-2.203-1.313-.918 0-1.656.438-2.219 1.313-.554.867-.828 2.093-.828 3.687 0 1.606.274 2.856.828 3.75C4.344-1.945 5.082-1.5 6-1.5z"/></symbol><symbol id="T" overflow="visible"><path d="M2.688 4.094a5.29 5.29 0 01-.72-.047 3.429 3.429 0 01-.624-.14l.39-1.548c.125.04.258.07.407.094.144.031.289.047.437.047.656 0 1.18-.18 1.578-.531.406-.356.719-.805.938-1.344l.265-.688L.906-9.78h1.969l2.203 5.093c.188.45.375.918.563 1.407.187.492.379.98.578 1.468h.078c.164-.468.332-.945.5-1.437.176-.5.344-.977.5-1.438L9.234-9.78h1.891L6.937.625c-.199.52-.43.992-.687 1.422-.25.425-.547.789-.89 1.093-.337.301-.72.536-1.157.703a4.31 4.31 0 01-1.515.25z"/></symbol><symbol id="U" overflow="visible"><path d="M4.375 3.047v-17.203H10v1.094H5.922v15H10v1.11z"/></symbol><symbol id="V" overflow="visible"><path d="M6 .234c-1.438 0-2.574-.57-3.406-1.718-.836-1.145-1.25-2.79-1.25-4.938 0-2.144.414-3.773 1.25-4.89.832-1.114 1.969-1.672 3.406-1.672s2.57.558 3.406 1.671c.832 1.118 1.25 2.747 1.25 4.891 0 2.148-.418 3.793-1.25 4.938C8.57-.336 7.437.234 6 .234zm0-1.578a2.35 2.35 0 001.14-.281c.344-.195.641-.5.891-.906.258-.414.457-.942.594-1.578.144-.645.219-1.414.219-2.313 0-.894-.074-1.656-.219-2.281-.137-.633-.336-1.148-.594-1.547-.25-.406-.547-.703-.89-.89s-.727-.282-1.141-.282c-.418 0-.797.094-1.14.281s-.649.485-.907.891c-.25.399-.45.914-.594 1.547-.136.625-.203 1.387-.203 2.281 0 .899.067 1.668.203 2.313.145.636.344 1.164.594 1.578.258.406.563.71.906.906A2.34 2.34 0 006-1.344zM6-5.14c-.367 0-.68-.117-.938-.359-.25-.25-.375-.586-.375-1.016 0-.425.125-.765.375-1.015.258-.25.57-.375.938-.375.363 0 .672.125.922.375.258.25.39.59.39 1.015 0 .43-.132.766-.39 1.016-.25.242-.559.36-.922.36z"/></symbol><symbol id="W" overflow="visible"><path d="M1.625-5.875v-1.438h8.75v1.438z"/></symbol><symbol id="X" overflow="visible"><path d="M6.047.234c-.73 0-1.387-.086-1.969-.25C3.492-.19 3-.43 2.594-.734a3.392 3.392 0 01-.953-1.11 3.131 3.131 0 01-.329-1.422c0-.425.07-.804.22-1.14a3.24 3.24 0 01.609-.907c.25-.27.53-.507.843-.718.313-.207.645-.39 1-.547v-.078a5.703 5.703 0 01-1.36-1.25c-.374-.477-.562-1.055-.562-1.735 0-.507.098-.968.297-1.375.196-.414.473-.765.828-1.047.364-.289.79-.515 1.282-.671.5-.165 1.039-.25 1.625-.25.632 0 1.195.085 1.687.25.488.168.906.402 1.25.703.352.304.625.668.813 1.093.187.418.28.875.28 1.375 0 .606-.194 1.165-.577 1.672-.375.512-.824.95-1.344 1.313v.078c.344.18.664.367.969.562.3.188.562.415.781.672.227.262.406.563.531.907.133.336.203.718.203 1.156 0 .48-.105.933-.312 1.36-.211.417-.512.78-.906 1.093-.399.313-.887.559-1.47.734a7.115 7.115 0 01-1.952.25zM7-7.063c.945-.75 1.422-1.539 1.422-2.375 0-.601-.203-1.101-.61-1.5-.406-.406-.992-.609-1.75-.609-.656 0-1.195.168-1.609.5-.406.336-.61.805-.61 1.406 0 .344.079.649.235.907.156.261.375.496.656.703.282.199.614.375 1 .53.383.15.805.294 1.266.438zm-.922 5.86c.852 0 1.52-.18 2-.547.477-.363.719-.867.719-1.516 0-.394-.102-.726-.297-1a2.345 2.345 0 00-.797-.718 6.625 6.625 0 00-1.187-.532c-.45-.164-.938-.343-1.47-.53a5.446 5.446 0 00-1.405 1.093c-.368.406-.547.906-.547 1.5 0 .68.27 1.227.812 1.64.54.407 1.266.61 2.172.61z"/></symbol><symbol id="Y" overflow="visible"><path d="M6.063.234a6.91 6.91 0 01-2.641-.5 6.814 6.814 0 01-2.156-1.437l1.156-1.36A6.458 6.458 0 004.14-1.922a4.987 4.987 0 002.047.422c.832 0 1.472-.164 1.921-.5.446-.344.672-.79.672-1.344 0-.312-.058-.57-.172-.781a1.805 1.805 0 00-.468-.563c-.2-.164-.438-.312-.719-.437s-.59-.254-.922-.39l-1.844-.829a8.09 8.09 0 01-1-.484 4.3 4.3 0 01-.906-.703 3.268 3.268 0 01-.64-.953c-.169-.375-.25-.801-.25-1.282 0-.5.101-.968.312-1.406.219-.445.523-.828.922-1.14.394-.32.86-.57 1.39-.75a5.453 5.453 0 011.797-.282c.813 0 1.57.153 2.282.453a5.512 5.512 0 011.812 1.188l-1.031 1.281a4.81 4.81 0 00-1.39-.86c-.5-.206-1.09-.312-1.766-.312-.7 0-1.262.153-1.688.453-.418.305-.625.727-.625 1.266 0 .281.063.527.188.734.132.2.304.375.515.532.219.156.461.293.735.406.27.105.55.219.843.344l1.782.78c.414.157.796.34 1.14.548.344.21.645.449.906.718.258.274.461.594.61.97.144.366.219.788.219 1.265 0 .523-.106 1.015-.313 1.484-.21.461-.523.867-.937 1.219a4.683 4.683 0 01-1.5.813c-.586.195-1.25.296-2 .296z"/></symbol><symbol id="Z" overflow="visible"><path d="M1.766 0v-9.781h1.609l.172 1.578h.078c.488-.5 1.02-.926 1.594-1.281.57-.352 1.238-.532 2-.532 1.144 0 1.984.34 2.515 1.016.54.68.813 1.656.813 2.938V0H8.563v-5.797c0-.851-.157-1.484-.47-1.89-.304-.407-.827-.61-1.577-.61-.524 0-.993.133-1.407.39-.406.263-.867.653-1.375 1.173V0z"/></symbol><symbol id="aa" overflow="visible"><path d="M1.86 0v-1.625h3.593V-10.5H2.625v-1.234c.781-.114 1.426-.25 1.938-.407.52-.156.992-.351 1.421-.593h1.454v11.109h3.218V0z"/></symbol><symbol id="ab" overflow="visible"><path d="M5.703.234C4.598.234 3.664.062 2.906-.28c-.762-.352-1.375-.781-1.844-1.281l.985-1.282c.426.387.926.73 1.5 1.032.582.293 1.254.437 2.015.437.414 0 .797-.05 1.141-.156.344-.102.645-.242.906-.422.258-.188.461-.41.61-.672.144-.258.218-.555.218-.89 0-.352-.086-.672-.25-.954-.156-.289-.406-.535-.75-.734-.343-.207-.804-.367-1.375-.484C5.5-5.801 4.812-5.86 4-5.86v-1.485c.719 0 1.328-.054 1.828-.172.508-.113.926-.265 1.25-.453.32-.195.555-.426.703-.687.145-.27.219-.567.219-.89 0-.571-.227-1.024-.672-1.36-.45-.332-1.04-.5-1.766-.5a3.69 3.69 0 00-1.609.36c-.5.23-.965.53-1.39.905l-1.048-1.234a7.978 7.978 0 011.86-1.156 5.588 5.588 0 012.265-.453 6.59 6.59 0 011.735.218c.539.149 1.004.36 1.39.641.383.281.688.633.907 1.047.218.418.328.883.328 1.39 0 .75-.246 1.372-.735 1.86-.48.492-1.12.867-1.921 1.125v.078c.406.094.796.234 1.171.422.383.187.72.418 1 .687.282.262.504.57.672.922.164.356.25.746.25 1.172a3.17 3.17 0 01-.375 1.547c-.25.45-.59.828-1.015 1.14-.43.313-.934.555-1.516.72a6.75 6.75 0 01-1.828.25z"/></symbol><symbol id="ac" overflow="visible"><path d="M2 3.047v-1.11h4.078v-15H2v-1.093h5.625V3.047z"/></symbol><symbol id="ad" overflow="visible"><path d="M5.125 5v-20h1.75V5z"/></symbol><symbol id="ae" overflow="visible"><path d="M1.5 0v-13.094h2.016v5.375h4.968v-5.375H10.5V0H8.484v-5.984H3.516V0z"/></symbol><symbol id="at" overflow="visible"><path d="M7.219 0v-3.406H.766v-1.328l6.093-8.032h2.22v7.813h1.905v1.547H9.078V0zM2.844-4.953h4.375v-3.484c.008-.364.02-.758.031-1.188.02-.438.04-.844.063-1.219h-.094c-.2.336-.414.664-.64.985-.231.324-.454.64-.673.953z"/></symbol><symbol id="au" overflow="visible"><path d="M6.406.234A5.224 5.224 0 014.47-.125a4.229 4.229 0 01-1.563-1.14c-.449-.52-.804-1.165-1.062-1.938-.262-.77-.39-1.68-.39-2.735 0-1.25.148-2.32.452-3.218.301-.895.696-1.625 1.188-2.188.5-.57 1.07-.988 1.719-1.25a5.347 5.347 0 012-.39c.82 0 1.535.14 2.14.421a5.997 5.997 0 011.563.985L9.437-10.36a3.75 3.75 0 00-1.14-.72 3.316 3.316 0 00-1.344-.28c-.48 0-.937.09-1.375.265-.43.168-.808.453-1.14.86-.336.398-.606.922-.813 1.578-.21.648-.32 1.453-.328 2.422a5.853 5.853 0 011.672-1.188 4.25 4.25 0 011.812-.422c.57 0 1.098.086 1.578.25.489.157.91.403 1.266.735.352.336.625.75.812 1.25.196.492.297 1.058.297 1.703a4.18 4.18 0 01-.343 1.719c-.23.5-.547.933-.954 1.296-.398.356-.859.633-1.39.829a4.658 4.658 0 01-1.64.296zm-.031-1.53c.352 0 .676-.056.969-.173.3-.125.566-.297.797-.515.226-.22.406-.489.53-.813.134-.332.204-.703.204-1.11 0-.812-.219-1.425-.656-1.843-.43-.414-1.043-.625-1.844-.625-.461 0-.961.125-1.5.375-.543.242-1.047.648-1.516 1.219.145 1.187.477 2.07 1 2.64.52.563 1.192.844 2.016.844z"/></symbol><symbol id="av" overflow="visible"><path d="M8.422 3.203L1.859-14.203h1.72L10.14 3.203z"/></symbol><symbol id="aw" overflow="visible"><path d="M1.203 2.922V1.297h9.594v1.625z"/></symbol><symbol id="ax" overflow="visible"><path d="M6.016.234c-.68 0-1.293-.101-1.844-.296a3.684 3.684 0 01-1.438-.922c-.398-.426-.703-.97-.922-1.625-.21-.657-.312-1.446-.312-2.375v-8.11h2.016v8.235c0 1.199.226 2.058.687 2.578.469.523 1.07.781 1.813.781.75 0 1.359-.258 1.828-.781.476-.52.718-1.38.718-2.578v-8.235H10.5v8.11c0 .93-.11 1.718-.328 2.375-.211.656-.508 1.199-.89 1.625a3.465 3.465 0 01-1.407.922 5.559 5.559 0 01-1.86.296z"/></symbol><symbol id="ay" overflow="visible"><path d="M5.625-6.36c.457 0 .957-.117 1.5-.359.54-.25 1.047-.66 1.516-1.234-.149-1.188-.48-2.063-1-2.625-.524-.57-1.196-.86-2.016-.86a2.54 2.54 0 00-.984.188 2.306 2.306 0 00-1.328 1.328 2.975 2.975 0 00-.188 1.078c0 .813.21 1.434.64 1.86.438.418 1.055.625 1.86.625zM5.187.235c-.824 0-1.539-.136-2.14-.406A5.766 5.766 0 011.5-1.156l1.078-1.219c.313.305.68.547 1.11.734.437.18.89.266 1.359.266.476 0 .93-.086 1.36-.266.437-.175.82-.46 1.155-.859.333-.395.598-.922.797-1.578.196-.656.313-1.461.344-2.422a5.884 5.884 0 01-1.672 1.187 4.371 4.371 0 01-1.812.407 5.098 5.098 0 01-1.594-.235 3.222 3.222 0 01-1.25-.734 3.354 3.354 0 01-.828-1.234c-.188-.489-.281-1.067-.281-1.735 0-.625.113-1.187.343-1.687.227-.508.54-.942.938-1.297a4.424 4.424 0 011.39-.844 4.429 4.429 0 011.657-.312c.687 0 1.332.132 1.937.39.602.25 1.129.633 1.578 1.14.446.5.801 1.141 1.063 1.923.258.773.39 1.683.39 2.734 0 1.25-.152 2.324-.453 3.219-.304.898-.703 1.625-1.203 2.187S7.832-.414 7.187-.156a5.362 5.362 0 01-2 .39z"/></symbol><symbol id="az" overflow="visible"><path d="M1.86 3.203l6.562-17.406h1.719L3.578 3.203z"/></symbol><symbol id="aA" overflow="visible"><path d="M1.766 0v-14.188h1.968v3.766L3.625-8.22h.063a6.902 6.902 0 011.53-1.282c.571-.343 1.239-.515 2-.515 1.145 0 1.985.34 2.516 1.015.54.68.813 1.657.813 2.938v6.062H8.562v-5.796c0-.852-.156-1.485-.468-1.891-.305-.406-.828-.61-1.578-.61-.524 0-.993.133-1.407.391-.406.262-.867.653-1.375 1.172V0z"/></symbol><symbol id="aB" overflow="visible"><path d="M4.344 0c.05-1.176.16-2.242.328-3.203.176-.969.426-1.883.75-2.75.32-.875.734-1.723 1.234-2.547.5-.82 1.098-1.676 1.797-2.563H1.36v-1.671h9.329v1.218c-.844.95-1.532 1.844-2.063 2.688a13.714 13.714 0 00-1.266 2.61 14.422 14.422 0 00-.703 2.843c-.136 1-.23 2.125-.281 3.375z"/></symbol><symbol id="aC" overflow="visible"><path d="M1.656 0v-13.094h3.328c1.97 0 3.485.547 4.547 1.64s1.594 2.715 1.594 4.86c0 2.125-.531 3.758-1.594 4.89C8.476-.566 6.992 0 5.078 0zm2-1.625H4.86c1.375 0 2.414-.414 3.125-1.25.72-.844 1.078-2.082 1.078-3.719 0-1.644-.359-2.867-1.078-3.672-.71-.812-1.75-1.218-3.125-1.218H3.656z"/></symbol><symbol id="af" overflow="visible"><path d="M3.688-1.813l-1.282-.89 1.938-3.14-3.063-1.36.453-1.422 3.25.86.235-3.548H6.78l.235 3.547 3.25-.859.453 1.422-3.063 1.36 1.938 3.14-1.281.89L6-4.655z"/></symbol><symbol id="ag" overflow="visible"><path d="M4.516 0v-10.562H.625v-2.484h10.75v2.484h-3.89V0z"/></symbol><symbol id="ah" overflow="visible"><path d="M6 .234c-.656 0-1.29-.117-1.89-.343a4.956 4.956 0 01-1.626-1A4.943 4.943 0 011.36-2.75C1.08-3.395.938-4.129.938-4.953c0-.832.14-1.57.421-2.219a4.835 4.835 0 011.125-1.625 5.021 5.021 0 011.625-1c.602-.238 1.235-.36 1.891-.36s1.285.122 1.89.36c.602.23 1.141.563 1.61 1 .477.438.86.98 1.14 1.625.282.649.422 1.387.422 2.219 0 .824-.14 1.559-.421 2.203A4.866 4.866 0 019.5-1.11a4.847 4.847 0 01-1.61 1A5.35 5.35 0 016 .235zM6-2.14c.676 0 1.188-.25 1.531-.75.344-.507.516-1.195.516-2.062 0-.875-.172-1.563-.516-2.063C7.187-7.523 6.676-7.78 6-7.78c-.68 0-1.188.258-1.531.765-.344.5-.516 1.188-.516 2.063 0 .867.172 1.555.516 2.062.344.5.851.75 1.531.75z"/></symbol><symbol id="ai" overflow="visible"><path d="M7.766.234C6.973.234 6.3.13 5.75-.078c-.543-.219-.984-.516-1.328-.89a3.41 3.41 0 01-.719-1.376 6.621 6.621 0 01-.219-1.78v-3.5h-2.5v-2.173l2.641-.125L4-12.953h2.422v3.031h4.203v2.297H6.422v3.484c0 .762.164 1.297.5 1.61.332.312.863.469 1.594.469.375 0 .718-.032 1.03-.094.313-.07.626-.16.938-.266L11-.297c-.437.137-.922.258-1.453.36a8.453 8.453 0 01-1.781.172z"/></symbol><symbol id="aj" overflow="visible"><path d="M4.484.234C3.973.234 3.516.156 3.11 0a2.8 2.8 0 01-1.015-.625 3.196 3.196 0 01-.64-.953 2.97 2.97 0 01-.235-1.188c0-.55.117-1.035.36-1.453.237-.425.616-.785 1.14-1.078C3.25-5.586 3.926-5.82 4.75-6c.832-.187 1.836-.312 3.016-.375-.055-.457-.25-.812-.594-1.062s-.856-.375-1.531-.375c-.48 0-.965.085-1.453.25-.493.168-1.012.386-1.563.656L1.578-8.812c.676-.395 1.406-.72 2.188-.97s1.597-.374 2.453-.374c1.383 0 2.476.37 3.28 1.11.802.73 1.204 1.85 1.204 3.359V0H8.297l-.219-1.125H8c-.512.387-1.07.711-1.672.969-.594.258-1.21.39-1.844.39zm.938-2.28c.437 0 .848-.087 1.234-.266a5.757 5.757 0 001.11-.672v-1.64c-.742.042-1.352.108-1.828.202-.48.094-.86.215-1.141.36-.281.136-.48.296-.594.484a1.195 1.195 0 00-.156.594c0 .324.117.562.36.718.25.149.585.22 1.015.22z"/></symbol><symbol id="ak" overflow="visible"><path d="M7.906.234c-1.261 0-2.21-.367-2.844-1.109-.625-.738-.937-1.738-.937-3v-7.828H1v-2.313h6.062v10.25c0 .313.04.575.125.782.082.199.204.367.36.5.156.125.328.214.515.265.196.055.407.078.625.078s.454-.02.704-.062c.25-.05.523-.133.828-.25l.656 2.156a31.09 31.09 0 00-.734.219c-.231.062-.461.113-.688.156-.219.05-.46.086-.719.11-.25.03-.527.046-.828.046z"/></symbol><symbol id="am" overflow="visible"><path d="M5.563 0v-7.625H1.578v-2.297H8.5V0zm1.343-11.484c-.574 0-1.043-.156-1.406-.469-.367-.32-.547-.758-.547-1.312 0-.54.18-.977.547-1.313.363-.344.832-.515 1.406-.515.57 0 1.04.172 1.407.515.363.336.546.774.546 1.313 0 .554-.183.992-.547 1.312-.367.313-.835.469-1.406.469z"/></symbol><symbol id="an" overflow="visible"><path d="M.703 0v-9.922h2.219l.203 1.219h.078c.188-.395.445-.734.781-1.016.332-.289.786-.437 1.36-.437.426 0 .785.137 1.078.406.3.273.516.672.64 1.203.188-.445.458-.828.813-1.14.352-.313.816-.47 1.39-.47.72 0 1.266.29 1.641.86.383.563.578 1.344.578 2.344V0H8.687v-6.766c0-.3-.043-.523-.125-.671-.085-.145-.226-.22-.421-.22a.617.617 0 00-.485.235c-.137.156-.277.399-.422.719V0H4.937v-6.766c0-.593-.187-.89-.562-.89a.617.617 0 00-.484.234c-.125.156-.258.399-.391.719V0z"/></symbol><symbol id="ao" overflow="visible"><path d="M6.594.234a6.785 6.785 0 01-2.172-.343 5.13 5.13 0 01-1.75-1A4.692 4.692 0 011.516-2.75c-.282-.645-.422-1.379-.422-2.203 0-.82.14-1.555.422-2.203a4.854 4.854 0 011.156-1.625 5.07 5.07 0 011.656-1.016 5.391 5.391 0 011.938-.36c.757 0 1.43.122 2.015.36.582.242 1.07.574 1.469 1 .395.43.691.934.89 1.516.196.574.297 1.199.297 1.875a6.267 6.267 0 01-.14 1.328h-6.75c.144.719.469 1.246.969 1.578.507.336 1.172.5 1.984.5.457 0 .89-.055 1.297-.172a7.38 7.38 0 001.266-.531l.984 1.781a7.48 7.48 0 01-1.906.86c-.7.195-1.383.296-2.047.296zm-.235-8.156c-.586 0-1.074.156-1.468.469-.399.305-.668.766-.813 1.39h4.235C8.164-7.3 7.516-7.921 6.359-7.921z"/></symbol><symbol id="ap" overflow="visible"><path d="M6.813 0v-3.047H.702v-2.015L6-12.704h3.563v7.422h1.593v2.234H9.562V0zM3.546-5.281h3.265v-2.14c0-.395.008-.852.032-1.376.02-.531.047-1 .078-1.406h-.078c-.219.367-.45.73-.688 1.094-.242.355-.476.71-.703 1.062z"/></symbol><symbol id="aq" overflow="visible"><path d="M6-6.219c-.7 0-1.262-.219-1.688-.656-.417-.445-.625-1.004-.625-1.672 0-.332.051-.64.157-.922.113-.289.27-.539.469-.75.207-.219.453-.383.734-.5.289-.125.61-.187.953-.187s.656.062.938.187c.289.117.535.281.734.5.207.211.363.461.469.75.113.281.172.59.172.922 0 .668-.215 1.227-.641 1.672-.418.437-.977.656-1.672.656zM6 .234c-.7 0-1.262-.218-1.688-.656-.417-.445-.625-1.004-.625-1.672 0-.332.051-.64.157-.922.113-.289.27-.539.469-.75.207-.218.453-.383.734-.5.289-.125.61-.187.953-.187s.656.062.938.187c.289.117.535.282.734.5.207.211.363.461.469.75.113.282.172.59.172.922 0 .668-.215 1.227-.641 1.672C7.254.016 6.695.234 6 .234z"/></symbol><symbol id="ar" overflow="visible"><path d="M1.156 0v-1.688c.906-.75 1.735-1.453 2.485-2.109a27.16 27.16 0 001.921-1.86c.532-.57.942-1.113 1.235-1.624.289-.508.437-.989.437-1.438 0-.625-.183-1.098-.546-1.422-.356-.332-.868-.5-1.532-.5-.5 0-.965.133-1.39.39a7.458 7.458 0 00-1.172.907l-1.578-1.578c.332-.332.66-.625.984-.875.332-.258.68-.473 1.047-.64a5.64 5.64 0 011.156-.376c.406-.082.86-.125 1.36-.125.664 0 1.27.102 1.812.297.55.188 1.02.461 1.406.813a3.7 3.7 0 01.922 1.281c.227.492.344 1.04.344 1.64 0 .544-.133 1.09-.39 1.641A7.889 7.889 0 018.624-5.61c-.43.555-.922 1.106-1.484 1.657a42.032 42.032 0 01-1.766 1.64c.363-.039.754-.078 1.172-.11.426-.038.805-.062 1.14-.062h3.016V0z"/></symbol><symbol id="as" overflow="visible"><path d="M6.344.234a5.225 5.225 0 01-1.906-.359 4.477 4.477 0 01-1.641-1.11c-.48-.507-.867-1.16-1.156-1.952-.293-.79-.438-1.75-.438-2.876 0-1.187.149-2.21.453-3.078.313-.863.723-1.578 1.235-2.14a4.855 4.855 0 011.75-1.25 5.33 5.33 0 012.047-.406c.906 0 1.695.152 2.375.453.675.293 1.226.648 1.656 1.062L9.188-9.656a3.979 3.979 0 00-1.016-.625 2.896 2.896 0 00-2.344-.063c-.355.137-.668.36-.937.672-.274.313-.496.727-.672 1.235-.18.5-.277 1.125-.297 1.875a4.945 4.945 0 011.5-1.016c.563-.238 1.082-.36 1.563-.36.55 0 1.062.087 1.53.25.477.157.895.399 1.25.72.352.312.63.718.829 1.218.207.492.312 1.07.312 1.735 0 .667-.125 1.261-.375 1.78-.25.524-.586.97-1 1.345a4.41 4.41 0 01-1.453.843 5.277 5.277 0 01-1.734.282zM6.28-1.953c.25 0 .489-.04.72-.125.237-.082.444-.207.624-.375.188-.164.332-.379.438-.64.101-.259.156-.567.156-.923 0-.656-.172-1.125-.516-1.406-.344-.289-.797-.437-1.36-.437-.374 0-.765.093-1.171.28-.399.188-.79.509-1.172.954.082.512.195.938.344 1.281.156.336.332.606.531.813.207.21.43.36.672.453.238.086.484.125.734.125z"/></symbol><symbol id="aD" overflow="visible"><path d="M4-2.219L2.844-3.03l2.265-3.547-3.484-1.516.422-1.297 3.625 1.078.219-4.03h1.406l.234 4.03 3.625-1.078.422 1.297-3.484 1.516 2.265 3.547-1.156.812-2.61-3.297z"/></symbol><symbol id="aJ" overflow="visible"><path d="M6.625.266c-1.574 0-2.809-.47-3.703-1.407-.899-.937-1.344-2.39-1.344-4.359v-8.89h2.563v9.093c0 1.188.218 2.043.656 2.563.437.523 1.047.781 1.828.781.789 0 1.41-.258 1.86-.781.456-.52.687-1.375.687-2.563v-9.094h2.437V-5.5c0 1.98-.433 3.438-1.297 4.375-.867.93-2.093 1.39-3.687 1.39z"/></symbol><symbol id="aK" overflow="visible"><path d="M1.797 4.266v-15.062H3.89l.203 1.234h.062a6.362 6.362 0 011.61-1.062c.613-.29 1.226-.438 1.844-.438.707 0 1.332.133 1.875.39a3.62 3.62 0 011.39 1.11c.375.48.66 1.059.86 1.734a8.18 8.18 0 01.296 2.266c0 .918-.136 1.742-.406 2.469-.262.73-.617 1.34-1.062 1.828-.438.492-.95.871-1.532 1.14a4.421 4.421 0 01-1.796.391c-.5 0-1.012-.11-1.532-.328a4.293 4.293 0 01-1.406-.953H4.22l.14 1.89v3.391zm4.906-6.094c.781 0 1.426-.313 1.938-.938.52-.625.78-1.55.78-2.78 0-1.083-.198-1.923-.593-2.516-.398-.602-1.039-.907-1.922-.907-.406 0-.824.106-1.25.313-.43.199-.86.527-1.297.984v4.86c.395.367.801.62 1.22.765.413.149.788.219 1.124.219z"/></symbol><symbol id="aL" overflow="visible"><path d="M5.781.266c-.687 0-1.32-.125-1.89-.375a4.102 4.102 0 01-1.47-1.11C2.024-1.707 1.72-2.3 1.5-3c-.219-.695-.328-1.492-.328-2.39 0-.876.129-1.665.39-2.376.258-.707.614-1.3 1.063-1.78a4.696 4.696 0 011.531-1.126 4.282 4.282 0 011.781-.39c.614 0 1.157.109 1.625.328s.914.531 1.344.937h.063l-.125-1.812v-3.922h2.547v15.53H9.312L9.11-1.25h-.062c-.43.43-.93.79-1.5 1.079A3.822 3.822 0 015.78.265zm.625-2.094c.895 0 1.707-.43 2.438-1.297v-4.86c-.387-.363-.774-.617-1.156-.765A3.197 3.197 0 006.53-8.97c-.375 0-.73.086-1.062.25a2.506 2.506 0 00-.875.688c-.25.293-.45.664-.594 1.11-.148.437-.219.944-.219 1.515 0 1.168.223 2.058.672 2.672.457.605 1.11.906 1.953.906z"/></symbol><symbol id="aM" overflow="visible"><path d="M5.172.266C4.64.266 4.156.187 3.719.03s-.82-.367-1.14-.64a2.895 2.895 0 01-.75-1 3.094 3.094 0 01-.266-1.297c0-.602.132-1.133.406-1.594.281-.457.722-.848 1.328-1.172.601-.32 1.375-.586 2.312-.797.938-.207 2.07-.351 3.407-.437-.043-.614-.262-1.118-.657-1.516-.398-.394-1.03-.594-1.906-.594-.625 0-1.234.117-1.828.344-.594.219-1.168.484-1.719.797l-.922-1.688a13.69 13.69 0 012.25-1.03 7.694 7.694 0 012.672-.47c1.508 0 2.66.403 3.453 1.204.79.793 1.188 1.945 1.188 3.453V0H9.484l-.203-1.344H9.22c-.574.438-1.211.82-1.906 1.14-.7.313-1.415.47-2.141.47zm.766-1.985c.539 0 1.062-.117 1.562-.36a7.665 7.665 0 001.516-.952v-2.297c-.97.074-1.778.172-2.422.297-.649.125-1.164.289-1.547.484-.375.188-.649.402-.813.64A1.44 1.44 0 004-3.108c0 .492.187.843.562 1.062s.832.328 1.375.328z"/></symbol><symbol id="aN" overflow="visible"><path d="M8.61.266c-.825 0-1.524-.11-2.094-.329C5.953-.28 5.5-.593 5.156-1s-.594-.895-.75-1.469a7.522 7.522 0 01-.219-1.89v-4.438h-2.89v-1.89l3-.11.328-3.39h2.078v3.39h4.938v2H6.703v4.438c0 .898.188 1.554.563 1.968.375.418 1.023.625 1.953.625.457 0 .875-.035 1.25-.109a7.424 7.424 0 001.11-.328l.483 1.844c-.492.168-1.015.312-1.578.437A8.558 8.558 0 018.61.266z"/></symbol><symbol id="aO" overflow="visible"><path d="M7.266.266A6.985 6.985 0 014.953-.11a5.711 5.711 0 01-1.89-1.11A5.351 5.351 0 011.796-3c-.305-.707-.453-1.508-.453-2.406 0-.883.148-1.676.453-2.375a5.507 5.507 0 011.25-1.781 5.282 5.282 0 011.781-1.11 5.78 5.78 0 012.11-.39c.8 0 1.507.132 2.125.39.613.25 1.132.602 1.562 1.047.426.45.75.992.969 1.625.219.625.328 1.313.328 2.063 0 .25-.012.492-.031.718a6.541 6.541 0 01-.079.563H3.875c.145 1.012.547 1.762 1.203 2.25.664.48 1.504.719 2.516.719.57 0 1.097-.079 1.578-.235.488-.164.972-.39 1.453-.672l.86 1.578c-.575.387-1.227.7-1.954.938a7.506 7.506 0 01-2.265.344zM7-9.11c-.75 0-1.406.226-1.969.672C4.47-8 4.101-7.345 3.937-6.47h5.75c-.093-.875-.375-1.53-.843-1.968C8.383-8.883 7.769-9.11 7-9.11z"/></symbol><symbol id="aP" overflow="visible"><path d="M6.672.266A8.87 8.87 0 013.75-.22C2.832-.55 2.035-.945 1.36-1.406l1.109-1.61c.656.43 1.351.762 2.094 1 .738.243 1.55.36 2.437.36.75 0 1.3-.117 1.656-.36.364-.25.547-.562.547-.937a.894.894 0 00-.125-.469c-.074-.133-.219-.27-.437-.406-.22-.133-.524-.258-.907-.375a22.859 22.859 0 00-1.53-.375c-1.45-.29-2.509-.695-3.173-1.219-.668-.531-1-1.207-1-2.031 0-.957.407-1.735 1.22-2.328.82-.602 2-.907 3.53-.907a7.08 7.08 0 012.5.438c.782.293 1.446.621 2 .984l-1.156 1.563a7.315 7.315 0 00-1.703-.781 5.92 5.92 0 00-1.86-.297c-.718 0-1.234.117-1.546.343-.313.231-.469.512-.469.844 0 .387.219.68.656.875.446.188 1.172.39 2.172.61.863.187 1.57.39 2.125.609.563.219 1.004.465 1.328.734.332.274.563.578.688.922.133.336.203.715.203 1.14 0 .47-.11.907-.328 1.313-.219.399-.543.746-.969 1.047-.418.305-.945.543-1.578.719-.637.176-1.36.266-2.172.266z"/></symbol><symbol id="aQ" overflow="visible"><path d="M3.016 4.438a5.87 5.87 0 01-.844-.063 3.46 3.46 0 01-.703-.156l.484-1.97c.145.04.29.071.438.095.156.031.312.047.468.047.688 0 1.235-.172 1.641-.516.414-.344.734-.79.953-1.328l.266-.672L.875-10.797h2.531L5.625-5.5c.207.48.406.996.594 1.547.195.543.394 1.086.593 1.625h.094c.164-.52.344-1.051.531-1.594.188-.54.368-1.066.547-1.578l1.953-5.297h2.407L7.828.484c-.23.613-.492 1.16-.781 1.64a5.066 5.066 0 01-1 1.25 3.833 3.833 0 01-1.313.782c-.5.187-1.074.281-1.719.281z"/></symbol><symbol id="aR" overflow="visible"><path d="M8.828.266C7.566.266 6.61-.098 5.953-.828c-.656-.738-.984-1.774-.984-3.11v-9.593h-3.61v-2H7.5v11.719c0 .742.188 1.261.563 1.562.375.305.832.453 1.375.453.57 0 1.188-.14 1.844-.422l.594 1.86a10.16 10.16 0 01-1.453.469c-.438.101-.969.156-1.594.156z"/></symbol><symbol id="aS" overflow="visible"><path d="M6.531 0v-8.797H1.844v-2h7.218V0zm1.094-12.781c-.512 0-.938-.148-1.281-.453-.344-.313-.516-.723-.516-1.235 0-.52.172-.937.516-1.25s.77-.468 1.281-.468c.52 0 .953.156 1.297.468s.516.73.516 1.25c0 .512-.172.922-.516 1.235-.344.305-.777.453-1.297.453z"/></symbol><symbol id="aT" overflow="visible"><path d="M1.797 0v-10.797H3.89l.203 1.625h.094A8.968 8.968 0 015.875-10.5c.625-.375 1.36-.563 2.203-.563 1.238 0 2.149.383 2.735 1.141.593.75.89 1.828.89 3.234V0H9.156v-6.36c0-.875-.152-1.515-.453-1.921-.305-.407-.828-.61-1.578-.61-.523 0-.992.125-1.406.375-.406.25-.86.633-1.36 1.14V0z"/></symbol><symbol id="aU" overflow="visible"><path d="M6.297 4.781c-.75 0-1.43-.062-2.031-.187-.606-.117-1.125-.293-1.563-.532a2.82 2.82 0 01-1-.906c-.23-.355-.344-.777-.344-1.265 0-.875.57-1.633 1.72-2.266v-.094a2.549 2.549 0 01-.766-.672c-.22-.289-.328-.664-.328-1.125 0-.351.113-.71.343-1.078.239-.363.555-.68.953-.953v-.078A3.555 3.555 0 012.297-5.5c-.273-.469-.406-1.023-.406-1.672 0-.613.117-1.16.36-1.64.25-.489.57-.895.968-1.22a4.45 4.45 0 011.406-.765 5.517 5.517 0 011.719-.266c.613 0 1.176.09 1.687.266h4.422v1.938H9.97c.187.199.348.46.484.78.145.313.219.65.219 1 0 .595-.117 1.122-.344 1.579-.23.46-.539.844-.922 1.156-.386.305-.843.54-1.375.703a5.952 5.952 0 01-1.687.235 4.849 4.849 0 01-1.656-.313c-.438.262-.657.602-.657 1.016 0 .68.68 1.015 2.047 1.015h2.188c1.414 0 2.476.203 3.187.61.707.398 1.063 1.074 1.063 2.03 0 .52-.149 1.017-.438 1.485-.293.47-.71.875-1.25 1.22-.53.35-1.183.628-1.953.827-.773.196-1.633.297-2.578.297zm.047-9.797c.55 0 1.023-.187 1.422-.562.406-.375.61-.906.61-1.594 0-.656-.204-1.176-.61-1.563a1.983 1.983 0 00-1.422-.578 2.05 2.05 0 00-1.453.578c-.399.387-.594.907-.594 1.563 0 .687.195 1.219.594 1.594.406.375.89.562 1.453.562zm.25 8.125c.531 0 1.008-.054 1.437-.156.426-.094.79-.227 1.094-.39.313-.157.547-.34.703-.547.164-.2.25-.418.25-.657 0-.43-.183-.71-.547-.843C9.176.379 8.63.312 7.891.312H6.188c-.7 0-1.25-.054-1.657-.156-.386.219-.664.442-.828.672a1.327 1.327 0 00-.234.734c0 .477.266.852.797 1.125.539.282 1.316.422 2.328.422z"/></symbol><symbol id="aV" overflow="visible"><path d="M6.594.266C5.969.266 5.445.055 5.03-.36c-.406-.414-.61-.946-.61-1.594 0-.645.204-1.176.61-1.594.414-.426.938-.64 1.563-.64.633 0 1.156.214 1.562.64.414.418.625.95.625 1.594 0 .648-.21 1.18-.625 1.594-.406.414-.93.625-1.562.625z"/></symbol><symbol id="aX" overflow="visible"><path d="M1.844 0v-14.391H6.64c.75 0 1.445.074 2.093.219.645.148 1.204.386 1.672.719.477.335.852.773 1.125 1.312.282.543.422 1.215.422 2.016 0 1.105-.261 1.996-.781 2.672-.523.667-1.215 1.152-2.078 1.453l3.422 6H9.64L6.563-5.625H4.407V0zm2.562-7.656h1.97c1 0 1.757-.203 2.28-.61.52-.414.782-1.035.782-1.859 0-.832-.262-1.41-.782-1.734-.523-.32-1.28-.485-2.28-.485h-1.97z"/></symbol><symbol id="aY" overflow="visible"><path d="M7.563.266a7.217 7.217 0 01-2.36-.375 5.367 5.367 0 01-1.89-1.094 5.152 5.152 0 01-1.25-1.781c-.305-.707-.454-1.508-.454-2.407 0-.894.16-1.691.485-2.39.332-.707.773-1.301 1.328-1.781a5.736 5.736 0 011.969-1.11 7.204 7.204 0 012.36-.39c.874 0 1.644.148 2.312.437a6.074 6.074 0 011.687 1.078l-1.219 1.578a5.296 5.296 0 00-1.28-.765A3.592 3.592 0 007.874-9c-1.086 0-1.965.328-2.64.984-.68.649-1.016 1.524-1.016 2.625 0 .543.086 1.04.265 1.485.176.437.422.812.735 1.125.32.312.703.558 1.14.734.438.168.922.25 1.454.25.613 0 1.171-.117 1.671-.36a8.585 8.585 0 001.407-.827l1.062 1.625A6.637 6.637 0 019.86-.14c-.75.27-1.515.406-2.297.406z"/></symbol><symbol id="aZ" overflow="visible"><path d="M6.594.266A5.77 5.77 0 014.547-.11a5.088 5.088 0 01-1.734-1.094 5.49 5.49 0 01-1.204-1.781c-.293-.707-.437-1.508-.437-2.407 0-.894.144-1.691.437-2.39.301-.707.704-1.301 1.204-1.781.5-.489 1.078-.86 1.734-1.11a5.558 5.558 0 014.094 0c.664.25 1.242.621 1.734 1.11.5.48.899 1.074 1.203 1.78.301.7.453 1.497.453 2.391 0 .899-.152 1.7-.453 2.407a5.55 5.55 0 01-1.203 1.78c-.492.481-1.07.845-1.734 1.095-.657.25-1.34.375-2.047.375zm0-2.063c.883 0 1.578-.328 2.078-.984s.75-1.524.75-2.61c0-1.101-.25-1.976-.75-2.625C8.172-8.672 7.477-9 6.594-9c-.875 0-1.563.328-2.063.984-.5.649-.75 1.524-.75 2.625 0 1.086.25 1.953.75 2.61s1.188.984 2.063.984z"/></symbol><symbol id="ba" overflow="visible"><path d="M2.86 0v-10.797h2.093l.219 2.438h.062c.563-.883 1.235-1.555 2.016-2.016a5.015 5.015 0 012.578-.688c.445 0 .828.032 1.14.094s.63.18.954.344l-.531 2.14a6.239 6.239 0 00-.938-.265 5.648 5.648 0 00-1.015-.078c-.75 0-1.47.215-2.157.64-.687.43-1.312 1.168-1.875 2.22V0z"/></symbol><symbol id="bb" overflow="visible"><path d="M1.719-6.344v-1.844h9.765v1.844z"/></symbol><symbol id="bc" overflow="visible"><path d="M5.14.266C3.88.266 2.96-.11 2.39-.86c-.562-.758-.843-1.844-.843-3.25v-6.688h2.515v6.36c0 .875.149 1.515.454 1.921.3.407.828.61 1.578.61.507 0 .968-.117 1.375-.36.406-.238.847-.656 1.328-1.25v-7.28h2.531V0H9.265l-.203-1.719H8.97A6.66 6.66 0 017.28-.265c-.617.351-1.328.53-2.14.53z"/></symbol><symbol id="bd" overflow="visible"><path d="M1.89 3.516l7.235-19.141h2.188l-7.25 19.14z"/></symbol><symbol id="be" overflow="visible"><path d="M1.797 0v-15.531h2.562v4l-.156 2.313h.063c.468-.5 1.007-.93 1.625-1.297.613-.364 1.343-.547 2.187-.547 1.238 0 2.149.383 2.735 1.14.593.75.89 1.828.89 3.235V0H9.156v-6.36c0-.874-.152-1.515-.453-1.921-.305-.406-.828-.61-1.578-.61-.523 0-.992.126-1.406.376-.406.25-.86.632-1.36 1.14V0z"/></symbol><symbol id="bi" overflow="visible"><path d="M7.781.266A6.63 6.63 0 015.266-.22 5.921 5.921 0 013.203-1.64c-.586-.632-1.047-1.414-1.39-2.343-.336-.926-.5-1.985-.5-3.172 0-1.164.164-2.211.5-3.141.343-.937.812-1.727 1.406-2.375a5.904 5.904 0 012.094-1.469c.812-.344 1.695-.515 2.656-.515.894 0 1.687.187 2.375.562.695.367 1.273.781 1.734 1.25l-1.406 1.578a4.604 4.604 0 00-1.219-.844 3.278 3.278 0 00-1.484-.328c-.606 0-1.153.125-1.64.375a3.653 3.653 0 00-1.267 1.032c-.355.449-.632.996-.828 1.64-.199.649-.297 1.371-.297 2.172 0 .824.098 1.563.297 2.219.196.648.473 1.195.828 1.64.352.45.782.797 1.282 1.047.508.243 1.07.36 1.687.36a3.4 3.4 0 001.594-.375c.477-.25.922-.602 1.328-1.063l1.406 1.563a5.992 5.992 0 01-2 1.562c-.75.352-1.61.531-2.578.531z"/></symbol><symbol id="bj" overflow="visible"><path d="M5.219 0L.906-10.797h2.547l2.094 5.61c.207.542.395 1.085.563 1.624.164.532.335 1.075.515 1.625h.078c.176-.55.348-1.093.516-1.625.176-.539.363-1.082.562-1.625l2.094-5.609h2.422L8.094 0z"/></symbol><symbol id="bk" overflow="visible"><path d="M1.89 0v-14.391h4.47c.75 0 1.43.063 2.046.188.625.124 1.16.324 1.61.593.445.274.8.637 1.062 1.094.258.45.39 1.008.39 1.672 0 .687-.202 1.328-.609 1.922-.406.586-1.039.984-1.89 1.203v.078c1.039.18 1.836.547 2.39 1.11.563.554.844 1.324.844 2.312 0 .719-.137 1.344-.406 1.875-.274.523-.652.96-1.14 1.312a4.962 4.962 0 01-1.735.782A8.969 8.969 0 016.734 0zm2.548-8.469H6.14c1.007 0 1.726-.176 2.156-.531.437-.352.656-.863.656-1.531 0-.664-.23-1.133-.687-1.406-.45-.27-1.141-.407-2.079-.407h-1.75zm0 6.422h2.03c1.052 0 1.852-.187 2.407-.562.55-.375.828-.973.828-1.797 0-.758-.273-1.301-.812-1.625-.532-.332-1.34-.5-2.422-.5H4.437z"/></symbol><symbol id="bl" overflow="visible"><path d="M1.016 0v-10.797h1.953l.203 1.36h.062c.239-.47.54-.852.907-1.157.363-.312.859-.469 1.484-.469 1.02 0 1.676.602 1.969 1.797.25-.52.562-.945.937-1.28.383-.345.89-.516 1.516-.516.77 0 1.363.296 1.781.89.414.594.625 1.434.625 2.516V0h-2.437v-7.484c0-.946-.29-1.422-.86-1.422a.935.935 0 00-.734.343c-.2.22-.414.559-.64 1.016V0h-2.11v-7.484c0-.47-.07-.82-.203-1.063-.125-.238-.344-.36-.657-.36a.935.935 0 00-.734.344c-.2.22-.402.559-.61 1.016V0z"/></symbol></defs><g fill="#e45549"><use x="8" y="22" xlink:href="#a"/><use x="21" y="22" xlink:href="#b"/><use x="34" y="22" xlink:href="#c"/><use x="47" y="22" xlink:href="#d"/><use x="60" y="22" xlink:href="#e"/><use x="73" y="22" xlink:href="#f"/><use x="86" y="22" xlink:href="#g"/><use x="99" y="22" xlink:href="#h"/><use x="112" y="22" xlink:href="#i"/><use x="125" y="22" xlink:href="#j"/><use x="138" y="22" xlink:href="#b"/></g><g fill="#373942"><use x="32" y="48" xlink:href="#k"/><use x="44" y="48" xlink:href="#l"/><use x="56" y="48" xlink:href="#m"/><use x="68" y="48" xlink:href="#n"/><use x="80" y="48" xlink:href="#o"/><use x="92" y="48" xlink:href="#p"/><use x="104" y="48" xlink:href="#q"/><use x="116" y="48" xlink:href="#r"/><use x="128" y="48" xlink:href="#s"/><use x="140" y="48" xlink:href="#t"/><use x="152" y="48" xlink:href="#o"/><use x="164" y="48" xlink:href="#r"/><use x="176" y="48" xlink:href="#u"/><use x="188" y="48" xlink:href="#l"/><use x="200" y="48" xlink:href="#v"/><use x="212" y="48" xlink:href="#r"/><use x="224" y="48" xlink:href="#s"/><use x="236" y="48" xlink:href="#t"/><use x="248" y="48" xlink:href="#q"/><use x="260" y="48" xlink:href="#w"/><use x="272" y="48" xlink:href="#x"/><use x="284" y="48" xlink:href="#y"/><use x="296" y="48" xlink:href="#l"/><use x="308" y="48" xlink:href="#q"/></g><g fill="#84878b"><use x="32" y="74" xlink:href="#z"/><use x="44" y="74" xlink:href="#A"/><use x="56" y="74" xlink:href="#B"/><use x="68" y="74" xlink:href="#C"/><use x="80" y="74" xlink:href="#D"/><use x="92" y="74" xlink:href="#E"/><use x="104" y="74" xlink:href="#F"/><use x="116" y="74" xlink:href="#G"/><use x="128" y="74" xlink:href="#q"/><use x="140" y="74" xlink:href="#H"/><use x="152" y="74" xlink:href="#I"/><use x="164" y="74" xlink:href="#r"/><use x="176" y="74" xlink:href="#H"/><use x="188" y="74" xlink:href="#J"/><use x="200" y="74" xlink:href="#y"/><use x="212" y="74" xlink:href="#n"/><use x="224" y="74" xlink:href="#K"/><use x="236" y="74" xlink:href="#I"/><use x="248" y="74" xlink:href="#l"/><use x="260" y="74" xlink:href="#q"/><use x="272" y="74" xlink:href="#G"/><use x="284" y="74" xlink:href="#w"/><use x="296" y="74" xlink:href="#H"/><use x="308" y="74" xlink:href="#r"/><use x="320" y="74" xlink:href="#p"/><use x="332" y="74" xlink:href="#l"/><use x="344" y="74" xlink:href="#q"/><use x="356" y="74" xlink:href="#w"/><use x="368" y="74" xlink:href="#L"/><use x="380" y="74" xlink:href="#K"/><use x="392" y="74" xlink:href="#y"/><use x="404" y="74" xlink:href="#s"/><use x="416" y="74" xlink:href="#l"/><use x="428" y="74" xlink:href="#l"/><use x="440" y="74" xlink:href="#q"/><use x="452" y="74" xlink:href="#G"/><use x="464" y="74" xlink:href="#o"/><use x="476" y="74" xlink:href="#n"/><use x="488" y="74" xlink:href="#M"/><use x="500" y="74" xlink:href="#I"/><use x="512" y="74" xlink:href="#l"/><use x="524" y="74" xlink:href="#m"/><use x="536" y="74" xlink:href="#l"/><use x="548" y="74" xlink:href="#I"/><use x="560" y="74" xlink:href="#q"/><use x="572" y="74" xlink:href="#N"/></g><g fill="#84878b"><use x="32" y="100" xlink:href="#z"/><use x="44" y="100" xlink:href="#A"/><use x="56" y="100" xlink:href="#O"/><use x="68" y="100" xlink:href="#P"/><use x="80" y="100" xlink:href="#Q"/><use x="92" y="100" xlink:href="#R"/><use x="104" y="100" xlink:href="#E"/><use x="116" y="100" xlink:href="#S"/><use x="128" y="100" xlink:href="#F"/><use x="140" y="100" xlink:href="#G"/></g><g fill="#373942"><use x="164" y="100" xlink:href="#O"/><use x="176" y="100" xlink:href="#I"/><use x="188" y="100" xlink:href="#r"/><use x="200" y="100" xlink:href="#H"/><use x="212" y="100" xlink:href="#J"/><use x="224" y="100" xlink:href="#q"/><use x="236" y="100" xlink:href="#w"/><use x="248" y="100" xlink:href="#L"/><use x="260" y="100" xlink:href="#o"/><use x="272" y="100" xlink:href="#o"/><use x="284" y="100" xlink:href="#n"/><use x="296" y="100" xlink:href="#s"/><use x="308" y="100" xlink:href="#T"/><use x="320" y="100" xlink:href="#q"/><use x="332" y="100" xlink:href="#n"/><use x="344" y="100" xlink:href="#y"/><use x="356" y="100" xlink:href="#q"/></g><g fill="#976801"><use x="368" y="100" xlink:href="#U"/><use x="380" y="100" xlink:href="#N"/><use x="392" y="100" xlink:href="#V"/><use x="404" y="100" xlink:href="#N"/><use x="416" y="100" xlink:href="#V"/><use x="428" y="100" xlink:href="#W"/><use x="440" y="100" xlink:href="#V"/><use x="452" y="100" xlink:href="#X"/><use x="464" y="100" xlink:href="#W"/><use x="476" y="100" xlink:href="#V"/><use x="488" y="100" xlink:href="#N"/><use x="500" y="100" xlink:href="#q"/><use x="512" y="100" xlink:href="#Y"/><use x="524" y="100" xlink:href="#L"/><use x="536" y="100" xlink:href="#Z"/><use x="548" y="100" xlink:href="#q"/><use x="560" y="100" xlink:href="#aa"/><use x="572" y="100" xlink:href="#ab"/><use x="584" y="100" xlink:href="#G"/><use x="596" y="100" xlink:href="#N"/><use x="608" y="100" xlink:href="#aa"/><use x="620" y="100" xlink:href="#ac"/></g><g fill="#b751b5"><use x="32" y="126" xlink:href="#ad"/><use x="56" y="126" xlink:href="#ae"/><use x="68" y="126" xlink:href="#l"/><use x="80" y="126" xlink:href="#n"/><use x="92" y="126" xlink:href="#u"/><use x="104" y="126" xlink:href="#I"/><use x="116" y="126" xlink:href="#x"/><use x="128" y="126" xlink:href="#Z"/><use x="140" y="126" xlink:href="#l"/><use x="152" y="126" xlink:href="#q"/><use x="164" y="126" xlink:href="#q"/><use x="176" y="126" xlink:href="#q"/><use x="188" y="126" xlink:href="#q"/><use x="200" y="126" xlink:href="#q"/><use x="212" y="126" xlink:href="#q"/><use x="224" y="126" xlink:href="#q"/><use x="236" y="126" xlink:href="#q"/><use x="248" y="126" xlink:href="#q"/><use x="260" y="126" xlink:href="#q"/><use x="272" y="126" xlink:href="#q"/><use x="284" y="126" xlink:href="#q"/><use x="296" y="126" xlink:href="#q"/><use x="308" y="126" xlink:href="#q"/><use x="320" y="126" xlink:href="#q"/><use x="332" y="126" xlink:href="#q"/><use x="344" y="126" xlink:href="#q"/><use x="356" y="126" xlink:href="#q"/><use x="368" y="126" xlink:href="#q"/><use x="380" y="126" xlink:href="#q"/><use x="392" y="126" xlink:href="#q"/><use x="404" y="126" xlink:href="#q"/><use x="416" y="126" xlink:href="#q"/><use x="428" y="126" xlink:href="#q"/><use x="452" y="126" xlink:href="#ad"/><use x="476" y="126" xlink:href="#R"/><use x="488" y="126" xlink:href="#x"/><use x="500" y="126" xlink:href="#o"/><use x="512" y="126" xlink:href="#l"/><use x="524" y="126" xlink:href="#q"/><use x="536" y="126" xlink:href="#q"/><use x="560" y="126" xlink:href="#ad"/><use x="644" y="126" xlink:href="#ad"/><use x="32" y="152" xlink:href="#ad"/><use x="44" y="152" xlink:href="#W"/><use x="56" y="152" xlink:href="#W"/><use x="68" y="152" xlink:href="#W"/><use x="80" y="152" xlink:href="#W"/><use x="92" y="152" xlink:href="#W"/><use x="104" y="152" xlink:href="#W"/><use x="116" y="152" xlink:href="#W"/><use x="128" y="152" xlink:href="#W"/><use x="140" y="152" xlink:href="#W"/><use x="152" y="152" xlink:href="#W"/><use x="164" y="152" xlink:href="#W"/><use x="176" y="152" xlink:href="#W"/><use x="188" y="152" xlink:href="#W"/><use x="200" y="152" xlink:href="#W"/><use x="212" y="152" xlink:href="#W"/><use x="224" y="152" xlink:href="#W"/><use x="236" y="152" xlink:href="#W"/><use x="248" y="152" xlink:href="#W"/><use x="260" y="152" xlink:href="#W"/><use x="272" y="152" xlink:href="#W"/><use x="284" y="152" xlink:href="#W"/><use x="296" y="152" xlink:href="#W"/><use x="308" y="152" xlink:href="#W"/><use x="320" y="152" xlink:href="#W"/><use x="332" y="152" xlink:href="#W"/><use x="344" y="152" xlink:href="#W"/><use x="356" y="152" xlink:href="#W"/><use x="368" y="152" xlink:href="#W"/><use x="380" y="152" xlink:href="#W"/><use x="392" y="152" xlink:href="#W"/><use x="404" y="152" xlink:href="#W"/><use x="416" y="152" xlink:href="#W"/><use x="428" y="152" xlink:href="#W"/><use x="440" y="152" xlink:href="#W"/><use x="452" y="152" xlink:href="#A"/><use x="464" y="152" xlink:href="#W"/><use x="476" y="152" xlink:href="#W"/><use x="488" y="152" xlink:href="#W"/><use x="500" y="152" xlink:href="#W"/><use x="512" y="152" xlink:href="#W"/><use x="524" y="152" xlink:href="#W"/><use x="536" y="152" xlink:href="#W"/><use x="548" y="152" xlink:href="#W"/><use x="560" y="152" xlink:href="#A"/><use x="572" y="152" xlink:href="#W"/><use x="584" y="152" xlink:href="#W"/><use x="596" y="152" xlink:href="#W"/><use x="608" y="152" xlink:href="#W"/><use x="620" y="152" xlink:href="#W"/><use x="632" y="152" xlink:href="#W"/><use x="644" y="152" xlink:href="#ad"/><use x="32" y="178" xlink:href="#ad"/><use x="56" y="178" xlink:href="#af"/><use x="68" y="178" xlink:href="#ag"/><use x="80" y="178" xlink:href="#ah"/><use x="92" y="178" xlink:href="#ai"/><use x="104" y="178" xlink:href="#aj"/><use x="116" y="178" xlink:href="#ak"/><use x="128" y="178" xlink:href="#al"/><use x="140" y="178" xlink:href="#ai"/><use x="152" y="178" xlink:href="#am"/><use x="164" y="178" xlink:href="#an"/><use x="176" y="178" xlink:href="#ao"/><use x="188" y="178" xlink:href="#af"/><use x="452" y="178" xlink:href="#ad"/><use x="476" y="178" xlink:href="#af"/><use x="488" y="178" xlink:href="#ap"/><use x="500" y="178" xlink:href="#aq"/><use x="512" y="178" xlink:href="#ar"/><use x="524" y="178" xlink:href="#as"/><use x="536" y="178" xlink:href="#af"/><use x="560" y="178" xlink:href="#ad"/><use x="644" y="178" xlink:href="#ad"/><use x="32" y="204" xlink:href="#ad"/><use x="44" y="204" xlink:href="#W"/><use x="56" y="204" xlink:href="#W"/><use x="68" y="204" xlink:href="#W"/><use x="80" y="204" xlink:href="#W"/><use x="92" y="204" xlink:href="#W"/><use x="104" y="204" xlink:href="#W"/><use x="116" y="204" xlink:href="#W"/><use x="128" y="204" xlink:href="#W"/><use x="140" y="204" xlink:href="#W"/><use x="152" y="204" xlink:href="#W"/><use x="164" y="204" xlink:href="#W"/><use x="176" y="204" xlink:href="#W"/><use x="188" y="204" xlink:href="#W"/><use x="200" y="204" xlink:href="#W"/><use x="212" y="204" xlink:href="#W"/><use x="224" y="204" xlink:href="#W"/><use x="236" y="204" xlink:href="#W"/><use x="248" y="204" xlink:href="#W"/><use x="260" y="204" xlink:href="#W"/><use x="272" y="204" xlink:href="#W"/><use x="284" y="204" xlink:href="#W"/><use x="296" y="204" xlink:href="#W"/><use x="308" y="204" xlink:href="#W"/><use x="320" y="204" xlink:href="#W"/><use x="332" y="204" xlink:href="#W"/><use x="344" y="204" xlink:href="#W"/><use x="356" y="204" xlink:href="#W"/><use x="368" y="204" xlink:href="#W"/><use x="380" y="204" xlink:href="#W"/><use x="392" y="204" xlink:href="#W"/><use x="404" y="204" xlink:href="#W"/><use x="416" y="204" xlink:href="#W"/><use x="428" y="204" xlink:href="#W"/><use x="440" y="204" xlink:href="#W"/><use x="452" y="204" xlink:href="#A"/><use x="464" y="204" xlink:href="#W"/><use x="476" y="204" xlink:href="#W"/><use x="488" y="204" xlink:href="#W"/><use x="500" y="204" xlink:href="#W"/><use x="512" y="204" xlink:href="#W"/><use x="524" y="204" xlink:href="#W"/><use x="536" y="204" xlink:href="#W"/><use x="548" y="204" xlink:href="#W"/><use x="560" y="204" xlink:href="#A"/><use x="572" y="204" xlink:href="#W"/><use x="584" y="204" xlink:href="#W"/><use x="596" y="204" xlink:href="#W"/><use x="608" y="204" xlink:href="#W"/><use x="620" y="204" xlink:href="#W"/><use x="632" y="204" xlink:href="#W"/><use x="644" y="204" xlink:href="#ad"/><use x="32" y="230" xlink:href="#ad"/><use x="56" y="230" xlink:href="#k"/><use x="68" y="230" xlink:href="#l"/><use x="80" y="230" xlink:href="#m"/><use x="92" y="230" xlink:href="#n"/><use x="104" y="230" xlink:href="#o"/><use x="116" y="230" xlink:href="#p"/><use x="128" y="230" xlink:href="#q"/><use x="140" y="230" xlink:href="#r"/><use x="152" y="230" xlink:href="#s"/><use x="164" y="230" xlink:href="#t"/><use x="176" y="230" xlink:href="#o"/><use x="188" y="230" xlink:href="#r"/><use x="200" y="230" xlink:href="#u"/><use x="212" y="230" xlink:href="#l"/><use x="224" y="230" xlink:href="#v"/><use x="236" y="230" xlink:href="#r"/><use x="248" y="230" xlink:href="#s"/><use x="260" y="230" xlink:href="#t"/><use x="272" y="230" xlink:href="#q"/><use x="284" y="230" xlink:href="#w"/><use x="296" y="230" xlink:href="#x"/><use x="308" y="230" xlink:href="#y"/><use x="320" y="230" xlink:href="#l"/><use x="332" y="230" xlink:href="#q"/><use x="344" y="230" xlink:href="#q"/><use x="356" y="230" xlink:href="#q"/><use x="368" y="230" xlink:href="#q"/><use x="380" y="230" xlink:href="#q"/><use x="392" y="230" xlink:href="#q"/><use x="404" y="230" xlink:href="#q"/><use x="416" y="230" xlink:href="#q"/><use x="428" y="230" xlink:href="#q"/><use x="452" y="230" xlink:href="#ad"/><use x="476" y="230" xlink:href="#at"/><use x="488" y="230" xlink:href="#G"/><use x="500" y="230" xlink:href="#N"/><use x="512" y="230" xlink:href="#au"/><use x="524" y="230" xlink:href="#q"/><use x="536" y="230" xlink:href="#q"/><use x="560" y="230" xlink:href="#ad"/><use x="644" y="230" xlink:href="#ad"/><use x="32" y="256" xlink:href="#ad"/><use x="56" y="256" xlink:href="#av"/><use x="68" y="256" xlink:href="#aw"/><use x="80" y="256" xlink:href="#q"/><use x="92" y="256" xlink:href="#q"/><use x="104" y="256" xlink:href="#ax"/><use x="116" y="256" xlink:href="#p"/><use x="128" y="256" xlink:href="#u"/><use x="140" y="256" xlink:href="#n"/><use x="152" y="256" xlink:href="#y"/><use x="164" y="256" xlink:href="#l"/><use x="176" y="256" xlink:href="#q"/><use x="188" y="256" xlink:href="#w"/><use x="200" y="256" xlink:href="#y"/><use x="212" y="256" xlink:href="#T"/><use x="224" y="256" xlink:href="#I"/><use x="236" y="256" xlink:href="#x"/><use x="248" y="256" xlink:href="#Z"/><use x="260" y="256" xlink:href="#t"/><use x="272" y="256" xlink:href="#q"/><use x="284" y="256" xlink:href="#q"/><use x="296" y="256" xlink:href="#q"/><use x="308" y="256" xlink:href="#q"/><use x="320" y="256" xlink:href="#q"/><use x="332" y="256" xlink:href="#q"/><use x="344" y="256" xlink:href="#q"/><use x="356" y="256" xlink:href="#q"/><use x="368" y="256" xlink:href="#q"/><use x="380" y="256" xlink:href="#q"/><use x="392" y="256" xlink:href="#q"/><use x="404" y="256" xlink:href="#q"/><use x="416" y="256" xlink:href="#q"/><use x="428" y="256" xlink:href="#q"/><use x="452" y="256" xlink:href="#ad"/><use x="560" y="256" xlink:href="#ad"/><use x="584" y="256" xlink:href="#ab"/><use x="596" y="256" xlink:href="#G"/><use x="608" y="256" xlink:href="#at"/><use x="620" y="256" xlink:href="#ay"/><use x="644" y="256" xlink:href="#ad"/><use x="32" y="282" xlink:href="#ad"/><use x="56" y="282" xlink:href="#av"/><use x="68" y="282" xlink:href="#aw"/><use x="80" y="282" xlink:href="#q"/><use x="92" y="282" xlink:href="#q"/><use x="104" y="282" xlink:href="#k"/><use x="116" y="282" xlink:href="#l"/><use x="128" y="282" xlink:href="#H"/><use x="140" y="282" xlink:href="#r"/><use x="152" y="282" xlink:href="#s"/><use x="164" y="282" xlink:href="#u"/><use x="176" y="282" xlink:href="#q"/><use x="188" y="282" xlink:href="#w"/><use x="200" y="282" xlink:href="#H"/><use x="212" y="282" xlink:href="#s"/><use x="224" y="282" xlink:href="#l"/><use x="236" y="282" xlink:href="#l"/><use x="248" y="282" xlink:href="#Z"/><use x="260" y="282" xlink:href="#W"/><use x="272" y="282" xlink:href="#H"/><use x="284" y="282" xlink:href="#n"/><use x="296" y="282" xlink:href="#p"/><use x="308" y="282" xlink:href="#y"/><use x="320" y="282" xlink:href="#L"/><use x="332" y="282" xlink:href="#s"/><use x="344" y="282" xlink:href="#l"/><use x="356" y="282" xlink:href="#w"/><use x="368" y="282" xlink:href="#az"/><use x="380" y="282" xlink:href="#w"/><use x="392" y="282" xlink:href="#aA"/><use x="404" y="282" xlink:href="#r"/><use x="416" y="282" xlink:href="#y"/><use x="428" y="282" xlink:href="#w"/><use x="452" y="282" xlink:href="#ad"/><use x="560" y="282" xlink:href="#ad"/><use x="584" y="282" xlink:href="#V"/><use x="596" y="282" xlink:href="#G"/><use x="608" y="282" xlink:href="#ab"/><use x="620" y="282" xlink:href="#aB"/><use x="644" y="282" xlink:href="#ad"/></g><g fill="#84878b"><use x="32" y="308" xlink:href="#z"/><use x="44" y="308" xlink:href="#A"/><use x="56" y="308" xlink:href="#C"/><use x="68" y="308" xlink:href="#F"/><use x="80" y="308" xlink:href="#aC"/><use x="92" y="308" xlink:href="#G"/></g><g fill="#d98547"><use x="20" y="362" xlink:href="#aD"/><use x="33" y="362" xlink:href="#aD"/><use x="46" y="362" xlink:href="#aE"/></g><g fill="#373942"><use x="59" y="362" xlink:href="#aF"/><use x="72" y="362" xlink:href="#aG"/><use x="85" y="362" xlink:href="#aH"/><use x="98" y="362" xlink:href="#aI"/></g><g fill="#373942"><use x="124" y="362" xlink:href="#aJ"/><use x="137" y="362" xlink:href="#aK"/><use x="150" y="362" xlink:href="#aL"/><use x="163" y="362" xlink:href="#aM"/><use x="176" y="362" xlink:href="#aN"/><use x="189" y="362" xlink:href="#aO"/><use x="202" y="362" xlink:href="#aE"/><use x="215" y="362" xlink:href="#aP"/><use x="228" y="362" xlink:href="#aN"/><use x="241" y="362" xlink:href="#aQ"/><use x="254" y="362" xlink:href="#aR"/><use x="267" y="362" xlink:href="#aS"/><use x="280" y="362" xlink:href="#aT"/><use x="293" y="362" xlink:href="#aU"/><use x="306" y="362" xlink:href="#aV"/><use x="319" y="362" xlink:href="#aV"/><use x="332" y="362" xlink:href="#aV"/></g><g fill="#d98547"><use x="20" y="390" xlink:href="#aD"/><use x="33" y="390" xlink:href="#aD"/><use x="46" y="390" xlink:href="#aE"/></g><g fill="#4fa14e"><use x="59" y="390" xlink:href="#aW"/><use x="72" y="390" xlink:href="#aG"/><use x="85" y="390" xlink:href="#aF"/><use x="98" y="390" xlink:href="#aG"/></g><g fill="#d98547"><use x="111" y="390" xlink:href="#aE"/><use x="124" y="390" xlink:href="#aX"/><use x="137" y="390" xlink:href="#aO"/><use x="150" y="390" xlink:href="#aY"/><use x="163" y="390" xlink:href="#aZ"/><use x="176" y="390" xlink:href="#ba"/><use x="189" y="390" xlink:href="#aL"/><use x="202" y="390" xlink:href="#aE"/><use x="215" y="390" xlink:href="#aP"/><use x="228" y="390" xlink:href="#aY"/><use x="241" y="390" xlink:href="#ba"/><use x="254" y="390" xlink:href="#aO"/><use x="267" y="390" xlink:href="#aO"/><use x="280" y="390" xlink:href="#aT"/><use x="293" y="390" xlink:href="#bb"/><use x="306" y="390" xlink:href="#aY"/><use x="319" y="390" xlink:href="#aM"/><use x="332" y="390" xlink:href="#aK"/><use x="345" y="390" xlink:href="#aN"/><use x="358" y="390" xlink:href="#bc"/><use x="371" y="390" xlink:href="#ba"/><use x="384" y="390" xlink:href="#aO"/><use x="397" y="390" xlink:href="#aP"/><use x="410" y="390" xlink:href="#bd"/><use x="423" y="390" xlink:href="#aP"/><use x="436" y="390" xlink:href="#be"/><use x="449" y="390" xlink:href="#aZ"/><use x="462" y="390" xlink:href="#aN"/><use x="475" y="390" xlink:href="#aP"/><use x="488" y="390" xlink:href="#aV"/><use x="501" y="390" xlink:href="#aV"/><use x="514" y="390" xlink:href="#aV"/></g><g fill="#d98547"><use x="20" y="418" xlink:href="#aD"/><use x="33" y="418" xlink:href="#aD"/><use x="46" y="418" xlink:href="#aE"/></g><g fill="#976801"><use x="59" y="418" xlink:href="#bf"/><use x="72" y="418" xlink:href="#bg"/><use x="85" y="418" xlink:href="#bh"/><use x="98" y="418" xlink:href="#aW"/></g><g fill="#d98547"><use x="111" y="418" xlink:href="#aE"/><use x="124" y="418" xlink:href="#bi"/><use x="137" y="418" xlink:href="#aZ"/><use x="150" y="418" xlink:href="#aT"/><use x="163" y="418" xlink:href="#bj"/><use x="176" y="418" xlink:href="#aS"/><use x="189" y="418" xlink:href="#aT"/><use x="202" y="418" xlink:href="#aY"/><use x="215" y="418" xlink:href="#aO"/><use x="228" y="418" xlink:href="#aE"/><use x="241" y="418" xlink:href="#bk"/><use x="254" y="418" xlink:href="#aM"/><use x="267" y="418" xlink:href="#aP"/><use x="280" y="418" xlink:href="#aN"/><use x="293" y="418" xlink:href="#aS"/><use x="306" y="418" xlink:href="#aO"/><use x="319" y="418" xlink:href="#aT"/><use x="332" y="418" xlink:href="#aE"/><use x="345" y="418" xlink:href="#aN"/><use x="358" y="418" xlink:href="#aZ"/><use x="371" y="418" xlink:href="#aE"/><use x="384" y="418" xlink:href="#aM"/><use x="397" y="418" xlink:href="#aY"/><use x="410" y="418" xlink:href="#aY"/><use x="423" y="418" xlink:href="#aO"/><use x="436" y="418" xlink:href="#aK"/><use x="449" y="418" xlink:href="#aN"/><use x="462" y="418" xlink:href="#aE"/><use x="475" y="418" xlink:href="#bl"/><use x="488" y="418" xlink:href="#aQ"/><use x="501" y="418" xlink:href="#aE"/><use x="514" y="418" xlink:href="#aY"/><use x="527" y="418" xlink:href="#be"/><use x="540" y="418" xlink:href="#aM"/><use x="553" y="418" xlink:href="#aT"/><use x="566" y="418" xlink:href="#aU"/><use x="579" y="418" xlink:href="#aO"/><use x="592" y="418" xlink:href="#aP"/><use x="605" y="418" xlink:href="#aE"/></g></svg>