<svg width="43pt" height="60pt" viewBox="0 0 169.33 237.07" xmlns="http://www.w3.org/2000/svg"><path d="M16.928 63.047V175.86h33.718l7.868 4.466c6.308-5.21 9.798-11.675 34.808-11.14 36.174-1.269 59.128-34.75 58.92-72.228l-33.864.005c-1.082 10.435-.85 37.123-32.459 38.277-18.635.4-24.37 3.066-35.271 7.898V63.046H16.93z" fill="#7a9"/><g fill="#587e72"><path d="M33.817.176A33.874 33.874 0 00.034 34.05a33.874 33.874 0 0033.874 33.874A33.874 33.874 0 0067.782 34.05 33.874 33.874 0 0033.908.176a33.874 33.874 0 00-.091 0zm.047 16.758a17.117 17.117 0 01.044 0 17.117 17.117 0 0117.117 17.117 17.117 17.117 0 01-17.117 17.117 17.117 17.117 0 01-17.117-17.117 17.117 17.117 0 0117.072-17.117zM33.817 168.98A33.874 33.874 0 00.034 202.854a33.874 33.874 0 0033.874 33.874 33.874 33.874 0 0033.874-33.874 33.874 33.874 0 00-33.874-33.874 33.874 33.874 0 00-.091 0zm.047 16.758a17.117 17.117 0 01.044 0 17.117 17.117 0 0117.117 17.117 17.117 17.117 0 01-17.117 17.117 17.117 17.117 0 01-17.117-17.117 17.117 17.117 0 0117.072-17.117zM135.46 33.867a33.874 33.874 0 00-33.783 33.874 33.874 33.874 0 0033.874 33.874 33.874 33.874 0 0033.874-33.874 33.874 33.874 0 00-33.874-33.874 33.874 33.874 0 00-.091 0zm.047 16.758a17.117 17.117 0 01.044 0 17.117 17.117 0 0117.117 17.117 17.117 17.117 0 01-17.117 17.117 17.117 17.117 0 01-17.117-17.117 17.117 17.117 0 0117.072-17.117z"/></g></svg>
