<svg width="300" height="300" fill="#3BB300" viewBox="0 0 8.467 8.467" xmlns:xhtml="http://www.w3.org/1999/xhtml" xmlns="http://www.w3.org/2000/svg"><style></style><g font-family="sans-serif" color="#000"><path d="M.795 6.617a.265.265 0 00-.266.266V8.2a.265.265 0 00.266.266h6.878a.265.265 0 00.264-.266V6.883a.265.265 0 00-.264-.266z" fill="#7a9" style="font-feature-settings:normal;font-variant-alternates:normal;font-variant-caps:normal;font-variant-ligatures:normal;font-variant-numeric:normal;font-variant-position:normal;isolation:auto;line-height:normal;mix-blend-mode:normal;shape-padding:0;text-decoration-color:#000;text-decoration-line:none;text-decoration-style:solid;text-indent:0;text-orientation:mixed;text-transform:none;white-space:normal"/><path d="M3.596 0a.265.265 0 00-.266.264v3.4h-.817a.265.265 0 00-.2.438l1.72 1.994a.265.265 0 00.4 0l1.721-1.994a.265.265 0 00-.2-.438h-.817v-3.4A.265.265 0 004.873 0z" fill="#587e72" style="font-feature-settings:normal;font-variant-alternates:normal;font-variant-caps:normal;font-variant-ligatures:normal;font-variant-numeric:normal;font-variant-position:normal;isolation:auto;line-height:normal;mix-blend-mode:normal;shape-padding:0;text-decoration-color:#000;text-decoration-line:none;text-decoration-style:solid;text-indent:0;text-orientation:mixed;text-transform:none;white-space:normal"/></g><xhtml:iframe id="cmdline_iframe" class="cleanslate hidden" style="height:0" src="download_files/commandline.html"/></svg>