<svg width="662" height="400" viewBox="0 0 778.22 500.31" xmlns="http://www.w3.org/2000/svg" xmlns:xlink="http://www.w3.org/1999/xlink"><defs><symbol id="a" overflow="visible"><path d="M7.875 0h1.297l.594-4.89h2.203v-1.376H9.938l.437-3.546h2.078v-1.391h-1.922l.531-4.39H9.797l-.563 4.39H6.078l.516-4.39H5.328l-.547 4.39H2.563v1.39h2.046l-.437 3.547H2.094v1.375h1.922L3.406 0h1.297l.594-4.89h3.172zm.766-6.266H5.469l.437-3.546h3.172z"/></symbol><symbol id="b" overflow="visible"><path d="M6.406-2.5h1.578v-4.672h4.375v-1.484H7.984v-4.688H6.406v4.688h-4.36v1.484h4.36z"/></symbol><symbol id="c" overflow="visible"><path d="M9.453.281c1.469 0 2.594-.312 3.656-.687l-.437-1.438c-.844.313-1.703.532-2.813.532-2.25 0-2.953-1.11-2.953-3.204v-5.546h5.735v-1.594H6.906v-3.75H5.281l-.265 3.75-3.36.11v1.483h3.281v5.532C4.937-1.656 6.047.28 9.453.28z"/></symbol><symbol id="d" overflow="visible"><path d="M7.578 0h1.969v-11.656h-7.39v1.594h5.421zm.781-14.109c.875 0 1.578-.61 1.578-1.531s-.703-1.547-1.578-1.547c-.89 0-1.593.625-1.593 1.547s.703 1.531 1.593 1.531z"/></symbol><symbol id="e" overflow="visible"><path d="M9.766.281c1.28 0 2.046-.234 3.125-.687l-.5-1.47c-.797.36-1.516.532-2.188.532-1.39 0-2.312-.719-2.312-2.422v-13.328H1.78v1.61h4.14v11.578C5.922-1.156 7.298.28 9.767.28z"/></symbol><symbol id="f" overflow="visible"><path d="M7.922.281c1.875 0 3.36-.625 4.516-1.39l-.72-1.297c-1.062.672-2.171 1.11-3.562 1.11-2.422 0-4.297-1.345-4.531-3.985h9.188a8.37 8.37 0 00.093-1.203c0-3.282-1.969-5.47-5.328-5.47-3.11 0-5.953 2.313-5.953 6.095 0 3.89 2.797 6.14 6.297 6.14zM7.625-10.39c2 0 3.313 1.172 3.484 3.578H3.672c.36-2.312 2.047-3.578 3.953-3.578z"/></symbol><symbol id="g" overflow="visible"><path d="M7.203-8.297c1.078 0 1.938-.828 1.938-2.016 0-1.234-.86-2.046-1.938-2.046s-1.953.812-1.953 2.046c0 1.188.875 2.016 1.953 2.016zm0 8.578c1.078 0 1.938-.812 1.938-2.015 0-1.22-.86-2.032-1.938-2.032S5.25-2.953 5.25-1.734C5.25-.531 6.125.28 7.203.28z"/></symbol><symbol id="t" overflow="visible"><path d="M5.906.281c1.656 0 3.313-.86 4.61-1.86h.062L10.75 0h1.61v-7.156c0-2.906-1.532-4.797-4.735-4.797-2.031 0-4 .906-5.172 1.687l.766 1.344c1.078-.672 2.562-1.39 4.078-1.39 2.25 0 3.047 1.343 3.094 2.921-6.016.485-8.454 1.75-8.454 4.36C1.938-.937 3.72.28 5.908.28zm.531-1.578c-1.343 0-2.578-.547-2.578-1.875 0-1.531 1.547-2.515 6.532-2.922v3.063C9.078-1.921 7.75-1.297 6.437-1.297z"/></symbol><symbol id="u" overflow="visible"><path d="M5.906.281c1.797 0 3.172-.953 4.344-2.328h.094L10.516 0h1.609v-11.656h-1.969v8.078C8.86-2.062 7.875-1.422 6.531-1.422c-1.953 0-2.687-1.047-2.687-3.265v-6.97h-2v7.235c0 3.078 1.28 4.703 4.062 4.703z"/></symbol><symbol id="v" overflow="visible"><path d="M2.234 0h1.97v-8.14C5.562-9.548 6.5-10.25 7.89-10.25c1.922 0 2.687 1.063 2.687 3.266V0h1.969v-7.25c0-3.063-1.266-4.703-4.031-4.703-1.813 0-3.156.984-4.36 2.281h-.078l.125-2.765v-4.657H2.234z"/></symbol><symbol id="w" overflow="visible"><path d="M7.203.281c3.063 0 5.75-2.219 5.75-6.094 0-3.906-2.687-6.14-5.75-6.14-3.078 0-5.766 2.234-5.766 6.14 0 3.875 2.688 6.094 5.766 6.094zm0-1.625c-2.234 0-3.719-1.797-3.719-4.469 0-2.687 1.485-4.5 3.72-4.5s3.718 1.813 3.718 4.5c0 2.672-1.484 4.47-3.719 4.47z"/></symbol><symbol id="x" overflow="visible"><path d="M3.5 0h1.969v-6.844c1.39-2.422 3.047-3.328 4.797-3.328.922 0 1.343.11 2.172.406l.453-1.703c-.719-.36-1.438-.484-2.313-.484-2.156 0-3.984 1.172-5.203 3.047h-.078l-.156-2.75H3.5z"/></symbol><symbol id="y" overflow="visible"><path d="M6.188 0h2.015v-14.062h5.188v-1.688H1.016v1.688h5.171z"/></symbol><symbol id="z" overflow="visible"><path d="M2.734 0h9.985v-1.703H4.75v-5.719h6.531v-1.703H4.75v-4.938h7.734v-1.687h-9.75z"/></symbol><symbol id="A" overflow="visible"><path d="M8.422.281c2.094 0 3.625-.828 4.875-2.265L12.172-3.22c-1.016 1.125-2.11 1.75-3.563 1.75-3.015 0-4.984-2.484-4.984-6.453 0-3.906 1.969-6.36 4.984-6.36 1.329 0 2.36.579 3.172 1.438l1.125-1.265a5.803 5.803 0 00-4.297-1.922c-4.093 0-7.046 3.094-7.046 8.156C1.563-2.736 4.531.28 8.422.28z"/></symbol><symbol id="B" overflow="visible"><path d="M6.5.281c1.438 0 2.844-.828 3.797-1.812h.078l.156 1.53h1.64v-17.093h-1.968v4.5l.094 2.156h-.078c-1-.969-2.078-1.515-3.47-1.515-2.765 0-5.312 2.359-5.312 6.14C1.437-1.923 3.453.281 6.5.281zm.406-1.656c-2.156 0-3.422-1.672-3.422-4.453 0-2.672 1.625-4.469 3.641-4.469 1.016 0 2.016.39 3.078 1.375v5.797c-1.031 1.156-2.14 1.75-3.297 1.75z"/></symbol><symbol id="C" overflow="visible"><path d="M1.75 0h10.781v-1.703H7.484c-.906 0-1.89.078-2.86.14 4.188-3.796 7.063-6.64 7.063-9.53 0-2.704-1.922-4.5-4.984-4.5-2.172 0-3.672.937-5.047 2.327L2.78-12.14c.984-1.03 2.234-1.843 3.672-1.843 2.265 0 3.344 1.234 3.344 3 0 2.53-2.86 5.218-8.047 9.812z"/></symbol><symbol id="D" overflow="visible"><path d="M7.203.281c3.406 0 5.5-2.89 5.5-7.984 0-5.14-2.094-7.89-5.5-7.89s-5.5 2.75-5.5 7.89C1.703-2.61 3.797.28 7.203.28zm0-1.578c-2.14 0-3.656-2.015-3.656-6.406 0-4.422 1.515-6.313 3.656-6.313s3.64 1.891 3.64 6.313c0 4.39-1.5 6.406-3.64 6.406zm0-4.969c.781 0 1.484-.593 1.484-1.609 0-.984-.703-1.578-1.484-1.578-.797 0-1.484.594-1.484 1.578 0 1.016.687 1.61 1.484 1.61z"/></symbol><symbol id="E" overflow="visible"><path d="M2.047-7.172h10.312v-1.484H2.047z"/></symbol><symbol id="F" overflow="visible"><path d="M6.75-7.438c-2.14 0-3.266-1.156-3.266-3.25 0-2.015 1.407-3.359 3.235-3.359 2.25 0 3.625 1.594 3.937 4.563-1.25 1.437-2.719 2.046-3.906 2.046zM6.172.282c3.312 0 6.406-2.376 6.406-8.516 0-4.922-2.547-7.36-5.875-7.36-2.719 0-5.094 1.985-5.094 4.907 0 3.156 1.922 4.734 4.75 4.734 1.563 0 3.094-.75 4.344-1.969-.094 4.89-2.234 6.578-4.656 6.578A4.464 4.464 0 013-2.563l-1.11 1.25C2.907-.406 4.298.281 6.173.281z"/></symbol><symbol id="G" overflow="visible"><path d="M6.89.281c3.048 0 5.548-1.656 5.548-4.36 0-2.109-1.75-3.452-3.797-3.89v-.093c1.89-.626 3.265-1.797 3.265-3.657 0-2.469-2.187-3.875-5.062-3.875-1.97 0-3.625.813-4.907 1.906L3-12.438c1.016-.906 2.328-1.546 3.766-1.546 1.875 0 3.125.921 3.125 2.421 0 1.61-1.391 2.844-5.016 2.844v1.516c4.031 0 5.562 1.234 5.562 3.047 0 1.703-1.578 2.812-3.671 2.812-1.97 0-3.375-.86-4.391-1.828l-1 1.297C2.5-.75 4.25.281 6.891.281z"/></symbol><symbol id="af" overflow="visible"><path d="M5.813 0H7.75v-10.062h4.89v-1.594H7.75v-1.062c0-1.89.86-3.047 2.953-3.047 1.016 0 1.75.125 2.719.547l.453-1.485a8.769 8.769 0 00-3.36-.672c-3.218 0-4.702 1.875-4.702 4.735v.984l-3.344.11v1.484h3.344z"/></symbol><symbol id="ag" overflow="visible"><path d="M7.11 5.375c3.952 0 6.468-1.89 6.468-4.078 0-1.969-1.437-2.734-4.437-2.734H6.53c-1.547 0-2.422-.438-2.422-1.344 0-.563.329-.985.907-1.344a5.14 5.14 0 001.968.422c2.516 0 4.516-1.5 4.516-4 0-.938-.453-1.797-.984-2.36h3.015v-1.593H8.72c-.516-.204-1.063-.297-1.735-.297-2.468 0-4.578 1.64-4.578 4.172 0 1.39.64 2.422 1.438 3.03v.095c-.89.593-1.39 1.437-1.39 2.187 0 .984.577 1.578 1.187 1.922v.094C2.406.265 1.734 1.203 1.734 2.14c0 2.062 1.97 3.234 5.375 3.234zM6.983-5.016c-1.468 0-2.687-1.078-2.687-2.766 0-1.625 1.219-2.734 2.687-2.734 1.485 0 2.688 1.11 2.688 2.734 0 1.688-1.203 2.766-2.688 2.766zm.266 8.953c-2.5 0-3.812-.766-3.812-2 0-.672.375-1.344 1.484-1.937.5.14 1.11.187 1.781.187H8.97c1.78 0 2.672.313 2.672 1.422 0 1.203-1.688 2.328-4.391 2.328z"/></symbol><symbol id="am" overflow="visible"><path d="M7.688.281c2.78 0 5.265-2.328 5.265-6.312 0-3.594-1.703-5.922-4.844-5.922-1.36 0-2.86.703-3.906 1.781h-.078l.078-2.266v-4.656H2.234V0h1.578l.172-1.297h.078C5.156-.312 6.547.281 7.687.281zm-.313-1.656c-.844 0-2.078-.375-3.172-1.36v-5.812c1.203-1.203 2.39-1.75 3.422-1.75 2.328 0 3.297 1.735 3.297 4.297 0 2.875-1.516 4.625-3.547 4.625z"/></symbol><symbol id="an" overflow="visible"><path d="M7.438.281c3.343 0 5.187-1.578 5.187-3.469 0-1.78-.938-2.765-4.828-3.609-2.375-.5-3.375-.937-3.375-1.937 0-.891.687-1.688 2.687-1.688a6.83 6.83 0 013.907 1.234l.953-1.28c-1.14-.782-2.922-1.485-4.703-1.485-3.188 0-4.844 1.437-4.844 3.312 0 1.75 1.531 2.782 4.562 3.407 3.172.656 3.64 1.28 3.64 2.156 0 .984-.983 1.828-2.937 1.828-2.171 0-3.734-.625-5.078-1.578l-.906 1.297C3.125-.547 5.156.28 7.437.28z"/></symbol><symbol id="ao" overflow="visible"><path d="M7.203.281c1.078 0 1.938-.812 1.938-2.015 0-1.22-.86-2.032-1.938-2.032S5.25-2.953 5.25-1.734C5.25-.531 6.125.28 7.203.28z"/></symbol><symbol id="aF" overflow="visible"><path d="M3.219 0h9.765v-1.703H5.187V-15.75H3.22z"/></symbol><symbol id="aG" overflow="visible"><path d="M7.203.281c3.547 0 6.047-3.062 6.047-8.219 0-5.093-2.5-8.093-6.047-8.093-3.562 0-6.047 3-6.047 8.093 0 5.157 2.485 8.22 6.047 8.22zm0-1.75c-2.406 0-3.984-2.437-3.984-6.469 0-3.968 1.578-6.343 3.984-6.343 2.39 0 3.984 2.375 3.984 6.343 0 4.032-1.593 6.47-3.984 6.47z"/></symbol><symbol id="aH" overflow="visible"><path d="M7.313.281c3.468 0 5.578-1.984 5.578-4.484 0-2.328-1.532-3.406-3.485-4.203L7.203-9.36c-1.344-.547-2.812-1.11-2.812-2.61 0-1.422 1.218-2.312 3.046-2.312 1.641 0 2.829.578 3.86 1.484l1.062-1.297c-1.156-1.14-2.875-1.937-4.843-1.937-3 0-5.157 1.78-5.157 4.172 0 2.312 1.813 3.437 3.407 4.062l2.25.985c1.609.687 2.828 1.171 2.828 2.859 0 1.453-1.266 2.484-3.422 2.484-1.813 0-3.438-.78-4.61-1.968L1.61-2.047C3.031-.625 5.015.281 7.312.281z"/></symbol><symbol id="aI" overflow="visible"><path d="M2.094 0h3.984c4.625 0 7.188-2.922 7.188-7.938 0-5-2.563-7.812-7.297-7.812H2.094zm1.984-1.625v-12.484h1.75c3.61 0 5.375 2.203 5.375 6.172 0 3.984-1.765 6.312-5.375 6.312z"/></symbol><symbol id="aJ" overflow="visible"><path d="M5.406 3.64h6.64V2.517H6.985V-15.86h5.063v-1.125h-6.64z"/></symbol><symbol id="aK" overflow="visible"><path d="M2.328 0H12.72v-1.625h-4v-13.688H7.25c-.984.531-2.14.89-3.937 1.125v1.281H6.75v11.281H2.328z"/></symbol><symbol id="aL" overflow="visible"><path d="M7.25.281c3.5 0 5.5-1.797 5.5-4.078 0-2.172-1.328-3.14-3-3.984v-.094c1.266-.89 2.328-2.203 2.328-3.64 0-2.376-1.766-4.079-4.766-4.079-2.734 0-4.718 1.578-4.718 3.938 0 1.594 1.047 2.781 2.328 3.562v.11c-1.64.765-3.297 1.953-3.297 4.078C1.625-1.484 3.797.28 7.25.28zm1.203-8.64c-2.281-.72-4.062-1.485-4.062-3.297 0-1.5 1.171-2.485 2.875-2.485 2.015 0 3.109 1.203 3.109 2.72 0 1.124-.672 2.155-1.922 3.062zM7.297-1.172c-2.36 0-3.86-1.234-3.86-2.937 0-1.532 1.125-2.516 2.61-3.328C8.734-6.531 10.844-6 10.844-3.86c0 1.578-1.266 2.687-3.547 2.687z"/></symbol><symbol id="aM" overflow="visible"><path d="M8.828 0h1.875v-4.219h2.375v-1.594h-2.375v-9.5h-2.11L.938-5.547v1.328h7.891zM3.125-5.813l4.14-5.234c.516-.734 1.094-1.484 1.563-2.219h.125c-.047.828-.094 1.86-.125 2.703v4.75z"/></symbol><symbol id="aN" overflow="visible"><path d="M2.36 3.64H9v-20.624H2.36v1.125h5.062V2.516H2.359z"/></symbol><symbol id="aV" overflow="visible"><path d="M8.094.281c2.031 0 3.719-.812 4.703-1.812v-6.625h-5V-6.5h3.14v4.094c-.593.578-1.624.937-2.734.937-3.094 0-4.844-2.484-4.844-6.453 0-3.906 1.938-6.36 4.89-6.36 1.516 0 2.454.626 3.22 1.438l1.125-1.265c-.875-.938-2.25-1.922-4.344-1.922-4.078 0-6.984 3.078-6.984 8.156 0 5.14 2.859 8.156 6.828 8.156z"/></symbol><symbol id="bu" overflow="visible"><path d="M2.64 0h2.454l1.53-6.344c.235-.953.392-1.86.548-2.828h.078c.14.969.328 1.875.578 2.828L9.359 0h2.5l2.297-15.766H12L10.89-5.86c-.14 1.297-.187 2.063-.28 3.625h-.094c-.297-1.562-.438-2.328-.766-3.625l-1.5-5.86H6.344L4.797-5.86a53.41 53.41 0 00-.766 3.625h-.078c-.062-1.562-.156-2.328-.312-3.64L2.5-15.766H.234z"/></symbol><symbol id="bv" overflow="visible"><path d="M2.234 4.922h1.97V.984l-.095-2.203h.063c1.031.953 2.406 1.5 3.484 1.5 2.813 0 5.297-2.328 5.297-6.28 0-3.626-1.672-5.954-4.812-5.954-1.438 0-2.953.75-4.031 1.781h-.08l-.171-1.484H2.235zm5.079-6.297c-.782 0-2.016-.375-3.11-1.36v-5.812c1.203-1.203 2.39-1.75 3.422-1.75 2.328 0 3.297 1.734 3.297 4.297 0 2.875-1.516 4.625-3.61 4.625z"/></symbol><symbol id="bw" overflow="visible"><path d="M6.14 0h2.22l4.812-11.656h-1.89l-2.688 6.61C8.109-3.86 7.734-2.72 7.313-1.61h-.094a99.962 99.962 0 00-1.313-3.438L3.22-11.656h-2z"/></symbol><symbol id="bx" overflow="visible"><path d="M1.39 0h1.97v-8.453c.578-1.188 1.109-1.797 1.921-1.797.86 0 1.203.703 1.203 2.047V0h1.813v-8.453c.625-1.188 1.062-1.797 1.875-1.797.875 0 1.25.703 1.25 2.047V0h1.969v-8.36c0-2.328-.953-3.593-2.594-3.593-1.344 0-2.063.765-2.734 2.015-.329-1.343-1.047-2.015-2.204-2.015-1.343 0-2.062.75-2.671 1.828H3.14l-.172-1.531H1.39z"/></symbol><symbol id="by" overflow="visible"><path d="M1.531 0h2.11l1.921-2.688c.485-.75.97-1.421 1.454-2.109h.093c.5.672 1.047 1.438 1.532 2.11L10.687 0h2.157l-4.47-5.875 4.157-5.781h-2.094l-1.75 2.515c-.406.641-.89 1.36-1.312 2.016h-.11a56.687 56.687 0 01-1.359-1.969l-1.844-2.562H1.875l4.093 5.61z"/></symbol><symbol id="bz" overflow="visible"><path d="M2.234 0h1.97v-8.14C5.562-9.548 6.5-10.25 7.89-10.25c1.922 0 2.687 1.063 2.687 3.266V0h1.969v-7.25c0-3.063-1.266-4.703-4.031-4.703-1.813 0-3.156.984-4.39 2.281H4.03l-.171-1.984H2.235z"/></symbol><symbol id="bA" overflow="visible"><path d="M8.297.281c1.734 0 3.344-.672 4.64-1.812l-.89-1.281c-.953.828-2.156 1.468-3.594 1.468-2.687 0-4.5-1.797-4.5-4.468 0-2.688 1.86-4.5 4.547-4.5 1.219 0 2.234.5 3.187 1.343l.985-1.28c-.953-.938-2.36-1.704-4.25-1.704-3.531 0-6.5 2.234-6.5 6.14 0 3.876 2.734 6.094 6.375 6.094z"/></symbol><symbol id="bB" overflow="visible"><path d="M2.734 0h2.547l1.297-5.563c.188-.828.375-1.968.578-3.468h.094c.188 1.5.375 2.64.578 3.469L9.172 0h2.547l2.484-11.656h-1.812L10.985-4.89c-.204 1.093-.329 2.109-.516 3.203h-.094c-.156-1.094-.469-2.11-.734-3.203l-1.39-6.047H6.28L4.844-4.89c-.266 1.078-.531 2.109-.672 3.203h-.094a45.595 45.595 0 00-.53-3.203l-1.392-6.766H.188z"/></symbol><symbol id="h" overflow="visible"><path d="M2.672 0h12.812v-3.594H6.953v-4.36h7v-3.562h-7v-3.797h8.25v-3.593H2.672z"/></symbol><symbol id="i" overflow="visible"><path d="M1.078 0h4.453l1.422-2.375c.438-.844.906-1.688 1.344-2.5h.11c.53.813 1.14 1.688 1.655 2.5L11.72 0h4.578l-4.985-6.984 4.703-7.407h-4.468l-1.282 2.329c-.375.78-.812 1.656-1.187 2.468h-.11c-.5-.812-1.077-1.656-1.515-2.469L5.969-14.39H1.39l4.672 6.907z"/></symbol><symbol id="j" overflow="visible"><path d="M6.5.344c1.86 0 3.656-.86 5.094-1.97h.125L12.03 0h3.485v-8.234c0-4.407-2.47-6.5-6.5-6.5-2.47 0-4.75.812-6.72 1.953l1.5 2.78c1.626-.812 2.985-1.343 4.376-1.343 1.953 0 2.937.781 3.078 2.094C4.437-8.844 1.766-7.22 1.766-4 1.766-1.563 3.594.344 6.5.344zm1.36-3.297c-1.22 0-2-.438-2-1.375 0-1.235 1.156-2.14 5.39-2.375v2.375c-1.016.797-2.11 1.375-3.39 1.375z"/></symbol><symbol id="k" overflow="visible"><path d="M1.016 0h4.062v-9.719c.375-.922.719-1.39 1.266-1.39.562 0 .812.437.812 1.312V0H10.5v-9.719c.406-.922.781-1.39 1.297-1.39.594 0 .797.437.797 1.312V0h4.047v-10.094c0-2.875-1.157-4.64-3.22-4.64-1.64 0-2.655 1.046-3.187 2.343-.343-1.531-1.25-2.344-2.484-2.344-1.656 0-2.594.954-3.11 2.125h-.109l-.297-1.78H1.016z"/></symbol><symbol id="l" overflow="visible"><path d="M2.094 5.344h4.25V1.125L6.14-1.219h.125C7.28-.203 8.53.344 9.796.344c3.22 0 6.235-2.844 6.235-7.766 0-4.437-2.172-7.312-5.765-7.312-1.532 0-3.125.75-4.297 1.796H5.89l-.328-1.453h-3.47zm6.719-8.469c-.72 0-1.657-.266-2.47-.969v-5.828c.907-.922 1.75-1.328 2.673-1.328 1.797 0 2.64 1.297 2.64 3.89 0 2.954-1.25 4.235-2.844 4.235z"/></symbol><symbol id="m" overflow="visible"><path d="M11.453.344c1.797 0 2.813-.281 4.328-.781l-.969-3.126c-.859.344-1.562.454-2.218.454-1.22 0-2.36-.578-2.36-2.344v-14.875H1.453v3.36h4.516v11.343c0 3.656 1.89 5.969 5.484 5.969z"/></symbol><symbol id="n" overflow="visible"><path d="M9.563.344c1.921 0 4.062-.64 5.718-1.672L13.86-3.922c-1.265.672-2.406 1.016-3.703 1.016-2.36 0-3.89-.922-4.297-3.016h9.797c.063-.344.203-1.125.203-1.906 0-3.922-2.343-6.906-6.78-6.906-3.86 0-7.485 2.812-7.485 7.547 0 4.78 3.484 7.53 7.969 7.53zm-.344-11.828c1.656 0 2.64.922 2.844 2.703H5.922c.422-1.797 1.625-2.703 3.297-2.703z"/></symbol><symbol id="o" overflow="visible"><path d="M8.703.344c4.484 0 7.594-3.422 7.594-9.89 0-6.313-3.11-9.704-7.594-9.704-4.5 0-7.594 3.39-7.594 9.703 0 6.469 3.094 9.89 7.594 9.89zm0-3.672c-1.969 0-3.219-2.125-3.219-6.219 0-3.906 1.25-6.031 3.22-6.031s3.218 2.125 3.218 6.031c0 4.094-1.25 6.219-3.219 6.219z"/></symbol><symbol id="p" overflow="visible"><path d="M3.36 0h4.265v-7.484c1.219-2.579 3.078-3.5 4.844-3.5 1.078 0 1.656.14 2.547.406l.875-3.578c-.844-.375-1.5-.578-2.782-.578-2.296 0-4.406 1.14-5.828 3.484h-.093l-.344-3.14H3.359z"/></symbol><symbol id="q" overflow="visible"><path d="M8.031 6.125c5.219 0 8.563-2.188 8.563-5.203 0-2.578-2.063-3.625-5.828-3.625H8.094c-1.688 0-2.438-.313-2.438-1.063 0-.5.203-.765.64-1.078a7.35 7.35 0 001.97.297c3.328 0 5.937-1.515 5.937-4.812 0-.735-.312-1.453-.625-1.89h2.89v-3.142h-5.827a7.916 7.916 0 00-2.375-.343c-3.25 0-6.157 1.765-6.157 5.219 0 1.687.844 2.984 1.891 3.687v.11c-1.016.703-1.703 1.75-1.703 2.703 0 1.218.625 1.968 1.437 2.468v.11C2.266.297 1.516 1.28 1.516 2.438c0 2.578 2.78 3.687 6.515 3.687zm.235-13.266c-1.188 0-2.141-.813-2.141-2.375 0-1.5.953-2.344 2.14-2.344s2.172.844 2.172 2.344c0 1.563-.984 2.375-2.171 2.375zM8.64 3.421c-2.266 0-3.657-.547-3.657-1.625 0-.516.297-.953 1.016-1.422.531.14 1.156.203 2.203.203H10c1.656 0 2.531.172 2.531 1.11 0 .984-1.594 1.734-3.89 1.734z"/></symbol><symbol id="r" overflow="visible"><path d="M3.047 0h4.265v-7.344h7.079v-3.594H7.312v-4.375h8.297v-3.593H3.047z"/></symbol><symbol id="s" overflow="visible"><path d="M8.063 0h4.265v-14.391H2.298v3.344h5.765zM10-16.641c1.656 0 2.844-1.016 2.844-2.594 0-1.562-1.188-2.656-2.844-2.656-1.64 0-2.844 1.094-2.844 2.656 0 1.578 1.203 2.594 2.844 2.594z"/></symbol><symbol id="H" overflow="visible"><path d="M5.516-2.734L9-6.984l3.484 4.25 1.922-1.313-2.922-4.719 4.594-2.03-.687-2.141-4.86 1.296-.36-5.343H7.829l-.36 5.343-4.859-1.297-.687 2.141 4.594 2.031-2.922 4.72z"/></symbol><symbol id="I" overflow="visible"><path d="M2.094 0h4.422v-7.047h2.297L12.563 0h4.953L13.11-7.828c2.078-.938 3.484-2.766 3.484-5.64 0-4.657-3.422-6.095-7.563-6.095H2.094zm4.422-10.562v-5.484h2.156c2.344 0 3.562.656 3.562 2.578s-1.218 2.906-3.562 2.906z"/></symbol><symbol id="J" overflow="visible"><path d="M9.906.36c1.969 0 4.188-.657 5.906-1.735l-1.468-2.672C13.016-3.359 11.844-3 10.5-3c-2.438 0-4.016-.953-4.438-3.125h10.141c.063-.36.203-1.172.203-1.969 0-4.062-2.421-7.14-7.015-7.14-3.985 0-7.735 2.906-7.735 7.796C1.656-2.484 5.25.36 9.906.36zm-.36-12.235c1.704 0 2.72.953 2.938 2.782h-6.36c.438-1.86 1.673-2.782 3.423-2.782z"/></symbol><symbol id="K" overflow="visible"><path d="M6.547 0h5.062l5.454-14.875h-4.22L10.5-7.859c-.484 1.5-.875 3.03-1.313 4.593h-.125c-.453-1.562-.875-3.093-1.359-4.593l-2.328-7.016H.937z"/></symbol><symbol id="L" overflow="visible"><path d="M6.719.36C8.64.36 10.5-.548 12-1.689h.125L12.453 0h3.594v-8.516c0-4.562-2.547-6.718-6.719-6.718-2.547 0-4.922.828-6.953 2l1.563 2.89c1.671-.844 3.078-1.39 4.515-1.39 2.016 0 3.031.812 3.188 2.171-7.047.407-9.813 2.094-9.813 5.422 0 2.516 1.89 4.5 4.89 4.5zm1.406-3.423c-1.25 0-2.063-.453-2.063-1.406 0-1.297 1.204-2.219 5.579-2.469v2.47c-1.047.812-2.188 1.405-3.516 1.405z"/></symbol><symbol id="M" overflow="visible"><path d="M1.047 0H5.25v-10.047c.39-.969.75-1.438 1.313-1.438.578 0 .843.438.843 1.344V0h3.453v-10.047c.422-.968.813-1.437 1.344-1.437.61 0 .813.437.813 1.344V0h4.203v-10.437c0-2.97-1.203-4.797-3.328-4.797-1.703 0-2.766 1.078-3.297 2.422-.36-1.594-1.297-2.422-2.578-2.422-1.72 0-2.672.984-3.22 2.187h-.109l-.312-1.828H1.047z"/></symbol><symbol id="N" overflow="visible"><path d="M2.156 5.516h4.406V1.172L6.36-1.266h.125C7.531-.203 8.812.36 10.14.36c3.329 0 6.454-2.937 6.454-8.047 0-4.578-2.25-7.547-5.97-7.547-1.593 0-3.25.782-4.437 1.86h-.093l-.329-1.5H2.156zm6.969-8.75c-.75 0-1.719-.282-2.563-1v-6.032c.938-.953 1.813-1.375 2.766-1.375 1.86 0 2.734 1.344 2.734 4.016 0 3.063-1.296 4.39-2.937 4.39z"/></symbol><symbol id="O" overflow="visible"><path d="M9 .36c3.938 0 7.594-2.844 7.594-7.798S12.938-15.234 9-15.234s-7.594 2.843-7.594 7.796S5.062.36 9 .36zm0-3.563c-2.047 0-3.063-1.656-3.063-4.235S6.954-11.672 9-11.672s3.063 1.656 3.063 4.234S11.046-3.203 9-3.203z"/></symbol><symbol id="P" overflow="visible"><path d="M3.484 0h4.407v-7.734c1.265-2.672 3.171-3.641 5.015-3.641 1.11 0 1.703.156 2.64.422l.891-3.688c-.875-.39-1.562-.593-2.875-.593-2.375 0-4.562 1.172-6.03 3.593h-.095l-.359-3.234H3.484z"/></symbol><symbol id="Q" overflow="visible"><path d="M8.313 6.328c5.39 0 8.843-2.25 8.843-5.375 0-2.656-2.125-3.75-6.03-3.75h-2.75c-1.75 0-2.532-.328-2.532-1.11 0-.5.219-.78.672-1.109a7.27 7.27 0 002.031.313c3.453 0 6.156-1.563 6.156-4.985 0-.75-.328-1.5-.656-1.953h3v-3.234h-6.031c-.719-.25-1.563-.36-2.47-.36-3.358 0-6.358 1.829-6.358 5.391 0 1.75.875 3.094 1.953 3.813v.125c-1.047.718-1.766 1.797-1.766 2.78 0 1.266.656 2.048 1.5 2.563v.11c-1.531.75-2.312 1.765-2.312 2.969 0 2.671 2.875 3.812 6.75 3.812zm.234-13.703c-1.235 0-2.219-.844-2.219-2.469 0-1.562.984-2.422 2.219-2.422s2.25.86 2.25 2.422c0 1.625-1.016 2.47-2.25 2.47zm.39 10.922c-2.343 0-3.78-.578-3.78-1.687 0-.547.296-.985 1.046-1.47.547.157 1.203.204 2.281.204h1.86c1.719 0 2.61.187 2.61 1.14 0 1.032-1.641 1.813-4.016 1.813z"/></symbol><symbol id="R" overflow="visible"><path d="M7.688.36c1.5 0 3.015-.813 4.125-1.891h.093L12.234 0h3.61v-21.031h-4.406v5.078l.203 2.297h-.125c-.985-1.016-2.094-1.578-3.75-1.578-3.235 0-6.36 2.937-6.36 7.797S3.906.36 7.687.36zm1.125-3.594c-1.829 0-2.876-1.329-2.876-4.266 0-2.813 1.375-4.14 3-4.14.876 0 1.688.265 2.5.984v6.031c-.78 1-1.624 1.39-2.624 1.39z"/></symbol><symbol id="S" overflow="visible"><path d="M9 .36c2.063 0 3.484-1.532 3.484-3.516 0-1.969-1.421-3.531-3.484-3.531s-3.484 1.562-3.484 3.53C5.516-1.171 6.937.36 9 .36z"/></symbol><symbol id="T" overflow="visible"><path d="M2.547 0h5.11l.78-4.828c.235-1.86.376-3.156.5-4.406h.126c.171 1.703.359 3.11.53 4.406L10.407 0h5.188l2.281-14.875h-4.078l-.844 6.89c-.14 1.47-.203 2.923-.406 4.423h-.125a81.54 81.54 0 00-.75-4.422l-.969-4.922H7.5l-.937 4.922c-.297 1.421-.5 2.921-.688 4.421h-.078c-.188-1.5-.313-2.953-.484-4.421l-.938-6.891H.125z"/></symbol><symbol id="U" overflow="visible"><path d="M10.141.36c3.328 0 6.453-2.938 6.453-8.063 0-4.563-2.281-7.531-6-7.531-1.437 0-2.969.625-4.078 1.703h-.094l.14-2.344v-5.156H2.158v21.03H5.61l.36-1.624h.124C7.313-.328 8.766.359 10.141.359zm-.984-3.594c-.782 0-1.75-.282-2.594-1v-6.032c.937-.953 1.812-1.375 2.765-1.375 1.86 0 2.735 1.344 2.735 4.016 0 3.062-1.297 4.39-2.906 4.39z"/></symbol><symbol id="V" overflow="visible"><path d="M8.875.36c4.781 0 7.328-2.094 7.328-4.798 0-2.437-1.266-3.718-5.86-4.765-2.515-.578-3.437-.75-3.437-1.594 0-.687.688-1.172 2.063-1.172 1.656 0 3.36.516 4.86 1.406l1.983-2.64c-1.562-.985-3.78-2.031-6.453-2.031-4.234 0-6.843 1.89-6.843 4.64 0 2.313 1.625 3.781 5.672 4.656 2.906.625 3.656.922 3.656 1.766 0 .719-.75 1.266-2.36 1.266-2.14 0-4.172-.641-6-1.782l-1.89 2.766C3.484-.656 6.204.359 8.874.359z"/></symbol><symbol id="W" overflow="visible"><path d="M8.344 0h4.406v-14.875H2.375v3.438h5.969zm2-17.219c1.719 0 2.953-1.047 2.953-2.672s-1.234-2.766-2.953-2.766c-1.703 0-2.938 1.141-2.938 2.766s1.235 2.672 2.938 2.672z"/></symbol><symbol id="X" overflow="visible"><path d="M11.641.36c1.984 0 3.547-.422 4.86-.813l-.782-3.172c-.906.297-1.828.531-2.937.531-2.188 0-3.157-.86-3.157-3.11v-5.234h6.313v-3.437H9.625v-4.563H6l-.562 4.563-3.969.172v3.265h3.75v5.25C5.22-2.28 6.907.36 11.641.36z"/></symbol><symbol id="bp" overflow="visible"><path d="M9.063.36c4.734 0 7.015-2.813 7.015-7.891v-12.031h-4.266v12.484c0 2.344-.89 3.625-2.75 3.625S6.329-4.734 6.329-7.078v-12.484H1.922v12.03c0 5.08 2.375 7.892 7.14 7.892z"/></symbol><symbol id="bq" overflow="visible"><path d="M1.734 0h3.672v-6.063c0-2.187-.36-6.953-.578-9.062h.094l1.406 5.219L7.86-5.187h2.157l1.5-4.72 1.5-5.218h.093c-.172 2.11-.562 6.875-.562 9.063V0h3.719v-19.562H11.64l-1.922 6.938-.657 2.687h-.125l-.656-2.688-1.922-6.937H1.734z"/></symbol><symbol id="br" overflow="visible"><path d="M2.156 0h4.406v-9.938c1.063-1.015 1.844-1.546 3.032-1.546 1.625 0 2.203.89 2.203 2.875V0h4.406v-9.188c0-3.75-1.5-6.046-4.86-6.046-2.218 0-3.843 1.078-5.14 2.328h-.11l-.328-1.97H2.156z"/></symbol><symbol id="bs" overflow="visible"><path d="M6.688.36c2.125 0 3.687-.985 5.015-2.485h.11L12.155 0h3.594v-14.875h-4.406v9.781C10.313-3.78 9.547-3.39 8.438-3.39c-1.657 0-2.172-.906-2.172-2.875v-8.61H1.86v9.173C1.86-1.952 3.297.36 6.688.36z"/></symbol><symbol id="bt" overflow="visible"><path d="M11.844.36c1.86 0 2.922-.297 4.469-.813l-.985-3.235c-.89.36-1.625.485-2.312.485-1.25 0-2.422-.61-2.422-2.438v-15.39H1.5v3.484h4.688v11.734c0 3.765 1.937 6.172 5.656 6.172z"/></symbol><symbol id="Y" overflow="visible"><path d="M.172 3.844h2.015l12.047-20.891h-2.046z"/></symbol><symbol id="Z" overflow="visible"><path d="M6.578.281c3.594 0 6.406-3.406 6.406-7.672 0-2.984-1.515-4.64-3.984-4.64-1.438 0-2.969.875-4.11 1.953h-.062l.64-2.563.891-4.375H4.156L.75 0h1.812l.47-1.422h.062c.703 1.016 2 1.704 3.484 1.704zm-.234-1.844c-1.063 0-2.047-.406-2.766-1.515l.985-4.938c1.156-1.39 2.562-2.156 3.671-2.156 1.485 0 2.47.985 2.47 3.094 0 3.047-1.923 5.516-4.36 5.516z"/></symbol><symbol id="aa" overflow="visible"><path d="M6.453.281c2.063 0 3.922-.734 5.14-1.703l-.796-1.484c-1.078.844-2.375 1.469-3.86 1.469-1.968 0-3.343-1.172-3.343-3.485v-.36h8.75c.109-.327.328-1.343.328-2.202 0-2.625-1.625-4.547-4.531-4.547-3.579 0-6.72 2.984-6.72 7.203 0 3.36 2.016 5.11 5.032 5.11zm1.594-10.547c1.578 0 2.562 1 2.562 2.703 0 .22-.03.438-.046.657H3.906c.72-2.125 2.5-3.36 4.14-3.36z"/></symbol><symbol id="ab" overflow="visible"><path d="M5.11.281c1.467 0 2.983-.781 4.17-2.015h.11L9.234 0h1.813l2.344-11.734H11.61l-.47 1.438h-.093c-.625-1.063-1.86-1.735-3.484-1.735-3.532 0-6.407 3.578-6.407 7.813 0 2.922 1.563 4.5 3.954 4.5zm.75-1.844c-1.485 0-2.423-.906-2.423-2.968 0-3 1.97-5.641 4.438-5.641.984 0 2.016.453 2.734 1.578l-1.03 4.89C8.405-2.28 7.015-1.562 5.858-1.562z"/></symbol><symbol id="ac" overflow="visible"><path d="M4.266.281C6.234.281 7.937-.953 9.28-2.28h.11L9.125 0h1.812l2.329-11.734h-2.22l-1.5 7.484c-1.451 1.657-2.92 2.641-4.358 2.641-1.078 0-1.688-.594-1.688-1.656 0-.485.094-.953.219-1.531l1.39-6.938H2.906L1.47-4.53a7.509 7.509 0 00-.22 1.875c0 1.813.954 2.938 3.016 2.938z"/></symbol><symbol id="ad" overflow="visible"><path d="M7.39.281c1.688 0 3.22-.453 4.22-1.094l-.688-1.593c-.797.484-1.828.843-2.938.843-1.234 0-2.03-.625-2.03-2.03 0-.313.015-.61.124-1.032l1.094-5.328h5.594l.36-1.781H7.562l.765-3.72H6.5l-1.047 3.72-3.468.125-.297 1.656h3.297L3.906-4.656c-.109.578-.187 1.031-.187 1.531 0 2.047 1.11 3.406 3.672 3.406z"/></symbol><symbol id="ae" overflow="visible"><path d="M.86 4.922c2.484 0 3.937-1.219 5.53-3.906l7.72-12.75h-2.282L8.203-5.547a138.91 138.91 0 00-1.937 3.61h-.094a111.32 111.32 0 00-.672-3.61l-1.375-6.187h-2.14L4.827.032l-.656 1.03c-.984 1.579-1.766 2.173-3.156 2.173-.516 0-1.047-.14-1.422-.328l-.672 1.562c.484.281 1.172.453 1.938.453z"/></symbol><symbol id="ah" overflow="visible"><path d="M4.422-2.188l2.781-3.406 2.781 3.407 1.532-1.047-2.329-3.782L12.86-8.64l-.547-1.703-3.89 1.032-.281-4.266H6.266l-.297 4.266-3.875-1.032L1.53-8.64l3.672 1.625-2.328 3.782z"/></symbol><symbol id="ai" overflow="visible"><path d="M.844 0h3.36v-8.047c.312-.766.593-1.14 1.046-1.14.469 0 .672.359.672 1.078V0h2.766v-8.047c.343-.766.656-1.14 1.078-1.14.484 0 .656.359.656 1.078V0h3.36v-8.36c0-2.374-.97-3.828-2.673-3.828-1.359 0-2.203.86-2.64 1.938-.281-1.266-1.031-1.938-2.063-1.938-1.36 0-2.14.782-2.562 1.75H3.75l-.25-1.468H.844z"/></symbol><symbol id="aj" overflow="visible"><path d="M5.36.281c1.702 0 2.937-.781 4-1.984h.093L9.72 0h2.875v-11.906H9.078v7.828c-.828 1.047-1.453 1.36-2.328 1.36-1.328 0-1.734-.72-1.734-2.297v-6.891H1.484v7.344c0 3 1.157 4.844 3.875 4.844z"/></symbol><symbol id="ak" overflow="visible"><path d="M7.11.281c3.812 0 5.843-1.672 5.843-3.828 0-1.953-1-2.984-4.672-3.828-2.015-.453-2.765-.594-2.765-1.266 0-.546.562-.937 1.656-.937 1.328 0 2.687.406 3.89 1.125l1.579-2.11c-1.235-.796-3.016-1.624-5.157-1.624-3.375 0-5.468 1.5-5.468 3.718 0 1.844 1.296 3.016 4.53 3.72 2.329.5 2.938.734 2.938 1.405 0 .578-.61 1.016-1.906 1.016-1.703 0-3.328-.5-4.797-1.422L1.266-1.531C2.78-.531 4.969.28 7.109.28z"/></symbol><symbol id="al" overflow="visible"><path d="M9.313.281c1.578 0 2.828-.328 3.89-.64l-.625-2.547c-.719.25-1.469.437-2.36.437-1.75 0-2.515-.703-2.515-2.5V-9.14h5.047v-2.765H7.703v-3.64H4.797l-.453 3.64-3.172.14v2.625h3v4.203c0 3.11 1.344 5.22 5.14 5.22z"/></symbol><symbol id="aW" overflow="visible"><path d="M4.797 3.64h7.11V1.782H7.483v-16.906h4.422v-1.86h-7.11z"/></symbol><symbol id="aX" overflow="visible"><path d="M5.11 0h3.53v-9.14h4.11v-2.766H8.64v-.328c0-1.453.72-2.094 2.235-2.094.906 0 1.75.172 2.5.453l.672-2.594c-1.016-.328-2.235-.64-3.61-.64-3.718 0-5.328 2.156-5.328 4.89v.313l-3.14.14v2.625h3.14z"/></symbol><symbol id="aY" overflow="visible"><path d="M6.672 0h3.531v-11.906H1.891v2.766h4.78zm1.61-13.781c1.359 0 2.343-.828 2.343-2.125s-.984-2.219-2.344-2.219c-1.375 0-2.36.922-2.36 2.219s.985 2.125 2.36 2.125z"/></symbol><symbol id="aZ" overflow="visible"><path d="M9.484.281c1.485 0 2.329-.234 3.579-.64l-.797-2.594c-.72.297-1.297.39-1.844.39-1.016 0-1.953-.484-1.953-1.953v-12.312H1.203v2.782h3.735v9.39C4.938-1.625 6.5.282 9.484.282z"/></symbol><symbol id="ba" overflow="visible"><path d="M7.922.281c1.578 0 3.36-.515 4.719-1.39l-1.172-2.125c-1.047.547-1.985.828-3.063.828-1.953 0-3.219-.766-3.562-2.485h8.11a8.3 8.3 0 00.171-1.593c0-3.235-1.937-5.704-5.61-5.704-3.202 0-6.202 2.329-6.202 6.235C1.313-1.984 4.203.28 7.922.28zM7.625-9.5c1.375 0 2.188.766 2.36 2.234H4.89C5.25-8.766 6.234-9.5 7.625-9.5z"/></symbol><symbol id="bb" overflow="visible"><path d="M7.203-7.469c1.656 0 2.781-1.219 2.781-2.797 0-1.593-1.125-2.843-2.78-2.843s-2.782 1.25-2.782 2.843c0 1.578 1.125 2.797 2.781 2.797zm0 7.75c1.656 0 2.781-1.219 2.781-2.797 0-1.593-1.125-2.843-2.78-2.843S4.421-4.11 4.421-2.516C4.422-.938 5.547.281 7.203.281z"/></symbol><symbol id="bc" overflow="visible"><path d="M3.438 4.656c3 0 4.406-1.531 5.562-4.531l4.703-12.031h-3.328l-1.766 5.11C8.25-5.61 7.844-4.39 7.531-3.22h-.093a50.489 50.489 0 00-1.204-3.578L4.25-11.906H.75L5.906-.312l-.25.625c-.375.937-1.125 1.562-2.484 1.562-.313 0-.625-.046-.938-.14L1.61 4.422c.5.141 1.125.235 1.828.235z"/></symbol><symbol id="bd" overflow="visible"><path d="M7.203.281c1.656 0 2.781-1.219 2.781-2.797 0-1.593-1.125-2.843-2.78-2.843S4.421-4.11 4.421-2.516C4.422-.938 5.547.281 7.203.281z"/></symbol><symbol id="be" overflow="visible"><path d="M8.234.281c1.625 0 3.454-.547 4.891-1.75l-1.406-2.234c-.875.61-1.906 1.14-3.156 1.14-1.97 0-3.329-1.328-3.329-3.39s1.407-3.39 3.454-3.39c.89 0 1.734.296 2.64.937l1.625-2.172c-1-.938-2.578-1.61-4.453-1.61-3.672 0-6.89 2.282-6.89 6.235C1.61-1.984 4.483.28 8.233.28z"/></symbol><symbol id="bf" overflow="visible"><path d="M2.5 3.64h7.094v-20.624H2.5v1.859h4.406V1.781H2.5z"/></symbol><symbol id="ap" overflow="visible"><path d="M5.156-2.547l3.25-3.984 3.235 3.984 1.796-1.234-2.718-4.39 4.297-1.907-.657-1.985-4.53 1.204-.345-4.985H7.312l-.343 4.985-4.531-1.204-.641 1.985 4.281 1.906-2.719 4.39z"/></symbol><symbol id="aq" overflow="visible"><path d="M1.953 0H7.25c5.063 0 8.547-2.938 8.547-9.219 0-6.265-3.484-9.031-8.797-9.031H1.953zM6.11-3.328v-11.594h.672c2.844 0 4.781 1.344 4.781 5.703 0 4.375-1.937 5.89-4.78 5.89z"/></symbol><symbol id="ar" overflow="visible"><path d="M8.406.344c4.328 0 7.328-3.313 7.328-9.563 0-6.094-3-9.375-7.328-9.375-4.344 0-7.344 3.281-7.344 9.375 0 6.25 3 9.563 7.344 9.563zm0-3.563c-1.906 0-3.11-2.047-3.11-6 0-3.765 1.204-5.812 3.11-5.812 1.89 0 3.11 2.047 3.11 5.812 0 3.953-1.22 6-3.11 6z"/></symbol><symbol id="as" overflow="visible"><path d="M1.844 0h3.953v-6.469c0-2.156-.39-4.594-.594-6.61h.11L6.89-9.093 10.719 0h4.234v-18.25H11v6.469c0 2.156.39 4.703.594 6.625h-.11L9.906-9.187 6.078-18.25H1.844z"/></symbol><symbol id="at" overflow="visible"><path d="M2.578 0h12.375v-3.469H6.72v-4.203h6.75v-3.437H6.72v-3.672h7.953v-3.47H2.578z"/></symbol><symbol id="au" overflow="visible"><path d="M1.625 0h3.422v-5.656c0-2.047-.344-6.5-.531-8.453h.078l1.312 4.875 1.438 4.39h2.015l1.391-4.39 1.406-4.875h.078c-.172 1.953-.531 6.406-.531 8.453V0h3.469v-18.25h-4.313l-1.78 6.469-.626 2.515h-.11l-.609-2.515-1.797-6.469H1.625z"/></symbol><symbol id="av" overflow="visible"><path d="M6.266.344c1.796 0 3.53-.844 4.937-1.906h.11L11.624 0h3.36v-7.953c0-4.25-2.391-6.266-6.282-6.266-2.375 0-4.594.782-6.484 1.875l1.453 2.688c1.562-.781 2.875-1.297 4.219-1.297 1.875 0 2.828.766 2.968 2.016-6.578.39-9.156 1.968-9.156 5.078C1.703-1.516 3.47.344 6.266.344zM7.594-2.86c-1.188 0-1.938-.422-1.938-1.313 0-1.203 1.125-2.078 5.203-2.297v2.297c-.968.75-2.047 1.313-3.265 1.313z"/></symbol><symbol id="aw" overflow="visible"><path d="M2.125 0H6.25v-3.5l2.031-2.188L11.921 0h4.454l-5.703-8.234 5.281-5.657h-4.5L6.359-8.28h-.11v-11.344H2.126z"/></symbol><symbol id="ax" overflow="visible"><path d="M9.234.344c1.86 0 3.922-.625 5.516-1.625l-1.36-2.5c-1.234.64-2.328.984-3.593.984-2.266 0-3.75-.906-4.14-2.922h9.468c.047-.328.188-1.078.188-1.844 0-3.78-2.266-6.656-6.547-6.656-3.72 0-7.22 2.703-7.22 7.281 0 4.61 3.36 7.282 7.688 7.282zm-.328-11.438c1.594 0 2.547.906 2.735 2.61H5.719c.406-1.735 1.562-2.61 3.187-2.61z"/></symbol><symbol id="ay" overflow="visible"><path d="M8.281.344c4.453 0 6.844-1.97 6.844-4.485 0-2.265-1.188-3.468-5.469-4.453-2.344-.531-3.219-.703-3.219-1.484 0-.64.641-1.094 1.938-1.094 1.531 0 3.14.469 4.531 1.313l1.844-2.454c-1.453-.937-3.516-1.906-6.016-1.906-3.953 0-6.375 1.766-6.375 4.328 0 2.157 1.5 3.532 5.282 4.344 2.718.594 3.421.875 3.421 1.656 0 .672-.703 1.172-2.218 1.172-1.985 0-3.891-.578-5.594-1.656L1.484-1.797C3.25-.609 5.797.343 8.281.343z"/></symbol><symbol id="az" overflow="visible"><path d="M9.61.344c1.906 0 4.03-.656 5.703-2.047l-1.657-2.61C12.656-3.609 11.453-3 10-3 7.703-3 6.11-4.531 6.11-6.938c0-2.421 1.64-3.953 4.03-3.953 1.032 0 2.016.328 3.079 1.094l1.906-2.547c-1.188-1.094-3.031-1.875-5.219-1.875-4.281 0-8.031 2.656-8.031 7.281 0 4.61 3.36 7.282 7.734 7.282z"/></symbol><symbol id="aA" overflow="visible"><path d="M3.25 0h4.11v-7.219c1.187-2.5 2.968-3.39 4.687-3.39 1.031 0 1.594.14 2.453.39l.844-3.437c-.813-.375-1.453-.563-2.688-.563-2.219 0-4.25 1.094-5.625 3.36h-.093l-.329-3.032H3.25z"/></symbol><symbol id="aB" overflow="visible"><path d="M2.016 0h4.109v-9.266c.984-.953 1.719-1.453 2.828-1.453C10.47-10.719 11-9.89 11-8.03V0h4.125v-8.562c0-3.5-1.406-5.657-4.547-5.657-2.062 0-3.578 1-4.781 2.172h-.11l-.312-1.844h-3.36z"/></symbol><symbol id="aC" overflow="visible"><path d="M2.016 0h4.109v-9.266c.984-.953 1.719-1.453 2.828-1.453C10.47-10.719 11-9.89 11-8.03V0h4.125v-8.562c0-3.5-1.406-5.657-4.516-5.657-2.093 0-3.578 1-4.625 2.063h-.078l.219-2.656v-4.813h-4.11z"/></symbol><symbol id="aD" overflow="visible"><path d="M8.406.344c3.656 0 7.078-2.672 7.078-7.281 0-4.625-3.422-7.282-7.078-7.282-3.672 0-7.094 2.657-7.094 7.282 0 4.609 3.422 7.28 7.094 7.28zm0-3.344C6.5-3 5.546-4.531 5.546-6.938c0-2.421.954-3.953 2.86-3.953 1.89 0 2.844 1.532 2.844 3.953C11.25-4.53 10.297-3 8.406-3z"/></symbol><symbol id="aE" overflow="visible"><path d="M10.859.344c1.86 0 3.313-.406 4.547-.766l-.734-2.969c-.844.282-1.704.5-2.75.5-2.032 0-2.938-.812-2.938-2.906v-4.875h5.89v-3.219h-5.89v-4.25h-3.39l-.532 4.25-3.687.172v3.047h3.5v4.906c0 3.64 1.562 6.11 5.984 6.11z"/></symbol><symbol id="aO" overflow="visible"><path d="M8.344.344c4.531 0 7.078-2.64 7.078-5.656 0-2.579-1.5-4.063-3.906-4.97l-2.22-.952c-1.765-.641-3-1.063-3-2.157 0-1.062.923-1.64 2.298-1.64 1.797 0 2.937.531 4.203 1.453l2.094-2.61c-1.64-1.562-3.86-2.406-6.078-2.406-3.938 0-6.688 2.407-6.688 5.438 0 2.656 1.844 4.219 3.89 4.984l2.36 1c1.734.735 2.828 1.063 2.828 2.36 0 .922-.812 1.593-2.578 1.593s-3.469-.78-4.844-1.906L1.406-2.297A10.516 10.516 0 008.344.343z"/></symbol><symbol id="aP" overflow="visible"><path d="M6.328 0h4.14v-14.781h5.47v-3.469H.874v3.469H6.33z"/></symbol><symbol id="aQ" overflow="visible"><path d="M1.953 0h4.125v-6.578h2.156L11.734 0h4.625l-4.125-7.313c1.938-.859 3.25-2.578 3.25-5.265 0-4.328-3.187-5.672-7.062-5.672H1.953zm4.125-9.86v-5.124h2.016c2.187 0 3.328.625 3.328 2.406 0 1.797-1.14 2.719-3.328 2.719z"/></symbol><symbol id="aR" overflow="visible"><path d="M4 5.438c3.5 0 5.156-1.797 6.5-5.297l5.484-14.031h-3.89l-2.047 5.968c-.422 1.375-.89 2.797-1.25 4.172h-.11c-.453-1.453-.906-2.86-1.406-4.172L4.953-13.89H.875L6.891-.36l-.282.72c-.453 1.093-1.312 1.827-2.906 1.827a3.72 3.72 0 01-1.094-.171l-.734 3.14A8.337 8.337 0 004 5.437z"/></symbol><symbol id="aS" overflow="visible"><path d="M11.062.344c1.734 0 2.719-.281 4.172-.766l-.922-3.015c-.844.328-1.516.437-2.156.437-1.188 0-2.266-.562-2.266-2.266v-14.359H1.406v3.25h4.36v10.938c0 3.532 1.827 5.782 5.296 5.782z"/></symbol><symbol id="aT" overflow="visible"><path d="M7.781 0h4.125v-13.891H2.22v3.219h5.56zm1.875-16.078c1.594 0 2.75-.969 2.75-2.484s-1.156-2.578-2.75-2.578-2.734 1.062-2.734 2.578 1.14 2.484 2.734 2.484z"/></symbol><symbol id="aU" overflow="visible"><path d="M9.969.344c2.469 0 4.5-.938 5.984-2.703l-2.265-2.485c-.891.985-1.985 1.625-3.297 1.625-2.75 0-4.657-2.187-4.657-5.937 0-3.672 1.907-5.875 4.485-5.875 1.344 0 2.328.531 3.187 1.312l2.282-2.547c-1.235-1.203-3.141-2.328-5.47-2.328-4.874 0-8.702 3.531-8.702 9.578 0 6.125 3.922 9.36 8.453 9.36z"/></symbol><symbol id="bg" overflow="visible"><path d="M.984 0h3.922v-9.375c.36-.906.688-1.344 1.22-1.344s.796.422.796 1.25V0h3.219v-9.375c.39-.906.75-1.344 1.25-1.344.562 0 .765.422.765 1.25V0h3.922v-9.75c0-2.766-1.125-4.469-3.11-4.469-1.593 0-2.577 1-3.077 2.266-.344-1.485-1.203-2.266-2.422-2.266-1.594 0-2.485.922-2.985 2.031h-.109l-.281-1.703H.984z"/></symbol><symbol id="bh" overflow="visible"><path d="M2.016 5.156h4.109V1.094l-.188-2.266h.11C7.03-.203 8.234.344 9.469.344c3.11 0 6.015-2.75 6.015-7.516 0-4.281-2.093-7.047-5.578-7.047-1.484 0-3.015.719-4.14 1.735h-.078l-.313-1.407h-3.36zm6.5-8.187c-.704 0-1.594-.25-2.391-.922v-5.625c.875-.89 1.687-1.281 2.578-1.281 1.734 0 2.547 1.25 2.547 3.75 0 2.859-1.203 4.078-2.734 4.078z"/></symbol><symbol id="bi" overflow="visible"><path d="M7.75 5.906c5.047 0 8.266-2.094 8.266-5.015 0-2.485-1.985-3.5-5.625-3.5H7.812c-1.625 0-2.359-.297-2.359-1.032 0-.468.203-.734.625-1.03.703.187 1.344.28 1.906.28 3.22 0 5.735-1.468 5.735-4.656 0-.703-.313-1.39-.61-1.812h2.797v-3.031h-5.625c-.672-.22-1.469-.329-2.297-.329-3.14 0-5.937 1.704-5.937 5.032 0 1.625.812 2.89 1.812 3.562v.11c-.968.671-1.64 1.671-1.64 2.609 0 1.172.61 1.89 1.39 2.375v.11C2.187.28 1.453 1.233 1.453 2.358c0 2.485 2.688 3.547 6.297 3.547zM7.984-6.89c-1.156 0-2.078-.781-2.078-2.297 0-1.453.922-2.265 2.078-2.265 1.141 0 2.094.812 2.094 2.265 0 1.516-.953 2.297-2.094 2.297zm.36 10.188c-2.188 0-3.531-.531-3.531-1.562 0-.5.28-.922.984-1.375.5.14 1.125.203 2.125.203h1.734c1.594 0 2.438.172 2.438 1.062 0 .953-1.531 1.672-3.75 1.672z"/></symbol><symbol id="bj" overflow="visible"><path d="M5.594 4.25h8.297V2.078H8.735V-17.64h5.156v-2.187H5.594z"/></symbol><symbol id="bk" overflow="visible"><path d="M1.625 0h13.359v-3.469H10.75c-.922 0-2.203.11-3.22.219 3.438-3.016 6.532-6.219 6.532-9.203 0-3.422-2.547-5.656-6.281-5.656-2.735 0-4.5.937-6.36 2.828l2.22 2.203c1-.953 2.155-1.813 3.577-1.813 1.86 0 2.922.953 2.922 2.688 0 2.547-3.422 5.562-8.515 9.844z"/></symbol><symbol id="bl" overflow="visible"><path d="M8.375.344c4.344 0 6.75-2.14 6.75-4.938 0-2.406-1.469-3.719-3.344-4.64v-.125c1.406-.891 2.563-2.235 2.563-3.89 0-2.938-2.281-4.86-5.828-4.86-3.532 0-6.047 1.875-6.047 4.89 0 1.875 1.11 3.172 2.593 4.203v.11c-1.843.89-3.359 2.187-3.359 4.375C1.703-1.656 4.25.344 8.375.344zM9.609-10.36c-2.078-.703-3.53-1.406-3.53-2.86 0-1.375 1.03-2.047 2.343-2.047 1.625 0 2.531.922 2.531 2.297 0 .922-.453 1.797-1.344 2.61zM8.484-2.515c-1.828 0-3.218-.922-3.218-2.5 0-1.141.718-2.094 1.734-2.829 2.547.954 4.281 1.485 4.281 3.11 0 1.484-1.14 2.219-2.797 2.219z"/></symbol><symbol id="bm" overflow="visible"><path d="M4.844-8.734c2.375 0 4.14-1.844 4.14-4.735 0-2.906-1.765-4.672-4.14-4.672s-4.14 1.766-4.14 4.672c0 2.89 1.765 4.735 4.14 4.735zm0-2.22c-.703 0-1.344-.609-1.344-2.515s.64-2.469 1.344-2.469 1.344.563 1.344 2.47-.641 2.515-1.344 2.515zM2.609-.78l4.532-5.58-1.422-1.312-5.22 4.844zm8.532-9.781l5.218-4.86-2.109-2.047-4.531 5.563zM11.953.344c2.39 0 4.14-1.86 4.14-4.735 0-2.922-1.75-4.687-4.14-4.687-2.375 0-4.14 1.765-4.14 4.687 0 2.875 1.765 4.735 4.14 4.735zm0-2.22c-.703 0-1.344-.609-1.344-2.515s.64-2.469 1.344-2.469 1.344.563 1.344 2.47-.64 2.515-1.344 2.515z"/></symbol><symbol id="bn" overflow="visible"><path d="M2.906 4.25h8.297v-24.078H2.906v2.188h5.156V2.079H2.906z"/></symbol><symbol id="bo" overflow="visible"><path d="M8.406.344c1.922 0 3.235-1.438 3.235-3.281S10.328-6.25 8.406-6.25c-1.937 0-3.25 1.469-3.25 3.313S6.47.343 8.406.343z"/></symbol></defs><g transform="translate(-2.423 -3.359)" fill="#383a42"><use x="8" y="29" width="100%" height="100%" xlink:href="#a"/><use x="22" y="29" width="100%" height="100%" xlink:href="#b"/><use x="36" y="29" width="100%" height="100%" xlink:href="#c"/><use x="50" y="29" width="100%" height="100%" xlink:href="#d"/><use x="64" y="29" width="100%" height="100%" xlink:href="#c"/><use x="78" y="29" width="100%" height="100%" xlink:href="#e"/><use x="92" y="29" width="100%" height="100%" xlink:href="#f"/><use x="106" y="29" width="100%" height="100%" xlink:href="#g"/></g><g transform="translate(-2.423 -3.359)" fill="#587e72"><use x="148" y="29" width="100%" height="100%" xlink:href="#h"/><use x="165" y="29" width="100%" height="100%" xlink:href="#i"/><use x="182" y="29" width="100%" height="100%" xlink:href="#j"/><use x="199" y="29" width="100%" height="100%" xlink:href="#k"/><use x="216" y="29" width="100%" height="100%" xlink:href="#l"/><use x="233" y="29" width="100%" height="100%" xlink:href="#m"/><use x="250" y="29" width="100%" height="100%" xlink:href="#n"/><use x="284" y="29" width="100%" height="100%" xlink:href="#o"/><use x="301" y="29" width="100%" height="100%" xlink:href="#p"/><use x="318" y="29" width="100%" height="100%" xlink:href="#q"/><use x="352" y="29" width="100%" height="100%" xlink:href="#r"/><use x="369" y="29" width="100%" height="100%" xlink:href="#s"/><use x="386" y="29" width="100%" height="100%" xlink:href="#m"/><use x="403" y="29" width="100%" height="100%" xlink:href="#n"/></g><g transform="translate(-2.423 -3.359)" fill="#383a42"><use x="8" y="61" width="100%" height="100%" xlink:href="#a"/><use x="22" y="61" width="100%" height="100%" xlink:href="#b"/><use x="36" y="61" width="100%" height="100%" xlink:href="#t"/><use x="50" y="61" width="100%" height="100%" xlink:href="#u"/><use x="64" y="61" width="100%" height="100%" xlink:href="#c"/><use x="78" y="61" width="100%" height="100%" xlink:href="#v"/><use x="92" y="61" width="100%" height="100%" xlink:href="#w"/><use x="106" y="61" width="100%" height="100%" xlink:href="#x"/><use x="120" y="61" width="100%" height="100%" xlink:href="#g"/></g><g transform="translate(-2.423 -3.359)" fill="#587e72"><use x="148" y="61" width="100%" height="100%" xlink:href="#y"/><use x="162" y="61" width="100%" height="100%" xlink:href="#z"/><use x="176" y="61" width="100%" height="100%" xlink:href="#A"/></g><g transform="translate(-2.423 -3.359)" fill="#383a42"><use x="8" y="92" width="100%" height="100%" xlink:href="#a"/><use x="22" y="92" width="100%" height="100%" xlink:href="#b"/><use x="36" y="92" width="100%" height="100%" xlink:href="#B"/><use x="50" y="92" width="100%" height="100%" xlink:href="#t"/><use x="64" y="92" width="100%" height="100%" xlink:href="#c"/><use x="78" y="92" width="100%" height="100%" xlink:href="#f"/><use x="92" y="92" width="100%" height="100%" xlink:href="#g"/></g><g transform="translate(-2.423 -3.359)" fill="#587e72"><use x="148" y="92" width="100%" height="100%" xlink:href="#C"/><use x="162" y="92" width="100%" height="100%" xlink:href="#D"/><use x="176" y="92" width="100%" height="100%" xlink:href="#C"/><use x="190" y="92" width="100%" height="100%" xlink:href="#D"/><use x="204" y="92" width="100%" height="100%" xlink:href="#E"/><use x="218" y="92" width="100%" height="100%" xlink:href="#D"/><use x="232" y="92" width="100%" height="100%" xlink:href="#F"/><use x="246" y="92" width="100%" height="100%" xlink:href="#E"/><use x="260" y="92" width="100%" height="100%" xlink:href="#D"/><use x="274" y="92" width="100%" height="100%" xlink:href="#G"/></g><g transform="translate(-2.423 -3.359)" fill="#7a9"><use x="8" y="160" width="100%" height="100%" xlink:href="#H"/><use x="44" y="160" width="100%" height="100%" xlink:href="#I"/><use x="62" y="160" width="100%" height="100%" xlink:href="#J"/><use x="80" y="160" width="100%" height="100%" xlink:href="#K"/><use x="98" y="160" width="100%" height="100%" xlink:href="#L"/><use x="116" y="160" width="100%" height="100%" xlink:href="#M"/><use x="134" y="160" width="100%" height="100%" xlink:href="#N"/><use x="170" y="160" width="100%" height="100%" xlink:href="#O"/><use x="188" y="160" width="100%" height="100%" xlink:href="#P"/><use x="206" y="160" width="100%" height="100%" xlink:href="#Q"/><use x="224" y="160" width="100%" height="100%" xlink:href="#M"/><use x="242" y="160" width="100%" height="100%" xlink:href="#O"/><use x="260" y="160" width="100%" height="100%" xlink:href="#R"/><use x="278" y="160" width="100%" height="100%" xlink:href="#J"/><use x="296" y="160" width="100%" height="100%" xlink:href="#S"/><use x="314" y="160" width="100%" height="100%" xlink:href="#O"/><use x="332" y="160" width="100%" height="100%" xlink:href="#P"/><use x="350" y="160" width="100%" height="100%" xlink:href="#Q"/><use x="386" y="160" width="100%" height="100%" xlink:href="#T"/><use x="404" y="160" width="100%" height="100%" xlink:href="#J"/><use x="422" y="160" width="100%" height="100%" xlink:href="#U"/><use x="440" y="160" width="100%" height="100%" xlink:href="#V"/><use x="458" y="160" width="100%" height="100%" xlink:href="#W"/><use x="476" y="160" width="100%" height="100%" xlink:href="#X"/><use x="494" y="160" width="100%" height="100%" xlink:href="#J"/></g><g transform="translate(-2.423 -3.359)" fill="#383a42"><use x="36" y="193" width="100%" height="100%" xlink:href="#y"/><use x="50" y="193" width="100%" height="100%" xlink:href="#v"/><use x="64" y="193" width="100%" height="100%" xlink:href="#f"/><use x="92" y="193" width="100%" height="100%" xlink:href="#Y"/><use x="106" y="193" width="100%" height="100%" xlink:href="#Z"/><use x="120" y="193" width="100%" height="100%" xlink:href="#aa"/><use x="134" y="193" width="100%" height="100%" xlink:href="#ab"/><use x="148" y="193" width="100%" height="100%" xlink:href="#ac"/><use x="162" y="193" width="100%" height="100%" xlink:href="#ad"/><use x="176" y="193" width="100%" height="100%" xlink:href="#ae"/><use x="190" y="193" width="100%" height="100%" xlink:href="#Y"/><use x="218" y="193" width="100%" height="100%" xlink:href="#w"/><use x="232" y="193" width="100%" height="100%" xlink:href="#af"/><use x="260" y="193" width="100%" height="100%" xlink:href="#w"/><use x="274" y="193" width="100%" height="100%" xlink:href="#x"/><use x="288" y="193" width="100%" height="100%" xlink:href="#ag"/><use x="316" y="193" width="100%" height="100%" xlink:href="#ah"/><use x="330" y="193" width="100%" height="100%" xlink:href="#ai"/><use x="344" y="193" width="100%" height="100%" xlink:href="#aj"/><use x="358" y="193" width="100%" height="100%" xlink:href="#ak"/><use x="372" y="193" width="100%" height="100%" xlink:href="#al"/><use x="386" y="193" width="100%" height="100%" xlink:href="#ah"/><use x="414" y="193" width="100%" height="100%" xlink:href="#am"/><use x="428" y="193" width="100%" height="100%" xlink:href="#f"/><use x="456" y="193" width="100%" height="100%" xlink:href="#an"/><use x="470" y="193" width="100%" height="100%" xlink:href="#v"/><use x="484" y="193" width="100%" height="100%" xlink:href="#t"/><use x="498" y="193" width="100%" height="100%" xlink:href="#x"/><use x="512" y="193" width="100%" height="100%" xlink:href="#f"/><use x="526" y="193" width="100%" height="100%" xlink:href="#B"/><use x="540" y="193" width="100%" height="100%" xlink:href="#ao"/></g><g transform="translate(-2.423 -3.359)" fill="#ab8867"><use x="22" y="259" width="100%" height="100%" xlink:href="#ap"/><use x="39" y="259" width="100%" height="100%" xlink:href="#ap"/></g><g transform="translate(-2.423 -3.359)" fill="#383a42"><use x="73" y="259" width="100%" height="100%" xlink:href="#aq"/><use x="90" y="259" width="100%" height="100%" xlink:href="#ar"/><use x="107" y="259" width="100%" height="100%" xlink:href="#as"/><use x="124" y="259" width="100%" height="100%" xlink:href="#at"/></g><g transform="translate(-2.423 -3.359)" fill="#383a42"><use x="158" y="259" width="100%" height="100%" xlink:href="#au"/><use x="175" y="259" width="100%" height="100%" xlink:href="#av"/><use x="192" y="259" width="100%" height="100%" xlink:href="#aw"/><use x="209" y="259" width="100%" height="100%" xlink:href="#ax"/><use x="243" y="259" width="100%" height="100%" xlink:href="#ay"/><use x="260" y="259" width="100%" height="100%" xlink:href="#az"/><use x="277" y="259" width="100%" height="100%" xlink:href="#aA"/><use x="294" y="259" width="100%" height="100%" xlink:href="#ax"/><use x="311" y="259" width="100%" height="100%" xlink:href="#ax"/><use x="328" y="259" width="100%" height="100%" xlink:href="#aB"/><use x="345" y="259" width="100%" height="100%" xlink:href="#ay"/><use x="362" y="259" width="100%" height="100%" xlink:href="#aC"/><use x="379" y="259" width="100%" height="100%" xlink:href="#aD"/><use x="396" y="259" width="100%" height="100%" xlink:href="#aE"/><use x="413" y="259" width="100%" height="100%" xlink:href="#ay"/></g><g transform="translate(-2.423 -3.359)" fill="#84888b"><use x="64" y="291" width="100%" height="100%" xlink:href="#A"/><use x="78" y="291" width="100%" height="100%" xlink:href="#aF"/><use x="92" y="291" width="100%" height="100%" xlink:href="#aG"/><use x="106" y="291" width="100%" height="100%" xlink:href="#aH"/><use x="120" y="291" width="100%" height="100%" xlink:href="#z"/><use x="134" y="291" width="100%" height="100%" xlink:href="#aI"/><use x="148" y="291" width="100%" height="100%" xlink:href="#g"/></g><g transform="translate(-2.423 -3.359)" fill="#ab8867"><use x="176" y="291" width="100%" height="100%" xlink:href="#aJ"/><use x="190" y="291" width="100%" height="100%" xlink:href="#C"/><use x="204" y="291" width="100%" height="100%" xlink:href="#D"/><use x="218" y="291" width="100%" height="100%" xlink:href="#C"/><use x="232" y="291" width="100%" height="100%" xlink:href="#D"/><use x="246" y="291" width="100%" height="100%" xlink:href="#E"/><use x="260" y="291" width="100%" height="100%" xlink:href="#D"/><use x="274" y="291" width="100%" height="100%" xlink:href="#F"/><use x="288" y="291" width="100%" height="100%" xlink:href="#E"/><use x="302" y="291" width="100%" height="100%" xlink:href="#D"/><use x="316" y="291" width="100%" height="100%" xlink:href="#G"/><use x="344" y="291" width="100%" height="100%" xlink:href="#y"/><use x="358" y="291" width="100%" height="100%" xlink:href="#v"/><use x="372" y="291" width="100%" height="100%" xlink:href="#u"/><use x="400" y="291" width="100%" height="100%" xlink:href="#aK"/><use x="414" y="291" width="100%" height="100%" xlink:href="#aL"/><use x="428" y="291" width="100%" height="100%" xlink:href="#g"/><use x="442" y="291" width="100%" height="100%" xlink:href="#C"/><use x="456" y="291" width="100%" height="100%" xlink:href="#aM"/><use x="470" y="291" width="100%" height="100%" xlink:href="#aN"/></g><g transform="translate(-2.423 -3.359)" fill="#ab8867"><use x="22" y="326" width="100%" height="100%" xlink:href="#ap"/><use x="39" y="326" width="100%" height="100%" xlink:href="#ap"/></g><g transform="translate(-2.423 -3.359)" fill="#9289ab"><use x="73" y="326" width="100%" height="100%" xlink:href="#aO"/><use x="90" y="326" width="100%" height="100%" xlink:href="#aP"/><use x="107" y="326" width="100%" height="100%" xlink:href="#aQ"/><use x="124" y="326" width="100%" height="100%" xlink:href="#aP"/></g><g transform="translate(-2.423 -3.359)" fill="#ab8867"><use x="158" y="326" width="100%" height="100%" xlink:href="#aQ"/><use x="175" y="326" width="100%" height="100%" xlink:href="#ax"/><use x="192" y="326" width="100%" height="100%" xlink:href="#ay"/><use x="209" y="326" width="100%" height="100%" xlink:href="#aE"/><use x="226" y="326" width="100%" height="100%" xlink:href="#aR"/><use x="243" y="326" width="100%" height="100%" xlink:href="#aS"/><use x="260" y="326" width="100%" height="100%" xlink:href="#ax"/><use x="294" y="326" width="100%" height="100%" xlink:href="#aO"/><use x="311" y="326" width="100%" height="100%" xlink:href="#aT"/><use x="328" y="326" width="100%" height="100%" xlink:href="#aE"/><use x="345" y="326" width="100%" height="100%" xlink:href="#ax"/><use x="379" y="326" width="100%" height="100%" xlink:href="#aU"/><use x="396" y="326" width="100%" height="100%" xlink:href="#aO"/><use x="413" y="326" width="100%" height="100%" xlink:href="#aO"/></g><g transform="translate(-2.423 -3.359)" fill="#383a42"><use x="64" y="358" width="100%" height="100%" xlink:href="#aV"/><use x="78" y="358" width="100%" height="100%" xlink:href="#w"/><use x="106" y="358" width="100%" height="100%" xlink:href="#c"/><use x="120" y="358" width="100%" height="100%" xlink:href="#v"/><use x="134" y="358" width="100%" height="100%" xlink:href="#x"/><use x="148" y="358" width="100%" height="100%" xlink:href="#w"/><use x="162" y="358" width="100%" height="100%" xlink:href="#u"/><use x="176" y="358" width="100%" height="100%" xlink:href="#ag"/><use x="190" y="358" width="100%" height="100%" xlink:href="#v"/></g><g transform="translate(-2.423 -3.359)" fill="#80a2ab"><use x="218" y="358" width="100%" height="100%" xlink:href="#aW"/><use x="232" y="358" width="100%" height="100%" xlink:href="#aW"/><use x="246" y="358" width="100%" height="100%" xlink:href="#aX"/><use x="260" y="358" width="100%" height="100%" xlink:href="#aY"/><use x="274" y="358" width="100%" height="100%" xlink:href="#aZ"/><use x="288" y="358" width="100%" height="100%" xlink:href="#ba"/><use x="302" y="358" width="100%" height="100%" xlink:href="#bb"/><use x="316" y="358" width="100%" height="100%" xlink:href="#ak"/><use x="330" y="358" width="100%" height="100%" xlink:href="#al"/><use x="344" y="358" width="100%" height="100%" xlink:href="#bc"/><use x="358" y="358" width="100%" height="100%" xlink:href="#aZ"/><use x="372" y="358" width="100%" height="100%" xlink:href="#ba"/><use x="386" y="358" width="100%" height="100%" xlink:href="#bd"/><use x="400" y="358" width="100%" height="100%" xlink:href="#ak"/><use x="414" y="358" width="100%" height="100%" xlink:href="#be"/><use x="428" y="358" width="100%" height="100%" xlink:href="#ak"/><use x="442" y="358" width="100%" height="100%" xlink:href="#ak"/><use x="456" y="358" width="100%" height="100%" xlink:href="#bf"/><use x="470" y="358" width="100%" height="100%" xlink:href="#aW"/><use x="484" y="358" width="100%" height="100%" xlink:href="#ak"/><use x="498" y="358" width="100%" height="100%" xlink:href="#al"/><use x="512" y="358" width="100%" height="100%" xlink:href="#bc"/><use x="526" y="358" width="100%" height="100%" xlink:href="#aZ"/><use x="540" y="358" width="100%" height="100%" xlink:href="#ba"/><use x="554" y="358" width="100%" height="100%" xlink:href="#bf"/><use x="568" y="358" width="100%" height="100%" xlink:href="#bf"/></g><path d="M215.58 360.64h364v1h-364z" fill="#80a2ab"/><g transform="translate(-2.423 -3.359)" fill="#ab8867"><use x="22" y="393" width="100%" height="100%" xlink:href="#ap"/><use x="39" y="393" width="100%" height="100%" xlink:href="#ap"/></g><g transform="translate(-2.423 -3.359)" fill="#6fab75"><use x="73" y="393" width="100%" height="100%" xlink:href="#aP"/><use x="90" y="393" width="100%" height="100%" xlink:href="#ar"/><use x="107" y="393" width="100%" height="100%" xlink:href="#aq"/><use x="124" y="393" width="100%" height="100%" xlink:href="#ar"/></g><g transform="translate(-2.423 -3.359)" fill="#ab8867"><use x="158" y="393" width="100%" height="100%" xlink:href="#aU"/><use x="175" y="393" width="100%" height="100%" xlink:href="#aC"/><use x="192" y="393" width="100%" height="100%" xlink:href="#ax"/><use x="209" y="393" width="100%" height="100%" xlink:href="#az"/><use x="226" y="393" width="100%" height="100%" xlink:href="#aw"/><use x="260" y="393" width="100%" height="100%" xlink:href="#aU"/><use x="277" y="393" width="100%" height="100%" xlink:href="#aO"/><use x="294" y="393" width="100%" height="100%" xlink:href="#aO"/><use x="328" y="393" width="100%" height="100%" xlink:href="#aD"/><use x="345" y="393" width="100%" height="100%" xlink:href="#aB"/><use x="379" y="393" width="100%" height="100%" xlink:href="#bg"/><use x="396" y="393" width="100%" height="100%" xlink:href="#av"/><use x="413" y="393" width="100%" height="100%" xlink:href="#aT"/><use x="430" y="393" width="100%" height="100%" xlink:href="#aB"/><use x="464" y="393" width="100%" height="100%" xlink:href="#bh"/><use x="481" y="393" width="100%" height="100%" xlink:href="#av"/><use x="498" y="393" width="100%" height="100%" xlink:href="#bi"/><use x="515" y="393" width="100%" height="100%" xlink:href="#ax"/><use x="532" y="393" width="100%" height="100%" xlink:href="#ay"/></g><g transform="translate(-2.423 -3.359)" fill="#6fab75"><use x="566" y="393" width="100%" height="100%" xlink:href="#bj"/><use x="583" y="393" width="100%" height="100%" xlink:href="#bk"/><use x="600" y="393" width="100%" height="100%" xlink:href="#bl"/><use x="617" y="393" width="100%" height="100%" xlink:href="#bm"/><use x="634" y="393" width="100%" height="100%" xlink:href="#bn"/></g><g transform="translate(-2.423 -3.359)" fill="#6fab75"><use x="651" y="393" width="100%" height="100%" xlink:href="#bo"/><use x="668" y="393" width="100%" height="100%" xlink:href="#bo"/><use x="685" y="393" width="100%" height="100%" xlink:href="#bo"/></g><g transform="translate(-2.423 -3.359)" fill="#7a9"><use x="8" y="462" width="100%" height="100%" xlink:href="#H"/><use x="44" y="462" width="100%" height="100%" xlink:href="#bp"/><use x="62" y="462" width="100%" height="100%" xlink:href="#N"/><use x="80" y="462" width="100%" height="100%" xlink:href="#R"/><use x="98" y="462" width="100%" height="100%" xlink:href="#L"/><use x="116" y="462" width="100%" height="100%" xlink:href="#X"/><use x="134" y="462" width="100%" height="100%" xlink:href="#J"/><use x="170" y="462" width="100%" height="100%" xlink:href="#bq"/><use x="188" y="462" width="100%" height="100%" xlink:href="#L"/><use x="206" y="462" width="100%" height="100%" xlink:href="#br"/><use x="224" y="462" width="100%" height="100%" xlink:href="#bs"/><use x="242" y="462" width="100%" height="100%" xlink:href="#L"/><use x="260" y="462" width="100%" height="100%" xlink:href="#bt"/></g><g transform="translate(-2.423 -3.359)" fill="#383a42"><use x="36" y="495" width="100%" height="100%" xlink:href="#bu"/><use x="50" y="495" width="100%" height="100%" xlink:href="#f"/><use x="78" y="495" width="100%" height="100%" xlink:href="#an"/><use x="92" y="495" width="100%" height="100%" xlink:href="#v"/><use x="106" y="495" width="100%" height="100%" xlink:href="#w"/><use x="120" y="495" width="100%" height="100%" xlink:href="#u"/><use x="134" y="495" width="100%" height="100%" xlink:href="#e"/><use x="148" y="495" width="100%" height="100%" xlink:href="#B"/><use x="176" y="495" width="100%" height="100%" xlink:href="#bv"/><use x="190" y="495" width="100%" height="100%" xlink:href="#x"/><use x="204" y="495" width="100%" height="100%" xlink:href="#w"/><use x="218" y="495" width="100%" height="100%" xlink:href="#bw"/><use x="232" y="495" width="100%" height="100%" xlink:href="#d"/><use x="246" y="495" width="100%" height="100%" xlink:href="#B"/><use x="260" y="495" width="100%" height="100%" xlink:href="#f"/><use x="288" y="495" width="100%" height="100%" xlink:href="#t"/><use x="316" y="495" width="100%" height="100%" xlink:href="#an"/><use x="330" y="495" width="100%" height="100%" xlink:href="#d"/><use x="344" y="495" width="100%" height="100%" xlink:href="#bx"/><use x="358" y="495" width="100%" height="100%" xlink:href="#bv"/><use x="372" y="495" width="100%" height="100%" xlink:href="#e"/><use x="386" y="495" width="100%" height="100%" xlink:href="#f"/><use x="400" y="495" width="100%" height="100%" xlink:href="#x"/><use x="428" y="495" width="100%" height="100%" xlink:href="#f"/><use x="442" y="495" width="100%" height="100%" xlink:href="#by"/><use x="456" y="495" width="100%" height="100%" xlink:href="#bv"/><use x="470" y="495" width="100%" height="100%" xlink:href="#f"/><use x="484" y="495" width="100%" height="100%" xlink:href="#x"/><use x="498" y="495" width="100%" height="100%" xlink:href="#d"/><use x="512" y="495" width="100%" height="100%" xlink:href="#f"/><use x="526" y="495" width="100%" height="100%" xlink:href="#bz"/><use x="540" y="495" width="100%" height="100%" xlink:href="#bA"/><use x="554" y="495" width="100%" height="100%" xlink:href="#f"/><use x="582" y="495" width="100%" height="100%" xlink:href="#af"/><use x="596" y="495" width="100%" height="100%" xlink:href="#w"/><use x="610" y="495" width="100%" height="100%" xlink:href="#x"/><use x="638" y="495" width="100%" height="100%" xlink:href="#bz"/><use x="652" y="495" width="100%" height="100%" xlink:href="#f"/><use x="666" y="495" width="100%" height="100%" xlink:href="#bB"/><use x="694" y="495" width="100%" height="100%" xlink:href="#u"/><use x="708" y="495" width="100%" height="100%" xlink:href="#an"/><use x="722" y="495" width="100%" height="100%" xlink:href="#f"/><use x="736" y="495" width="100%" height="100%" xlink:href="#x"/><use x="750" y="495" width="100%" height="100%" xlink:href="#an"/><use x="764" y="495" width="100%" height="100%" xlink:href="#ao"/></g></svg>
