<?xml version="1.0" encoding="UTF-8" standalone="no"?>
<!-- Created with Inkscape (http://www.inkscape.org/) -->

<svg
   xmlns:dc="http://purl.org/dc/elements/1.1/"
   xmlns:cc="http://creativecommons.org/ns#"
   xmlns:rdf="http://www.w3.org/1999/02/22-rdf-syntax-ns#"
   xmlns:svg="http://www.w3.org/2000/svg"
   xmlns="http://www.w3.org/2000/svg"
   xmlns:sodipodi="http://sodipodi.sourceforge.net/DTD/sodipodi-0.dtd"
   xmlns:inkscape="http://www.inkscape.org/namespaces/inkscape"
   id="svg3004"
   version="1.1"
   inkscape:version="0.48.4 r9939"
   width="885.9025"
   height="885.9"
   xml:space="preserve"
   sodipodi:docname="Licorne_def.ai"><metadata
     id="metadata3010"><rdf:RDF><cc:Work
         rdf:about=""><dc:format>image/svg+xml</dc:format><dc:type
           rdf:resource="http://purl.org/dc/dcmitype/StillImage" /><dc:title></dc:title></cc:Work></rdf:RDF></metadata><defs
     id="defs3008"><clipPath
       clipPathUnits="userSpaceOnUse"
       id="clipPath3018"><path
         d="m 0,977.953 1388.976,0 L 1388.976,0 0,0 0,977.953 z"
         id="path3020" /></clipPath></defs><sodipodi:namedview
     pagecolor="#ffffff"
     bordercolor="#666666"
     borderopacity="1"
     objecttolerance="10"
     gridtolerance="10"
     guidetolerance="10"
     inkscape:pageopacity="0"
     inkscape:pageshadow="2"
     inkscape:window-width="1366"
     inkscape:window-height="768"
     id="namedview3006"
     showgrid="false"
     inkscape:zoom="0.6580878"
     inkscape:cx="442.95126"
     inkscape:cy="442.95001"
     inkscape:window-x="0"
     inkscape:window-y="0"
     inkscape:window-maximized="0"
     inkscape:current-layer="g3012" /><g
     id="g3012"
     inkscape:groupmode="layer"
     inkscape:label="Licorne_def"
     transform="matrix(1.25,0,0,-1.25,-425.16,1054.17)"><g
       id="g3014"><g
         id="g3016"
         clip-path="url(#clipPath3018)"><path
           d="m 748.603,646.16 c 0.869,1.096 163.675,85.526 246.132,126.715 0.793,-0.708 -138.824,-89.989 -206.752,-133.702 -4.964,-5.833 -58.609,-2.504 -39.38,6.987"
           style="fill:#222222;fill-opacity:1;fill-rule:evenodd;stroke:none"
           id="path3022" /><path
           d="m 710.938,714.24 1.27,0 c 1.406,-4.816 0.902,-10.714 1.589,-15.879 0.72,-5.417 1.581,-10.132 3.175,-14.292 10.457,-4.362 20.375,-9.264 33.347,-11.116 1.053,9.129 7.895,12.946 14.606,17.468 4.133,2.783 8.254,6.384 12.707,6.986 -0.84,-14.05 -3.858,-25.968 0.633,-37.792 2.861,-7.521 4.902,-13.336 9.211,-19.372 2.007,-2.815 4.433,-6.014 6.668,-7.623 2.414,-1.735 5.705,-2.638 8.257,-4.128 2.575,-1.502 4.756,-3.021 7.303,-4.764 6.981,-11.171 8.477,-25.854 13.975,-37.792 1.498,-3.253 4.238,-6.074 6.67,-9.211 4.119,-5.31 7.908,-8.631 13.339,-12.385 9.469,-2.761 18.297,-6.974 27.313,-10.798 8.568,-3.634 15.41,-9.142 25.088,-13.02 2.666,-1.07 5.531,-2.915 8.574,-4.128 3.147,-1.257 6.797,-3.377 9.215,-3.494 3.81,-0.188 11.226,3.521 14.92,4.763 5.264,1.767 8.486,4.763 14.928,4.763 6.441,0 5.586,-3.746 4.763,-9.526 -0.822,-5.78 -9.468,-27.757 -13.972,-42.875 -2.936,-9.841 -6.5,-17.543 -20.639,-15.879 -15.859,1.868 -32.356,8.137 -49.231,6.034 6.86,-8.412 26.985,-6.625 38.112,-12.067 5.822,-2.849 6.644,-11.168 0.316,-14.609 -8.137,-4.424 -23.474,-1.44 -32.074,-0.318 -8.887,1.158 -18.631,3.005 -26.68,5.718 -8.154,2.746 -15.379,7.25 -22.549,10.797 -7.744,3.83 -15.216,7.518 -20.64,12.385 -14.031,5.025 -29.051,9.058 -39.697,17.467 -24.516,-1.671 -56.258,-3.113 -70.505,8.574 -6.678,-6.962 -11.756,-15.611 -17.787,-23.818 -6.172,-8.407 -12.756,-15.36 -14.606,-26.993 -1.12,-7.045 -1.005,-16.584 0,-22.867 2.335,-14.58 5.975,-30.293 11.751,-40.334 3.604,-6.26 7.941,-12.318 12.382,-18.101 40.968,-53.307 26.729,-131.526 25.409,-140.055 -1.315,-8.521 -3.213,-16.617 -6.987,-23.498 4.684,28.426 -25.874,52.326 -31.758,57.162 -60.821,49.996 -163.233,94.234 -163.233,94.234 0,0 -44.164,30.893 -60.664,54.077 -18.927,26.595 -32.167,58.203 -34.933,102.898 l 0,13.021 c 5.05,71.797 38.235,120.776 85.429,150.535 23.668,14.921 54.704,25.948 91.465,26.675 37.769,0.748 66.982,-11.763 92.1,-26.042 8.183,12.035 17.348,23.094 31.44,29.219"
           style="fill:#3d696a;fill-opacity:1;fill-rule:evenodd;stroke:none"
           id="path3024" /><path
           d="m 679.688,685.076 c 0,0 -192.689,-17.791 -48.245,-186.342 0,0 -69.111,-0.276 -94.925,65.253 0,0 -37.027,-48.436 67.996,-141.943 0,0 -92.283,-18.782 -129.338,59.254 0,0 -16.177,-44.013 43.027,-123.144 0,0 -190.339,90.613 -79.303,269.069 0,0 84.766,147.395 240.788,57.853"
           style="fill:#923a2d;fill-opacity:1;fill-rule:evenodd;stroke:none"
           id="path3026" /><path
           d="m 765.666,584.329 c 0,5.617 3.069,10.508 7.615,13.117 -19.777,14.855 -49.364,34.29 -49.364,34.29 -21.583,-22.801 -5,-52.95 -5,-52.95 0,0 60.833,-13.5 63.333,-13.107 1.235,0.194 3.793,2.361 5.817,5.391 -2.159,-1.188 -4.637,-1.866 -7.276,-1.866 -8.353,0 -15.125,6.771 -15.125,15.125"
           style="fill:#fffefe;fill-opacity:1;fill-rule:nonzero;stroke:none"
           id="path3028" /><path
           d="m 790.617,581.903 c -0.663,2.383 -7.88,8.44 -17.336,15.543 -4.546,-2.609 -7.615,-7.5 -7.615,-13.117 0,-8.354 6.772,-15.125 15.125,-15.125 2.639,0 5.117,0.678 7.276,1.866 2.073,3.101 3.587,7.107 2.55,10.833"
           style="fill:#232323;fill-opacity:1;fill-rule:nonzero;stroke:none"
           id="path3030" /><path
           d="m 716.955,683.791 56.731,-14.6 c 0,0 -33.206,3.191 -39.012,1.781 0,0 32.894,-12.896 36.55,-16.779 0,0 -30.873,9.696 -47.785,7.99 -16.911,-1.706 -6.484,21.608 -6.484,21.608"
           style="fill:#923a2d;fill-opacity:1;fill-rule:evenodd;stroke:none"
           id="path3032" /></g></g></g></svg>