<svg xmlns="http://www.w3.org/2000/svg" width="332.769" height="366.92" viewBox="0 0 88.045 97.081"><path d="M86.53 35.933c-.128-1.954-1.763-2.708-3.717-1.318-4.476-.804-8.87-.426-11.037-.608-4.751-.666-8.707-3.18-8.707-3.18.578-.768.302-2.429-3.409-2.543-1.02-.336-2.069-.823-3.059-1.227.338-.71-.082-1.759-.082-1.759 1.51-.416 1.74-2.382 1.146-3.54 1.926.052 1.62-2.925 1.353-3.957 1.51-.572 1.719-2.375 1.093-3.8 1.822-.416 1.874-2.551 1.719-4.06 1.874-.105 1.614-3.384 1.614-4.061 1.615-1.041 1.25-2.447 1.504-4.076.995-2.015-.358-2.588-1.313-.44-1.023 1.86-2.337 2.673-2.325 4.048.468.78-3.488 1.926-2.238 4.372-.886 1.094-2.968 2.5-2.228 4.175-.376.823-3.03 2.75-1.885 4.571-2.499 1.666-2.35 2.068-1.822 3.592-.711.457-1.438 1.155-1.857 1.919-.818-.973-1.614-2.747-1.603-5.143 0-2.031-3.782.197-3.782 4.206 0 .345-.035.658-.083.957-1.309.15-2.946.438-5.01.926-.066.045-.098.115-.113.196-.082-.3-.144-.62-.172-.963-.361-2.35-3.06-5.928-4.376-1.51-.68 1.62-1.08 2.724-1.312 3.59 0 0-.208.14-.593.379-1.624 1.005-2.209 4.145-8.108 6.128-1.99.669-4.588 1.206-8.035 1.485C12.158 34.772.8 45.028.039 54.815c-.176 2.458.192 8.518 2.23 13.834l.003.012.03.076c.032.083.063.166.096.247.174.445.36.871.555 1.279 1.17 2.497 2.766 4.706 4.92 6.127 1.094.853 2.072 1.4 2.711 1.713 3.663 6.045 11.436 13.798 26.09 9.214 22.481-6.377 34.888 8.562 36.317 9.611 2.108 2.129-5.448-18.5-21.447-27.772-9.458-5.16-3.52-14.049-2.843-17.188 0 0 7.582 5.306 13.076-2.803 4.963 1.279 8.289-.906 12.557.639 2.594 1.137 13.5.45 9.447-5.645 2.548-1.664 2.817-1.126 4.092-3.659.685-3.07-.87-3.728-1.343-4.567zm-43.588-8.247c-.025.011-.053.025-.078.035.025-.021.047-.039.072-.063l.006.028zm-8.317 2.805l-.132.754c.023-.516.053-1.063.089-1.64.015.269.031.56.043.886zm6.63-3.927c.463.697 1.03 1.351 1.03 1.351s-.542-.49-1.03-1.351z" fill="#a04d32"/><path d="M7.81 72.013s6.213 22.388 28.864 15.304c22.48-6.377 34.887 8.562 36.317 9.611 2.107 2.129-5.448-18.5-21.447-27.772-9.458-5.16-3.521-14.049-2.843-17.188 0 0 7.581 5.306 13.075-2.803 4.964 1.279 8.29-.906 12.558.639 2.594 1.137 13.499.45 9.446-5.645 2.549-1.664 2.818-1.126 4.093-3.659.685-3.07-.87-3.727-1.343-4.567-.128-1.954-1.763-2.708-3.717-1.318-4.476-.804-8.87-.426-11.037-.608-4.751-.666-8.707-3.18-8.707-3.18.578-.768.302-2.429-3.409-2.543-2.038-.671-4.187-1.945-5.76-1.96-1.591 0-1.806-1.574-1.806-1.574-.996-.54-2.433-2.636-2.418-5.852 0-2.031-3.782.197-3.782 4.206 0 4.01-3.607 4.811-3.607 4.811s-1.581-1.414-1.77-3.694c-.362-2.35-3.06-5.928-4.377-1.51-2 4.741-2.16 5.848-2.551 8.157-.813 4.781-.214 4.968-.214 4.968L13.02 50.365z" fill="#7a9"/><path d="M55.967 33.927c.96-.348.555-.257.714-.36-1.835.357-5.974.38-8.878-.702.243.142 1.593.596 1.765.699.135.443.062.892 1.818 1.68 1.586.492 3.624.286 4.238-.328.068-1.044.078-.66.343-.989z" stroke-linejoin="round" stroke-linecap="round" stroke-width=".4650675" stroke="#314b49" fill="#314b49"/><path d="M76.038 45.8c-1.754-1.293-3.027-.164-4.012-.257.614-.4 2.333-1.278 5.113-1.278 1.57 0 2.405 1.362 3.454 1.368.707.005 2.773-1.06 3.187-1.474-.6.52.282 1.088-.303 1.862-.175.223-.52.937-1.651 1.272-1.272.602-3.356 1.092-5.788-1.493z" stroke-width=".310045" stroke="#314b49" fill="#314b49"/><path d="M37.873 22.27s-2.08 4.958.194 9.505c2.274 4.547.324-4.235 2.907-2.58 2.106.238-1.48-1.994-1.26-4.85-.11-1.792-1.098-3.22-1.84-2.075zM77.81 38.63c0 .695-.846 1.259-1.889 1.259 2.216-.695-.124-2.885-1.888-1.259 0-.695.845-1.259 1.888-1.259s1.888.564 1.888 1.26z" fill="#314b49"/><path d="M74.605 37.028c2.34-.143 3.93.2 3.433 1.946.34-.699.801-1.755-.648-2.175-1.083-.24-2.046-.234-2.785.229z" fill="#314b49"/><path d="M40.972 50.298c0-2.183-.936-4.443-4.365-9.042a12.64 12.64 0 01-1.992-3.891c-.868-2.044-2.124-4.973-.38-10.686 0 0 .385-.239 0 0-1.624 1.005-2.208 4.145-8.107 6.128-1.991.669-4.589 1.206-8.036 1.485C12.158 34.772.8 45.028.039 54.815c-.176 2.458.192 8.518 2.23 13.834l.003.012.03.076c.032.083.063.166.096.247.174.445.36.871.555 1.279 1.17 2.497 2.766 4.706 4.92 6.127 1.912 1.49 3.476 2.05 3.476 2.05-1.605-2.218-2.337-4.689-1.403-7.64.404 1.636 1.18 2.582 2.26 2.963-.38-1.168-.512-2.2 0-2.884 1.593 4.176 3.32 5.6 5.068 6.626-1.632-3.047-2.5-6.204-2.339-9.51 1.593 3.738 4.09 6.167 6.548 8.653-2.344-3.7-4.285-7.506-4.326-11.81 1.05 1.722 2.44 3.058 4.093 4.093-1.044-1.68-1.554-3.417-1.404-5.223 2.744 3.066 5.805 4.096 8.887 4.989-3.222-2.248-6.103-4.674-7.64-7.796 1.844.908 3.69 1.05 5.536.858-2.298-1.161-3.143-3.257-3.586-5.613 3.21 3.273 6.565 5.473 9.978 7.25-3.384-3.262-5.878-6.604-7.172-10.057 1.302.732 2.577 1.077 3.82.936-1.716-1.937-2.15-3.834-2.612-5.73 1.635 2.428 3.075 3.734 4.405 4.404-1.358-2.78-1.262-5.228-.312-7.483 1.565 1.039 3.04 2.663 4.288 5.769.453-1.48-.278-3.947-1.17-6.549 1.349.386 2.964 2.078 5.067 6.16-.205-2.397-1.326-4.822-2.572-7.25 1.877 2.176 4.686 7.882 4.209 6.702z" fill="#a04d32"/><path d="M51.105 26.079s-.157 4.633 4.165 1.614c2.238.052 1.25-2.395 1.25-2.395 1.51-.416 1.74-2.382 1.145-3.54 1.926.052 1.62-2.925 1.354-3.957 1.51-.572 1.718-2.375 1.093-3.8 1.822-.416 1.874-2.551 1.718-4.06 1.874-.105 1.614-3.384 1.614-4.061 1.615-1.041 1.25-2.447 1.504-4.076.995-2.015-.358-2.588-1.312-.44-1.024 1.86-2.337 2.673-2.325 4.048.468.78-3.488 1.926-2.239 4.372-.885 1.094-2.967 2.5-2.227 4.175-.376.823-3.031 2.75-1.886 4.571-2.498 1.666-2.35 2.068-1.822 3.592-1.336.856-2.734 2.562-2.032 3.957z" fill="#796958"/><path d="M62.157 4.213s-.456.82-.456 1.323c0 .501 1.355.352 1.815-.141-1.007.015-1.838.179-1.359-1.182zM59.515 8.1s-.504.663-.114 1.437c.244.608 1.741.596 2.201.103-1.007.015-2.567-.177-2.087-1.54zM57.571 12.103s-.619.835-.305 1.614c0 .502 1.76.593 2.22.1-1.008.013-2.26-.303-1.915-1.714zM55.663 16.545s-.87.956-.092 1.826c.891.501 2.321.03 2.781-.463-1.007.014-3.034.047-2.689-1.363zM53.8 20.092s-.977.877-.013 2.054c.892.501 2.834.123 3.294-.37-1.007.014-3.714-.835-3.281-1.684zM51.848 24.272s-.87.956-.092 1.826c.892.502 3.743-.115 4.203-.608-1.008.014-4.456.193-4.11-1.218z" fill="#fff"/><path d="M51.156 26.15c-.28-.28-.332-.556-.228-1.066 0 0 .229-2.546-10.128-.098-.665.46 1.486 2.928 1.486 2.928s.26.134.65-.257c.156.696.527 2.53.144 2.84.772-.479 1.158-1.207 1.039-2.558 1.316.285 2.32 1.017 2.91 2.343.188-.868.373-1.736-.239-2.559 1.353.177 2.406.928 3.325 1.938.137-.579.22-1.168 0-1.818.863.293 1.604.997 2.3 1.853.001 0 .131-2.395-1.26-3.546z" fill="#a04d32"/><path d="M41.22 43.293s4.193 8.426 10.911 8.675c6.718.249 6.718-1.693 6.718-1.693s-9.628 1.89-17.628-6.982zM43.177 48.063c1.413 1.925 3.011 3.238 4.788 3.958 0 0-4.567 6.888-2.239 12.416 2.328 5.528 8.139 6.854 14.461 13.176 4.925 4.925 10.64 15.478 10.64 15.478s-11.059-8.79-18.243-8.358c0 0-1.667-5.995-6.564-10.893-6.972-6.972-10.025-16.044-2.843-25.777z" opacity=".26"/><path d="M31.54 31.082c-2.403 1.551-5.221 4.4-15.14 5.013C5.828 40.3-.611 52.642 1.656 61.185c.836 4.538 2.413 8.794 2.413 8.794-.55-3.67-.858-7.068.64-8.433.89 1.478 1.841 1.53 2.795 1.537-.986-1.49-1.109-2.981 0-4.472.923.946 1.855 1.166 2.795.84-1.32-1.52-1.158-3.007 0-4.472.86 3.114 2.767 4.621 4.75 6.008-1.368-2.687-2.582-5.378-1.816-8.105.82.452 1.61.4 2.376 0-.78-.977-.574-1.955 0-2.934 1.827 1.885 3.852 2.31 5.869 2.795-1.65-1.522-3.437-2.807-4.193-5.87.931-1.122 2.027-1.664 3.354-1.397-1.18-.723-1.023-1.576 0-2.515 1.295.684 2.601.838 3.912.699-1.74-1.042-5.223-3.097 6.988-12.578z" fill="#fff" opacity=".18"/><path d="M48.01 19.39c.617-.597.71-.403.529.177-.61 1.463.219 2.881.494 3.848l-2.4.07c.067-1.407.153-2.972 1.376-4.095z" fill="#fff" opacity=".27"/></svg>