<?xml version="1.0" encoding="UTF-8" standalone="no"?>
<svg
   xmlns:dc="http://purl.org/dc/elements/1.1/"
   xmlns:cc="http://creativecommons.org/ns#"
   xmlns:rdf="http://www.w3.org/1999/02/22-rdf-syntax-ns#"
   xmlns:svg="http://www.w3.org/2000/svg"
   xmlns="http://www.w3.org/2000/svg"
   xmlns:sodipodi="http://sodipodi.sourceforge.net/DTD/sodipodi-0.dtd"
   xmlns:inkscape="http://www.inkscape.org/namespaces/inkscape"
   inkscape:version="1.0 (4035a4fb49, 2020-05-01)"
   sodipodi:docname="org-mode-unicorn2.svg"
   id="svg44"
   xml:space="preserve"
   enable-background="new -7.65 -13.389 162 176"
   viewBox="-7.65 -13.389 146 146"
   height="146"
   width="146"
   y="0px"
   x="0px"
   version="1.1"><metadata
   id="metadata48"><rdf:RDF><cc:Work
       rdf:about=""><dc:format>image/svg+xml</dc:format><dc:type
         rdf:resource="http://purl.org/dc/dcmitype/StillImage" /><dc:title></dc:title></cc:Work></rdf:RDF></metadata><sodipodi:namedview
   inkscape:current-layer="svg44"
   inkscape:window-maximized="1"
   inkscape:window-y="0"
   inkscape:window-x="0"
   inkscape:cy="63.095902"
   inkscape:cx="111.67638"
   inkscape:zoom="4.7670455"
   showgrid="false"
   id="namedview46"
   inkscape:window-height="1374"
   inkscape:window-width="2560"
   inkscape:pageshadow="2"
   inkscape:pageopacity="0"
   guidetolerance="10"
   gridtolerance="10"
   objecttolerance="10"
   borderopacity="1"
   bordercolor="#666666"
   pagecolor="#ffffff" />
<defs
   id="defs2">
</defs>



















<g
   transform="translate(-4.7451282e-7,6.7746801)"
   id="g886"><path
     fill="#a04d32"
     stroke="#000000"
     stroke-width="3"
     d="m 133.90884,17.890217 c -0.205,-3.15 -2.842,-4.366 -5.993,-2.125 -7.219,-1.297 -14.305,-0.687 -17.8,-0.981 -7.662,-1.073 -14.041006,-5.1280005 -14.041006,-5.1280005 0.932,-1.239 0.486,-3.917 -5.498,-4.101 -1.646,-0.542 -3.336,-1.327 -4.933,-1.979 -4.082469,-1.827414 -8.582,-4.864 -8.582,-4.864 -1.319,-1.568 -2.603,-4.429 -2.584,-8.294 0,-3.2749995 -6.099,0.318 -6.099,6.784 0,0.556 -0.057,1.061 -0.135,1.542 -2.11,0.243 -4.751,0.70700002 -8.08,1.49400002 -0.106,0.073 -0.157,0.186 -0.182,0.316 -0.131,-0.485 -0.231,-1.001 -0.277,-1.553 -0.582,-3.79000002 -4.934,-9.55999952 -7.057,-2.43400002 -1.096,2.61100002 -1.74,4.39200002 -2.115,5.789 v 0 c 0,0 -0.336,0.226 -0.957,0.61 -2.619,1.622 -3.562,6.686 -13.075,9.8830005 -3.211,1.079 -7.4,1.945 -12.959,2.395 -9.57,0.773 -27.8879996,17.314 -29.1149996,33.097 -0.283,3.964 0.31,13.737 3.596,22.31 0.002,0.006 0.003,0.014 0.005,0.02 0.015,0.042 0.032,0.081 0.048,0.122 0.052,0.134 0.103,0.267 0.156,0.398 0.28,0.718 0.579,1.405 0.895,2.062 1.885,4.028 4.46,7.59 7.934,9.882 1.764,1.376 3.3419996,2.258 4.3719996,2.762 5.907,9.749 18.442,22.252003 42.075,14.859003 36.255,-10.284003 56.263006,13.809 58.568006,15.5 3.399,3.433 -8.786,-29.835003 -34.587006,-44.788003 -15.253,-8.322 -5.678,-22.656 -4.585,-27.718 0,0 12.227,8.557 21.087,-4.52 8.004006,2.062 13.367006,-1.462 20.251006,1.03 4.183,1.833 21.77,0.726 15.234,-9.104 4.11,-2.683 4.544,-1.815 6.6,-5.9 1.104,-4.952 -1.403,-6.012 -2.167,-7.366 z M 63.615834,4.5912165 c -0.041,0.018 -0.086,0.04 -0.125,0.056 0.039,-0.034 0.075,-0.062 0.115,-0.102 0.003,0.014 0.007,0.032 0.01,0.046 z m -13.413,4.523 c -0.073,0.429 -0.143,0.829 -0.212,1.2160005 0.037,-0.8320005 0.085,-1.7140005 0.143,-2.6460005 0.024,0.435 0.05,0.904 0.069,1.43 z m 10.693,-6.333 c 0.746,1.124 1.662,2.179 1.662,2.179 0,0 -0.875,-0.79 -1.662,-2.179 z"
     id="path4"
     sodipodi:nodetypes="ccccccccscccccscccccccccccccccccccccccccccccccc" /><path
     fill="#77aa99"
     stroke="#000000"
     stroke-width="0.5"
     d="m 6.9825553,76.076217 c 0,0 10.0209997,36.105003 46.5489997,24.680003 36.255,-10.284003 56.263005,13.809 58.568005,15.5 3.399,3.433 -8.786,-29.835003 -34.587005,-44.788003 -15.253,-8.322 -5.678,-22.656 -4.585,-27.718 0,0 12.227,8.557 21.087,-4.52 8.004005,2.062 13.367005,-1.462 20.251005,1.03 4.183,1.833 21.77,0.726 15.234,-9.104 4.11,-2.683 4.544,-1.815 6.6,-5.9 1.105,-4.952 -1.402,-6.011 -2.166,-7.366 -0.205,-3.15 -2.842,-4.366 -5.993,-2.125 -7.219,-1.297 -14.305,-0.687 -17.8,-0.981 -7.662,-1.073 -14.041005,-5.1280005 -14.041005,-5.1280005 0.932,-1.239 0.486,-3.917 -5.498,-4.101 -3.287,-1.082 -6.537731,-2.370673 -9.064397,-3.65824 -1.828199,-1.06453998 -3.137603,-2.04075998 -3.137603,-2.04075998 -1.606,-0.87000002 -3.924,-4.25200002 -3.899,-9.43800002 0,-3.2749995 -6.099,0.318 -6.099,6.784 0,6.466 -5.818,7.758 -5.818,7.758 0,0 -2.549,-2.281 -2.855,-5.95799998 -0.582,-3.79000002 -4.934,-9.55999952 -7.057,-2.43400002 -3.226,7.646 -3.485,9.43 -4.115,13.154 -1.31,7.7110005 -0.345,8.0120005 -0.345,8.0120005 l -32.824,23.43 z"
     id="path6"
     sodipodi:nodetypes="cccccccccccccccccsccccccc" /><path
     fill="#314b49"
     stroke="#314b49"
     stroke-width="0.75"
     stroke-linecap="round"
     stroke-linejoin="round"
     d="m 84.645555,14.656217 c 1.548,-0.562 0.896,-0.415 1.152,-0.581 -2.959,0.575 -9.635,0.614 -14.317,-1.133 0.392,0.23 2.568,0.962 2.845,1.128 0.218,0.715 0.1,1.438 2.932,2.709 2.559,0.793 5.845,0.461 6.835,-0.529 0.109,-1.684 0.126,-1.065 0.553,-1.594 z"
     id="path8" /><path
     fill="#314b49"
     stroke="#314b49"
     stroke-width="0.5"
     d="m 117.01356,33.802217 c -2.829,-2.085 -4.881,-0.264 -6.469,-0.413 0.99,-0.645 3.762,-2.062 8.245,-2.062 2.532,0 3.879,2.196 5.57,2.207 1.141,0.007 4.472,-1.71 5.14,-2.378 -0.969,0.838 0.454,1.755 -0.489,3.003 -0.282,0.359 -0.837,1.511 -2.663,2.051 -2.05,0.971 -5.411,1.762 -9.334,-2.408 z"
     id="path10" /><path
     fill="#314b49"
     d="m 55.466555,-4.1437835 c 0,0 -3.355,7.996 0.312,15.3290005 3.667,7.333 0.522,-6.8290005 4.688,-4.1620005 3.397,0.385 -2.387,-3.215 -2.033,-7.81899998 -0.176,-2.89200002 -1.77,-5.19400002 -2.967,-3.34800002 z"
     id="path12" /><path
     fill="#314b49"
     d="m 119.87056,22.240217 c 0,1.121 -1.363,2.03 -3.045,2.03 3.573,-1.121 -0.201,-4.653 -3.045,-2.03 0,-1.121 1.363,-2.03 3.045,-2.03 1.682,0 3.045,0.909 3.045,2.03 z"
     id="path14" /><path
     fill="#314b49"
     d="m 114.70356,19.656217 c 3.772,-0.231 6.336,0.323 5.536,3.138 0.548,-1.126 1.292,-2.83 -1.046,-3.507 -1.746,-0.388 -3.299,-0.378 -4.49,0.369 z"
     id="path16" /><path
     fill="#a04d32"
     stroke="#000000"
     stroke-width="0.5"
     d="m 60.463555,41.057217 c 0,-3.521 -1.509,-7.166 -7.04,-14.583 -1.635,-2.192 -2.62,-4.336 -3.211,-6.275 -1.401,-3.295 -3.426,-8.019 -0.613,-17.2330005 0,0 0.621,-0.384 0,0 -2.619,1.622 -3.562,6.686 -13.075,9.8830005 -3.211,1.079 -7.4,1.945 -12.959,2.395 -9.569,0.773 -27.8869997,17.314 -29.1139997,33.097 -0.283,3.964 0.31,13.737 3.596,22.31 0.002,0.006 0.003,0.014 0.005,0.02 0.015,0.042 0.032,0.081 0.048,0.122 0.052,0.134 0.103,0.267 0.156,0.398 0.28,0.718 0.579,1.405 0.89500002,2.062 1.88499998,4.028 4.45999998,7.59 7.93399998,9.882 3.0839997,2.404 5.6059997,3.306 5.6059997,3.306 -2.588,-3.578 -3.7699997,-7.562 -2.263,-12.32 0.651,2.637 1.903,4.162 3.646,4.777 -0.615,-1.884 -0.827,-3.549 0,-4.651 2.567,6.734 5.353,9.031 8.171,10.686 -2.631,-4.914 -4.032,-10.005 -3.771,-15.337 2.569,6.028 6.596,9.945 10.56,13.954 -3.78,-5.966 -6.911,-12.104 -6.977,-19.046 1.693,2.778 3.935,4.932 6.6,6.601 -1.683,-2.709 -2.505,-5.51 -2.263,-8.423 4.424,4.945 9.361,6.607 14.332,8.046 -5.197,-3.625 -9.843,-7.537 -12.32,-12.572 2.972,1.464 5.948,1.693 8.926,1.383 -3.706,-1.872 -5.069,-5.252 -5.783,-9.052 5.177,5.279 10.587,8.827 16.091,11.692 -5.456,-5.26 -9.479,-10.65 -11.566,-16.218 2.1,1.18 4.157,1.736 6.16,1.509 -2.766,-3.124 -3.465,-6.182 -4.211,-9.241 2.637,3.916 4.959,6.022 7.103,7.103 -2.189,-4.482 -2.034,-8.432 -0.503,-12.068 2.524,1.675 4.902,4.295 6.915,9.303 0.731,-2.386 -0.447,-6.364 -1.886,-10.56 2.175,0.622 4.779,3.351 8.171,9.932 -0.33,-3.865 -2.139,-7.775 -4.148,-11.692 3.027,3.51 7.557,12.713 6.788,10.81 z"
     id="path18" /><path
     fill="#a04d32"
     stroke="#000000"
     stroke-width="0.5"
     d="m 76.886555,2.1132165 c -0.45,-0.45 -0.534,-0.896 -0.367,-1.71799998 0,0 0.369,-4.10700002 -16.333,-0.158 -1.072,0.74 2.396,4.72199998 2.396,4.72199998 0,0 0.418,0.215 1.047,-0.415 0.253,1.123 0.852,4.081 0.233,4.579 1.245,-0.771 1.868,-1.946 1.676,-4.125 2.122,0.461 3.742,1.64 4.692,3.779 0.304,-1.4 0.603,-2.799 -0.384,-4.126 2.182,0.285 3.88,1.496 5.362,3.124 0.221,-0.933 0.354,-1.883 0,-2.931 1.391,0.473 2.587,1.607 3.71,2.988 0.001,0 0.211,-3.862 -2.032,-5.719 z"
     id="path34" /><path
     opacity="0.26"
     d="m 60.864555,29.759217 c 0,0 6.761,13.59 17.595,13.991 10.834,0.401 10.834,-2.73 10.834,-2.73 0,0 -15.527,3.048 -28.429,-11.261 z"
     id="path36" /><path
     opacity="0.26"
     d="m 64.019555,37.453217 c 2.279,3.104 4.856,5.221 7.722,6.382 0,0 -7.365,11.108 -3.611,20.023 3.754,8.915 13.125,11.053 23.321,21.249 7.942,7.942 17.158005,24.961003 17.158005,24.961003 0,0 -17.834005,-14.176003 -29.420005,-13.479003 0,0 -2.687,-9.668 -10.585,-17.566 -11.244,-11.245 -16.168,-25.875 -4.585,-41.57 z"
     id="path38" /><path
     opacity="0.18"
     fill="#ffffff"
     d="m 45.251555,10.068217 c -3.874,2.501 -8.419,7.096 -24.415,8.083 -17.0489997,6.784 -27.4329997,26.685 -23.7769997,40.464 1.348,7.317 3.89100002,14.18 3.89100002,14.18 -0.887,-5.919 -1.383,-11.397 1.03299998,-13.599 1.435,2.384 2.969,2.468 4.507,2.479 -1.59,-2.404 -1.788,-4.808 0,-7.212 1.489,1.525 2.992,1.881 4.5069997,1.353 -2.1279997,-2.449 -1.8669997,-4.848 0,-7.211 1.388,5.022 4.462,7.453 7.662,9.689 -2.208,-4.333 -4.166,-8.672 -2.93,-13.07 1.323,0.729 2.595,0.644 3.831,0 -1.257,-1.576 -0.925,-3.153 0,-4.732 2.947,3.04 6.213,3.724 9.465,4.507 -2.661,-2.454 -5.543,-4.527 -6.761,-9.465 1.501,-1.811 3.269,-2.685 5.408,-2.253 -1.901,-1.167 -1.65,-2.543 0,-4.057 2.089,1.104 4.195,1.352 6.31,1.127 -2.807,-1.68 -8.424,-4.994 11.269,-20.283 z"
     id="path40" /><path
     opacity="0.27"
     fill="#ffffff"
     d="m 71.812555,-8.7877835 c 0.996,-0.963 1.146,-0.65 0.854,0.285 -0.982,2.36 0.353,4.647 0.797,6.206 l -3.871,0.114 c 0.108,-2.271 0.247,-4.794 2.22,-6.605 z"
     id="path42" /></g>
</svg>
