<svg width="60pt" height="60pt" viewBox="0 -4 512 512" xmlns="http://www.w3.org/2000/svg"><g fill="#587e72"><path d="M430.38 283.08l11.543-12.957 63.488-71.289a26.04 26.04 0 00-3.195-37.665c-11.406-8.473-27.43-6.668-36.664 4.133l-56.738 63.703a8.669 8.669 0 01-12.25.71L344.72 183.54l-32.402-28.852a8.68 8.68 0 00-12.254.71l-28.855 32.396-241.43 271.08c-9.664 10.422-9.606 26.547.129 36.898a26.031 26.031 0 0037.785-1.129l236.62-265.73a8.67 8.67 0 015.98-2.895 8.676 8.676 0 016.274 2.18l51.844 46.176 12.965 11.543c14.316 12.746 36.254 11.477 49.004-2.836zM74.82 175.54c11.41 8.473 27.43 6.668 36.664-4.133l56.738-63.703a8.678 8.678 0 0112.254-.71l58.324 51.944a8.68 8.68 0 0012.254-.71l23.082-25.923a8.68 8.68 0 00-.711-12.253l-64.797-57.707-12.97-11.551c-14.311-12.746-36.253-11.477-49.003 2.835l-11.54 12.965-63.487 71.281a26.028 26.028 0 00-6.504 19.52 26.045 26.045 0 009.695 18.145z"/><path d="M274.32 458.93c-9.664 10.422-9.605 26.547.129 36.898a26.036 26.036 0 0019.14 7.535 26.04 26.04 0 0018.634-8.715l63.535-71.273 11.539-12.953a34.72 34.72 0 00-2.836-49.016l-12.957-11.539-64.809-57.719a8.68 8.68 0 00-6.273-2.183 8.686 8.686 0 00-5.977 2.894l-23.086 25.922a8.68 8.68 0 00-2.183 6.274 8.702 8.702 0 002.894 5.98l58.324 51.938a8.681 8.681 0 012.89 5.98 8.666 8.666 0 01-2.187 6.274z"/></g><g fill="#77aa99"><path d="M335.66 121.27c28.629 25.504 72.512 22.965 98.016-5.668 25.5-28.629 22.965-72.512-5.668-98.016-28.629-25.5-72.516-22.965-98.016 5.668a69.435 69.435 0 00-17.469 50.184 69.421 69.421 0 0023.137 47.832zM8.68 234.3h69.422c4.793 0 8.68-3.883 8.68-8.676a8.68 8.68 0 00-8.68-8.68H8.68a8.68 8.68 0 00-8.68 8.68c0 4.793 3.887 8.676 8.68 8.676zM34.711 260.34a8.68 8.68 0 008.68 8.68h69.422a8.68 8.68 0 000-17.36H43.39a8.68 8.68 0 00-8.68 8.68z"/></g></svg>
