<svg width="64px" height="64px" fill="#7a9" viewBox="0 0 52.788 60.02" xmlns="http://www.w3.org/2000/svg"><path d="M14.054 30.688l-2.8 2a1 1 0 00-.11 1.52l10.81 10.81a1 1 0 00.71.29h.08a1 1 0 00.73-.42l2-2.8z" fill="#587e72"/><path d="M56.144 1.018a1 1 0 00-1-1 44.57 44.57 0 00-30.61 11c-.76.66-1.51 1.36-2.22 2.08a44.38 44.38 0 00-9.06 13 1 1 0 00.2 1.12l15.44 15.48a1 1 0 001.12.21c.85-.38 1.72-.81 2.56-1.27a44.36 44.36 0 0010.49-7.78c.51-.51 1-1 1.48-1.56a44.38 44.38 0 0011.6-31.28zm-11.9 20.1a6.5 6.5 0 111.9-4.6 6.45 6.45 0 01-1.9 4.6z"/><path d="M44.464 35.268a46.36 46.36 0 01-11 8.13c-.74.4-1.5.78-2.26 1.14l.36 8.86a1 1 0 001.58.82 22.93 22.93 0 005-3.77 23.3 23.3 0 006.83-15.62zM20.894 11.698l.44-.41a23.31 23.31 0 00-15.63 6.83 22.94 22.94 0 00-3.76 4.9 1 1 0 00.83 1.49l8.86.36a46.36 46.36 0 019.26-13.17z" fill="#587e72"/><path d="M18.034 44.508a1 1 0 00-1.81-.22 3.13 3.13 0 01-.46.61c-.56.56-1.93.71-3.13.85a17.3 17.3 0 00-1.72.25 12.63 12.63 0 00-1.84.55c.21-2 .8-4.75 2.19-6.14a3.14 3.14 0 01.61-.46 1 1 0 00-.22-1.81 9.72 9.72 0 00-9.81 2.39c-5.64 5.64-5.7 17.97-5.7 18.49a1 1 0 001.44.9 48.37 48.37 0 017.9-2.76 25.9 25.9 0 013.15-.52c2.64-.33 5.36-.68 7-2.32a9.72 9.72 0 002.4-9.81z"/></svg>
