<svg viewBox="0 0 512 512" xmlns="http://www.w3.org/2000/svg"><path d="M157.76 305.47c.232.01.454.06.688.06 7.785 0 14.506-5.459 16.103-13.08 13.011-62.064 61.523-110.57 123.59-123.58a16.455 16.455 0 00.002-32.208c-62.065-13.011-110.58-61.522-123.59-123.59A16.455 16.455 0 00158.448-.004c-.234 0-.456.05-.689.06v305.41z" fill="#587e72"/><path d="M157.76 305.47V.06c-7.487.316-13.865 5.627-15.414 13.018-13.01 62.065-61.521 110.57-123.59 123.58a16.454 16.454 0 000 32.208c62.064 13.011 110.57 61.521 123.58 123.59 1.55 7.391 7.928 12.705 15.416 13.02z" fill="#77aa99"/><g fill="#77aa99"><path d="M197.42 511.93c7.432-.37 13.751-5.656 15.291-13.008 6.131-29.243 28.987-52.1 58.23-58.23 7.62-1.597 13.08-8.318 13.08-16.104s-5.46-14.506-13.08-16.104c-29.242-6.129-52.098-28.985-58.229-58.229-1.54-7.35-7.86-12.641-15.293-13.01v174.68z" fill="#587e72"/><path d="M197.42 511.93V337.25c-.273-.014-.535-.07-.81-.07a16.453 16.453 0 00-16.105 13.078c-6.13 29.243-28.988 52.099-58.23 58.229-7.62 1.597-13.08 8.32-13.08 16.105s5.46 14.507 13.08 16.104c29.241 6.13 52.097 28.987 58.227 58.23a16.455 16.455 0 0016.105 13.078c.277 0 .54-.057.813-.07z"/></g><g><path d="M397.74 380.06c.232.01.455.06.69.06a16.452 16.452 0 0016.103-13.077c8.287-39.526 39.18-70.42 78.705-78.703a16.455 16.455 0 000-32.209c-39.526-8.286-70.418-39.18-78.703-78.705a16.453 16.453 0 00-16.104-13.078c-.235 0-.458.05-.691.06v215.65z" fill="#587e72"/><path d="M397.74 380.06V164.41c-7.485.317-13.865 5.627-15.414 13.018-8.286 39.526-39.177 70.418-78.703 78.703a16.456 16.456 0 000 32.209c39.525 8.286 70.416 39.179 78.701 78.705 1.549 7.39 7.93 12.702 15.416 13.018z" fill="#77aa99"/></g></svg>
